<svg width="100" height="100" viewBox="0 0 100 100" fill="none" xmlns="http://www.w3.org/2000/svg">
<path d="M39.3539 65.337L50.1227 71.7121C51.5042 72.53 53.2312 71.5076 53.2312 69.8719V67.4524C57.1467 66.8794 60.7618 65.0351 63.6084 62.1162C67.0853 58.5511 69 53.811 69 48.7692C69 46.5873 67.275 44.8185 65.1471 44.8185C63.0193 44.8185 61.2942 46.5873 61.2942 48.7692C61.2942 53.8866 57.8603 58.1969 53.2311 59.4053V57.1216C53.2311 55.4859 51.5042 54.4635 50.1226 55.2814L39.3538 61.6566C37.9725 62.4745 37.9725 64.5192 39.3539 65.337Z" fill="#FFA733"/>
<path d="M60.646 34.6631L49.8773 28.2879C48.4958 27.47 46.7688 28.4923 46.7688 30.128V32.5476C42.8533 33.1206 39.2382 34.9649 36.3916 37.8838C32.9147 41.4489 31 46.189 31 51.2308C31 53.4126 32.7251 55.1815 34.8529 55.1815C36.9807 55.1815 38.7058 53.4126 38.7058 51.2308C38.7058 46.1134 42.1397 41.8031 46.7689 40.5947V42.8784C46.7689 44.5141 48.4958 45.5365 49.8774 44.7185L60.6462 38.3434C62.0276 37.5256 62.0276 35.4809 60.646 34.6631Z" fill="#1AA581"/>
</svg>
