<svg width="8" height="10" viewBox="0 0 8 10" fill="none" xmlns="http://www.w3.org/2000/svg">
<path d="M4.69187 9.71575L7.70811 6.78945C8.0973 6.4105 8.0973 5.81054 7.70811 5.4316C7.31891 5.05265 6.70273 5.05265 6.31354 5.4316L4.98382 6.72631V0.95791C4.98382 0.431596 4.54055 0 4.00001 0C3.45947 0 3.0162 0.431596 3.0162 0.95791V6.72631L1.68648 5.4421C1.29729 5.06316 0.681105 5.06316 0.291913 5.4421C0.0973559 5.63154 0 5.8737 0 6.11578C0 6.35787 0.0972807 6.61052 0.291913 6.78947L3.29734 9.71577C3.48112 9.89471 3.72974 10 3.98924 10C4.24866 10 4.5081 9.89469 4.69187 9.71575Z" fill="#FFA733"/>
</svg>
