<svg width="46" height="46" viewBox="0 0 46 46" fill="none" xmlns="http://www.w3.org/2000/svg">
<rect width="46" height="46" rx="23" fill="black"/>
<path d="M26.1971 29.9998H30.9591C31.5005 29.9998 32.0195 29.7891 32.4023 29.4141C32.785 29.039 33 28.5304 33 27.9999V23.3333C33 22.8027 32.785 22.2941 32.4023 21.919C32.0195 21.544 31.5005 21.3333 30.9591 21.3333H28.9183C28.9577 20.1815 29.4443 19.0879 30.2788 18.276C30.534 18.0259 30.6771 17.6869 30.6771 17.3333C30.6771 16.9798 30.5339 16.6406 30.2788 16.3906C30.0237 16.1406 29.6777 16.0002 29.3169 16C27.949 16.0025 26.6378 16.536 25.6705 17.4839C24.7032 18.4318 24.1588 19.7168 24.1562 21.0572V28C24.1562 28.5305 24.3713 29.0391 24.7539 29.4143C25.1367 29.7893 25.6558 30 26.1971 30V29.9998Z" fill="white"/>
<path d="M15.0409 29.9998H19.8029C20.3443 29.9998 20.8633 29.7891 21.2461 29.4141C21.6288 29.039 21.8438 28.5304 21.8438 27.9999V23.3333C21.8438 22.8027 21.6288 22.2941 21.2461 21.919C20.8633 21.544 20.3443 21.3333 19.8029 21.3333H17.7621C17.8016 20.1815 18.2881 19.0879 19.1227 18.276C19.3778 18.0259 19.521 17.6869 19.521 17.3333C19.521 16.9798 19.3778 16.6406 19.1227 16.3906C18.8676 16.1406 18.5215 16.0002 18.1607 16C16.7928 16.0025 15.4816 16.536 14.5143 17.4839C13.547 18.4318 13.0026 19.7168 13.0001 21.0572V28C13.0001 28.5305 13.2151 29.0391 13.5977 29.4143C13.9806 29.7893 14.4996 30 15.0409 30V29.9998Z" fill="white"/>
</svg>
