<svg width="130" height="80" viewBox="0 0 130 80" fill="none" xmlns="http://www.w3.org/2000/svg">
<path d="M55.9709 55.2363C56.1386 55.3895 56.2133 55.5533 56.1963 55.7288C56.1779 55.9031 56.1255 56.0616 56.039 56.2057C56.039 56.2332 56.039 56.2476 56.039 56.2476C55.431 57.6834 54.5163 58.7655 53.2976 59.4965C52.0776 60.2261 50.6087 60.5301 48.8894 60.4082C47.2357 60.2471 45.9397 59.6707 45.0001 58.679C44.0592 57.686 43.518 56.3537 43.3752 54.6808C43.3084 53.866 43.3385 53.0564 43.4643 52.2494C43.5927 51.4424 43.7539 50.6354 43.9465 49.8285C44.0684 49.3228 44.1903 48.8171 44.3134 48.3141C44.5441 47.4796 44.7446 46.6359 44.9162 45.7831C45.16 44.4416 45.0171 43.5115 44.4864 42.9901C43.9544 42.47 43.2022 42.1936 42.2273 42.1622C41.2549 42.1281 40.2695 42.1766 39.271 42.3089C38.701 42.3652 38.1781 42.4019 37.7037 42.4189C37.515 42.4189 37.3683 42.4713 37.2634 42.5761C37.1586 42.6809 37.0642 42.8002 36.9804 42.9325C36.4772 43.8272 35.9871 44.7338 35.5127 45.6521C31.0783 54.0074 26.2717 62.144 21.093 70.0605C20.2962 71.2684 19.4707 72.4618 18.6189 73.6395C18.4263 73.9225 18.2114 74.1753 17.9742 74.3993C17.7357 74.622 17.4461 74.7871 17.1041 74.8919C16.4777 75.0701 15.985 75.0282 15.6207 74.7662C15.2538 74.5068 15.0847 74.0456 15.1122 73.3828C15.1515 72.6138 15.2642 71.8395 15.4529 71.0614C16.5851 66.3414 18.0436 62.3012 19.8297 58.941C21.6145 55.5795 23.7688 52.5428 26.2927 49.8285C28.8191 47.1115 31.7348 44.3709 35.041 41.6067C35.5651 41.1914 35.9818 40.6792 36.2937 40.0714C36.7301 39.2369 37.1665 38.4024 37.6041 37.5666C39.2186 34.4618 40.8081 31.3466 42.374 28.2235C43.9426 25.1004 45.426 21.9393 46.8242 18.7389C48.2001 15.5463 48.9104 13.1608 48.9523 11.5809C48.9942 9.99836 48.2617 9.16387 46.7561 9.0761C45.253 8.9857 42.8825 9.58439 39.6431 10.8735C36.4693 12.1494 33.3636 13.5695 30.3235 15.1337C27.286 16.6992 24.2917 18.3707 21.3393 20.1485C20.2346 20.7956 18.8731 21.6524 17.2561 22.7214C15.639 23.7877 14.0416 24.9353 12.4652 26.1641C10.8862 27.3942 9.58491 28.5981 8.56017 29.7745C7.80931 30.6654 7.62192 31.2732 7.99932 31.5981C8.37409 31.9204 9.12496 32.1051 10.2532 32.1536C10.7957 32.1719 11.7196 32.1771 13.0261 32.1693C14.3338 32.1588 15.7884 32.0907 17.3923 31.9649C18.2939 31.8994 19.1719 31.8326 20.0289 31.7658C21.3183 31.644 22.4217 31.5614 23.3416 31.5195C24.2641 31.4776 24.8106 31.5326 24.9823 31.6819C25.0412 31.8431 24.4031 32.0226 23.0691 32.2217C21.7337 32.4208 20.0879 32.6042 18.1314 32.7719C16.175 32.9396 14.2788 33.0418 12.4442 33.0758C10.607 33.1073 9.21538 33.0378 8.27188 32.8662C6.62338 32.5138 5.87121 31.8732 6.01797 30.9431C6.16474 30.0103 6.96016 28.8877 8.40292 27.5737C9.847 26.261 11.6842 24.8632 13.9171 23.3816C16.1475 21.9013 18.5403 20.4209 21.0982 18.9432C23.6587 17.4655 26.1367 16.0965 28.5308 14.835C30.9237 13.5747 32.9876 12.5267 34.7212 11.6909C36.4536 10.8525 37.6251 10.3115 38.2331 10.0665C40.7203 9.05776 42.91 8.37654 44.8009 8.02283C46.6905 7.66651 48.1687 7.76083 49.2354 8.3058C50.3046 8.85077 50.8445 9.96037 50.855 11.6333C50.8655 13.3036 50.2326 15.6616 48.9575 18.7074C47.9328 21.1284 46.8412 23.527 45.6815 25.9021C44.5244 28.2746 43.3464 30.6379 42.1486 32.992C41.6939 33.8933 41.2235 34.8247 40.7386 35.785C40.4726 36.3063 40.183 36.8618 39.8685 37.4513C40.221 37.3648 40.5054 37.2522 40.7229 37.1159C40.9431 36.9797 41.1383 36.8408 41.31 36.6967C41.3938 36.6312 41.4882 36.5683 41.593 36.5081C45.7719 33.4518 50.3361 30.3745 55.2842 27.275C60.2323 24.1768 65.4334 21.2856 70.8886 18.6026C76.3465 15.9197 81.9275 13.6913 87.6304 11.9162C93.3333 10.1425 99.0258 9.04466 104.708 8.62545C110.392 8.20624 115.942 8.70405 121.355 10.1189C121.41 10.1398 121.471 10.1949 121.533 10.2813C121.596 10.3652 121.628 10.449 121.628 10.5328C121.628 10.6586 121.582 10.7569 121.491 10.8263C121.4 10.897 121.279 10.9311 121.13 10.9311C121.025 10.9599 120.91 10.9507 120.784 10.9049C116.272 9.73897 111.597 9.28963 106.757 9.55819C101.92 9.82805 97.0156 10.6416 92.0439 12.0001C87.0748 13.3599 82.1503 15.1048 77.2729 17.235C72.3943 19.3664 67.6715 21.7153 63.1048 24.2829C58.5367 26.8506 54.2424 29.4837 50.2208 32.1798C46.1978 34.8771 42.5588 37.4697 39.3024 39.9561C39.2815 39.977 39.271 39.9875 39.271 39.9875C39.0155 40.1487 38.7743 40.3334 38.5476 40.543C38.3196 40.75 38.2148 40.9281 38.2331 41.0775C38.2502 41.2242 38.5109 41.2871 39.0141 41.2661C39.1675 41.2661 39.3155 41.2661 39.4597 41.2661C40.3783 41.1823 41.3427 41.1587 42.3531 41.1927C43.366 41.2242 44.2899 41.3958 45.1259 41.7063C46.342 42.2093 46.95 43.108 46.95 44.3997C46.9317 45.0076 46.857 45.6023 46.7246 46.1813C46.5149 47.1494 46.2961 48.1123 46.0694 49.0686C45.8388 50.114 45.6094 51.1686 45.3827 52.2337C45.1062 53.4874 45.1495 54.7397 45.5138 55.9908C45.8624 57.0729 46.4127 57.9139 47.1649 58.5113C47.9158 59.1113 48.7715 59.4257 49.7333 59.4545C50.6978 59.4821 51.6596 59.1834 52.6215 58.5585C53.3343 58.0829 53.9083 57.4698 54.346 56.7192C54.4298 56.5476 54.515 56.376 54.6028 56.2057C54.6578 56.0445 54.7286 55.8873 54.8125 55.7341C54.9828 55.4681 55.1768 55.2887 55.3943 55.1943C55.6144 55.1 55.8058 55.1131 55.9709 55.2363ZM32.8762 46.4643C32.8932 46.4263 32.926 46.3739 32.9758 46.3071C33.0518 46.1643 33.15 45.9901 33.2693 45.7831C33.3872 45.5735 33.4763 45.3744 33.5366 45.1857C33.5995 44.9945 33.6048 44.8765 33.5523 44.8346C33.4999 44.7927 33.3453 44.8765 33.0911 45.0862C28.8349 48.4267 25.4881 52.1786 23.0533 56.3472C20.6173 60.5144 18.7919 65.2946 17.5758 70.6893C17.471 71.1636 17.4605 71.4282 17.5444 71.4806C17.6308 71.533 17.7697 71.4609 17.9584 71.2658C18.1498 71.0693 18.3332 70.8413 18.5088 70.5793C18.6831 70.3199 18.8141 70.1391 18.9019 70.0343C21.3891 66.1881 23.8003 62.3065 26.1354 58.3908C28.4732 54.4738 30.7192 50.4992 32.8762 46.4643Z" fill="white"/>
<path d="M102.123 9.33849C101.442 11.162 100.71 12.962 99.9321 14.7358C91.7997 33.1365 84.8231 48.9249 79.0022 62.1012C77.6459 62.3488 77.372 61.547 78.1793 59.696C79.6889 55.6781 82.3372 49.2891 86.1256 40.5276C89.9166 31.7635 93.7784 23.0283 97.7096 14.3218C98.5064 12.5481 99.2363 10.7533 99.9007 8.94024C99.9216 8.85378 99.9544 8.76731 100 8.68347C100.143 8.35203 100.262 7.99178 100.357 7.60401C100.454 7.21362 100.469 6.78917 100.404 6.33066C99.7958 6.43546 99.2428 6.61232 98.7475 6.85991C98.6138 6.90969 98.4959 6.95161 98.3911 6.98568C93.7574 8.91404 88.9155 11.4241 83.8665 14.5157C78.8201 17.6048 74.4315 20.8301 70.6994 24.1942C69.9027 24.9252 69.1282 25.6863 68.3774 26.4789C67.6252 27.2728 66.9228 28.119 66.2702 29.0203C65.5364 29.978 64.9939 31.0417 64.6453 32.2116C63.998 34.3849 64.6453 36.0355 66.5847 37.1635C67.9397 37.9364 69.2921 38.4526 70.6418 38.7146C71.9902 38.9739 73.26 39.0945 74.4525 39.0761C75.6436 39.0552 76.6762 38.9923 77.5503 38.8875C77.9093 38.8704 78.2238 38.8482 78.4938 38.8194C78.6615 38.7984 78.8318 38.8063 79.0074 38.8403C79.1857 38.8718 79.3403 38.9687 79.4739 39.1285C79.6836 39.4259 79.4111 39.6525 78.6563 39.8097C77.9015 39.9643 76.8702 40.0403 75.5637 40.0403C74.2559 40.0403 72.8721 39.9604 71.4123 39.7993C68.819 39.4403 66.8049 38.8849 65.3687 38.1329C64.4881 37.6967 63.7569 37.0888 63.1777 36.3093C62.5028 35.3701 62.2407 34.3417 62.3914 33.2229C62.5343 32.0465 62.9012 30.9579 63.4922 29.9583C64.4697 28.3273 65.6281 26.8562 66.9674 25.5462C69.3012 23.1436 72.0151 20.8196 75.1077 18.5768C78.2002 16.3314 81.4029 14.2511 84.7156 12.3358C88.0309 10.4219 91.1943 8.75421 94.203 7.33152C95.5789 6.70271 96.9758 6.11844 98.3911 5.57608C99.0646 5.31146 99.7696 5.12544 100.503 5.02063C100.709 4.99312 100.894 4.99312 101.059 5.02063C102.414 4.95513 102.979 5.6429 102.752 7.08524C102.608 7.85815 102.398 8.6088 102.123 9.33849Z" fill="white"/>
<path d="M104.235 44.0862C104.311 44.0692 104.397 44.0705 104.492 44.0914C104.586 44.1098 104.655 44.1517 104.701 44.2172C104.76 44.322 104.759 44.4268 104.696 44.5316C104.633 44.6338 104.54 44.7137 104.418 44.7727C103.565 45.1892 102.706 45.6202 101.839 46.067C100.823 46.591 99.8017 47.1137 98.7783 47.6338C98.6237 47.6901 98.4769 47.7621 98.338 47.8486C98.1074 47.9717 97.878 48.0844 97.6513 48.1892C97.1298 48.4447 96.7839 48.8429 96.6135 49.384C96.1549 50.6769 95.6752 51.9582 95.172 53.2302C94.5247 54.9306 93.7175 56.5498 92.7504 58.0878C92.2079 58.9707 91.554 59.7541 90.7848 60.4353C89.8662 61.3013 88.8126 61.8476 87.6241 62.0755C85.6571 62.4738 83.761 62.3441 81.9369 61.6877C81.19 61.4218 80.5452 60.996 80.0027 60.4091C79.2728 59.6192 79.2401 58.7742 79.9031 57.8729C80.1967 57.4917 80.5243 57.1354 80.8833 56.8039C81.6905 56.073 82.5646 55.4179 83.5041 54.8389C86.8771 52.6826 90.3392 50.6992 93.8931 48.8861C93.9101 48.8861 93.9193 48.8861 93.9193 48.8861C94.2888 48.6975 94.6544 48.4984 95.0148 48.2888C95.0738 48.2403 95.1537 48.1394 95.2559 47.9848C95.3607 47.8276 95.4394 47.6704 95.4918 47.5132C95.5442 47.356 95.5298 47.2434 95.4499 47.1726C95.3686 47.0993 95.172 47.1346 94.8575 47.2774C94.7344 47.3272 94.6217 47.3796 94.5168 47.4346C94.2403 47.5683 93.9665 47.6862 93.6939 47.791C92.069 48.1787 91.2565 47.5525 91.2565 45.9098C91.2958 44.922 91.592 44.0325 92.1476 43.2425C92.7032 42.45 93.4122 41.8277 94.2757 41.3771C95.138 40.9238 96.0736 40.7482 97.08 40.853C97.1848 40.853 97.2897 40.8675 97.3945 40.895C97.6697 40.9343 97.9475 40.9526 98.2279 40.9526C98.507 40.9526 98.7953 40.8923 99.0928 40.7692C99.4034 40.6474 99.6379 40.6841 99.7952 40.8792C99.9524 41.0718 99.9786 41.3247 99.8738 41.6391C99.5973 42.226 99.3261 42.8233 99.0613 43.4312C98.8726 43.8019 98.6918 44.1858 98.5215 44.584C98.3328 45.0032 98.1467 45.4316 97.9658 45.8678C97.7103 46.4377 97.6723 46.7364 97.8505 46.7639C98.0314 46.7927 98.3406 46.6932 98.7783 46.4652C98.8333 46.4482 98.8949 46.4285 98.9618 46.4076C99.7611 46.0303 100.566 45.6569 101.373 45.2862C101.942 45.0281 102.506 44.7661 103.066 44.5002C103.446 44.3299 103.836 44.191 104.235 44.0862ZM94.1027 51.7368C94.3989 50.9023 94.5247 50.3534 94.4801 50.0914C94.4382 49.8294 94.2548 49.7612 93.9298 49.887C93.6074 50.0101 93.1868 50.2368 92.6665 50.5682C92.3337 50.7778 91.9694 50.9861 91.571 51.1918C89.1677 52.494 86.826 53.8865 84.5472 55.3682C83.5408 55.9551 82.6432 56.6651 81.853 57.5009C81.0183 58.3943 81.0458 59.1882 81.9369 59.8799C82.4611 60.2991 83.0455 60.5899 83.6876 60.755C84.3271 60.9227 85.0321 61.0065 85.8 61.0065C86.7015 61.072 87.5376 60.907 88.3055 60.5087C89.0747 60.1105 89.7876 59.5105 90.4441 58.7114C90.832 58.19 91.208 57.6502 91.571 57.0922C92.6154 55.3799 93.4593 53.5944 94.1027 51.7368ZM93.1645 46.6958C93.4122 46.8006 93.7699 46.7102 94.239 46.4233C94.7108 46.1377 95.193 45.746 95.6857 45.2495C96.1784 44.7504 96.5689 44.2408 96.8599 43.7194C97.1495 43.1954 97.2228 42.7539 97.08 42.3936C97.0446 42.2888 96.983 42.1945 96.8965 42.1107C96.7458 41.9299 96.5781 41.8434 96.3933 41.8539C96.2073 41.8618 96.0107 41.8945 95.801 41.9535C95.1052 42.226 94.4919 42.6976 93.9612 43.3683C93.4292 44.039 93.0767 44.7032 92.9024 45.3595C92.7268 46.0132 92.8146 46.4587 93.1645 46.6958Z" fill="white"/>
<path d="M106.085 48.3453H106.043C104.666 48.3243 103.761 48.0191 103.323 47.4283C102.886 46.8348 102.906 46.0436 103.38 45.0545C103.779 44.3038 104.282 43.6488 104.89 43.0894C105.1 42.9008 105.312 42.7488 105.53 42.6336C105.75 42.5183 105.996 42.4606 106.269 42.4606C106.432 42.4331 106.617 42.4633 106.824 42.5497C106.89 42.5681 106.957 42.5903 107.023 42.6178C107.187 42.5903 107.344 42.5379 107.495 42.4606C107.533 42.4331 107.586 42.4109 107.652 42.3925C107.967 42.2707 108.298 42.2183 108.648 42.2353C108.791 42.2353 108.939 42.2353 109.094 42.2353C109.652 42.3192 110.074 42.555 110.357 42.9427C110.643 43.3279 110.745 43.7942 110.661 44.3418C110.611 44.6746 110.507 44.989 110.347 45.2851C109.252 47.2383 107.859 48.2588 106.169 48.3453H106.085ZM108.339 43.2467C107.587 43.2191 106.92 43.4353 106.337 43.8964C105.752 44.3549 105.317 44.8842 105.032 45.4842C104.745 46.0816 104.666 46.5728 104.796 46.9567C104.924 47.3418 105.321 47.4479 105.986 47.2763C106.736 47.0497 107.398 46.6239 107.972 45.9977C108.549 45.3689 108.9 44.7741 109.026 44.2108C109.154 43.6449 108.926 43.3239 108.339 43.2467Z" fill="white"/>
<path d="M118.22 42.9799C118.137 43.6336 117.829 44.0593 117.298 44.2585C116.766 44.4576 116.593 44.1982 116.779 43.4777C116.964 42.7545 116.637 42.5711 115.799 42.9275C114.963 43.2838 114.275 43.7331 113.734 44.2742C112.898 45.127 112.157 46.048 111.511 47.0357C111.444 47.1196 111.393 47.1916 111.359 47.2506C111.168 47.523 110.976 47.7837 110.788 48.0313C110.666 48.203 110.52 48.3091 110.353 48.351C110.185 48.3929 110.016 48.4008 109.844 48.3719C109.684 48.3549 109.561 48.2933 109.477 48.1885C109.391 48.0837 109.38 47.9606 109.446 47.8165C109.551 47.5623 109.675 47.3017 109.818 47.0357C110.675 45.4506 111.543 43.8589 112.423 42.262C112.444 42.2449 112.455 42.2279 112.455 42.2096C112.577 41.962 112.723 41.7327 112.895 41.5231C113.084 41.3135 113.301 41.2284 113.55 41.2664C113.798 41.3057 113.964 41.4524 114.048 41.7065C114.153 42.0419 114.243 42.2305 114.321 42.2725C114.397 42.3144 114.568 42.2829 114.834 42.1781C115.403 41.9685 115.959 41.8218 116.501 41.738C117.042 41.6515 117.487 41.6725 117.833 41.8008C118.179 41.9305 118.307 42.3235 118.22 42.9799Z" fill="white"/>
<path d="M124.169 45.7203C123.662 46.3216 123.061 46.8731 122.366 47.3762C121.674 47.8792 120.891 48.2198 120.018 48.398C119.144 48.5735 118.466 48.508 117.984 48.2041C117.499 47.9002 117.402 47.2268 117.696 46.1814C118.077 45.0993 118.599 44.0684 119.263 43.0898C119.416 42.8802 119.635 42.7334 119.918 42.6496C120.128 42.6011 120.311 42.6365 120.469 42.7544C120.626 42.8736 120.685 43.0243 120.647 43.205C120.503 43.5483 120.345 43.8902 120.175 44.2321C120.003 44.5714 119.889 44.7928 119.834 44.8976C119.502 45.5055 119.27 46.1421 119.137 46.805C119.137 47.1862 119.643 47.2111 120.657 46.8784C121.674 46.5469 122.661 45.9378 123.619 45.0496C124.579 44.1627 125.039 43.902 124.997 44.2688C124.955 44.633 124.679 45.1164 124.169 45.7203ZM121.685 40.9518C121.635 40.9911 121.538 41.0356 121.391 41.088C121.244 41.1404 121.087 41.1797 120.919 41.2033C120.754 41.2282 120.626 41.202 120.532 41.1247C120.437 41.0487 120.432 40.8968 120.516 40.6688C120.669 40.2706 120.828 39.9234 120.993 39.626C121.161 39.3261 121.377 38.9946 121.643 38.6304C121.813 38.4706 121.999 38.3828 122.198 38.3684C122.398 38.3553 122.563 38.4077 122.696 38.5256C122.829 38.6448 122.867 38.8086 122.812 39.0182C122.602 39.7662 122.226 40.4108 121.685 40.9518Z" fill="white"/>
</svg>
