<svg width="16" height="16" viewBox="0 0 16 16" fill="none" xmlns="http://www.w3.org/2000/svg">
<path d="M8 0C3.5818 0 0 3.58175 0 8C0 12.4183 3.58175 16 8 16C12.4183 16 16 12.4183 16 8C16 3.58175 12.4183 0 8 0ZM8 3.25936C8.32738 3.25936 8.59254 3.52474 8.59254 3.8519V7.40741H11.5555C11.8829 7.40741 12.148 7.67278 12.148 7.99995C12.148 8.32733 11.8827 8.59249 11.5555 8.59249H8C7.67262 8.59249 7.40746 8.32711 7.40746 7.99995V3.8519C7.40746 3.52452 7.67284 3.25936 8 3.25936Z" fill="#AEADB6"/>
</svg>
