<svg width="1845" height="981" viewBox="0 0 1845 981" fill="none" xmlns="http://www.w3.org/2000/svg">
<rect width="1840" height="966" rx="20" fill="#1AA581"/>
<g clip-path="url(#clip0_131_5377)">
<g clip-path="url(#clip1_131_5377)">
<path opacity="0.2" d="M1278 410H1318C1318 432.091 1300.09 450 1278 450V410Z" fill="white"/>
</g>
<g opacity="0.2">
<path d="M1497 196H1501V200H1497V196Z" fill="white"/>
<path d="M1521 196H1525V200H1521V196Z" fill="white"/>
<path d="M1545 196H1549V200H1545V196Z" fill="white"/>
<path d="M1569 196H1573V200H1569V196Z" fill="white"/>
<path d="M1593 196H1597V200H1593V196Z" fill="white"/>
<path d="M1617 196H1621V200H1617V196Z" fill="white"/>
<path d="M1641 196H1645V200H1641V196Z" fill="white"/>
<path d="M1497 220H1501V224H1497V220Z" fill="white"/>
<path d="M1521 220H1525V224H1521V220Z" fill="white"/>
<path d="M1545 220H1549V224H1545V220Z" fill="white"/>
<path d="M1569 220H1573V224H1569V220Z" fill="white"/>
<path d="M1593 220H1597V224H1593V220Z" fill="white"/>
<path d="M1617 220H1621V224H1617V220Z" fill="white"/>
<path d="M1641 220H1645V224H1641V220Z" fill="white"/>
<path d="M1497 244H1501V248H1497V244Z" fill="white"/>
<path d="M1521 244H1525V248H1521V244Z" fill="white"/>
<path d="M1545 244H1549V248H1545V244Z" fill="white"/>
<path d="M1569 244H1573V248H1569V244Z" fill="white"/>
<path d="M1593 244H1597V248H1593V244Z" fill="white"/>
<path d="M1617 244H1621V248H1617V244Z" fill="white"/>
<path d="M1641 244H1645V248H1641V244Z" fill="white"/>
<path d="M1497 268H1501V272H1497V268Z" fill="white"/>
<path d="M1521 268H1525V272H1521V268Z" fill="white"/>
<path d="M1545 268H1549V272H1545V268Z" fill="white"/>
<path d="M1569 268H1573V272H1569V268Z" fill="white"/>
<path d="M1593 268H1597V272H1593V268Z" fill="white"/>
<path d="M1617 268H1621V272H1617V268Z" fill="white"/>
<path d="M1641 268H1645V272H1641V268Z" fill="white"/>
<path d="M1497 292H1501V296H1497V292Z" fill="white"/>
<path d="M1521 292H1525V296H1521V292Z" fill="white"/>
<path d="M1545 292H1549V296H1545V292Z" fill="white"/>
<path d="M1569 292H1573V296H1569V292Z" fill="white"/>
<path d="M1593 292H1597V296H1593V292Z" fill="white"/>
<path d="M1617 292H1621V296H1617V292Z" fill="white"/>
<path d="M1641 292H1645V296H1641V292Z" fill="white"/>
<path d="M1497 316H1501V320H1497V316Z" fill="white"/>
<path d="M1521 316H1525V320H1521V316Z" fill="white"/>
<path d="M1545 316H1549V320H1545V316Z" fill="white"/>
<path d="M1569 316H1573V320H1569V316Z" fill="white"/>
<path d="M1593 316H1597V320H1593V316Z" fill="white"/>
<path d="M1617 316H1621V320H1617V316Z" fill="white"/>
<path d="M1641 316H1645V320H1641V316Z" fill="white"/>
<path d="M1497 340H1501V344H1497V340Z" fill="white"/>
<path d="M1521 340H1525V344H1521V340Z" fill="white"/>
<path d="M1545 340H1549V344H1545V340Z" fill="white"/>
<path d="M1569 340H1573V344H1569V340Z" fill="white"/>
<path d="M1593 340H1597V344H1593V340Z" fill="white"/>
<path d="M1617 340H1621V344H1617V340Z" fill="white"/>
<path d="M1641 340H1645V344H1641V340Z" fill="white"/>
</g>
<g opacity="0.2">
<path d="M398 606H402V610H398V606Z" fill="white"/>
<path d="M422 606H426V610H422V606Z" fill="white"/>
<path d="M446 606H450V610H446V606Z" fill="white"/>
<path d="M470 606H474V610H470V606Z" fill="white"/>
<path d="M494 606H498V610H494V606Z" fill="white"/>
<path d="M518 606H522V610H518V606Z" fill="white"/>
<path d="M542 606H546V610H542V606Z" fill="white"/>
<path d="M398 630H402V634H398V630Z" fill="white"/>
<path d="M422 630H426V634H422V630Z" fill="white"/>
<path d="M446 630H450V634H446V630Z" fill="white"/>
<path d="M470 630H474V634H470V630Z" fill="white"/>
<path d="M494 630H498V634H494V630Z" fill="white"/>
<path d="M518 630H522V634H518V630Z" fill="white"/>
<path d="M542 630H546V634H542V630Z" fill="white"/>
<path d="M398 654H402V658H398V654Z" fill="white"/>
<path d="M422 654H426V658H422V654Z" fill="white"/>
<path d="M446 654H450V658H446V654Z" fill="white"/>
<path d="M470 654H474V658H470V654Z" fill="white"/>
<path d="M494 654H498V658H494V654Z" fill="white"/>
<path d="M518 654H522V658H518V654Z" fill="white"/>
<path d="M542 654H546V658H542V654Z" fill="white"/>
<path d="M398 678H402V682H398V678Z" fill="white"/>
<path d="M422 678H426V682H422V678Z" fill="white"/>
<path d="M446 678H450V682H446V678Z" fill="white"/>
<path d="M470 678H474V682H470V678Z" fill="white"/>
<path d="M494 678H498V682H494V678Z" fill="white"/>
<path d="M518 678H522V682H518V678Z" fill="white"/>
<path d="M542 678H546V682H542V678Z" fill="white"/>
<path d="M398 702H402V706H398V702Z" fill="white"/>
<path d="M422 702H426V706H422V702Z" fill="white"/>
<path d="M446 702H450V706H446V702Z" fill="white"/>
<path d="M470 702H474V706H470V702Z" fill="white"/>
<path d="M494 702H498V706H494V702Z" fill="white"/>
<path d="M518 702H522V706H518V702Z" fill="white"/>
<path d="M542 702H546V706H542V702Z" fill="white"/>
<path d="M398 726H402V730H398V726Z" fill="white"/>
<path d="M422 726H426V730H422V726Z" fill="white"/>
<path d="M446 726H450V730H446V726Z" fill="white"/>
<path d="M470 726H474V730H470V726Z" fill="white"/>
<path d="M494 726H498V730H494V726Z" fill="white"/>
<path d="M518 726H522V730H518V726Z" fill="white"/>
<path d="M542 726H546V730H542V726Z" fill="white"/>
<path d="M398 750H402V754H398V750Z" fill="white"/>
<path d="M422 750H426V754H422V750Z" fill="white"/>
<path d="M446 750H450V754H446V750Z" fill="white"/>
<path d="M470 750H474V754H470V750Z" fill="white"/>
<path d="M494 750H498V754H494V750Z" fill="white"/>
<path d="M518 750H522V754H518V750Z" fill="white"/>
<path d="M542 750H546V754H542V750Z" fill="white"/>
</g>
<g opacity="0.2">
<path d="M733 306H737V310H733V306Z" fill="white"/>
<path d="M757 306H761V310H757V306Z" fill="white"/>
<path d="M781 306H785V310H781V306Z" fill="white"/>
<path d="M805 306H809V310H805V306Z" fill="white"/>
<path d="M829 306H833V310H829V306Z" fill="white"/>
<path d="M853 306H857V310H853V306Z" fill="white"/>
<path d="M877 306H881V310H877V306Z" fill="white"/>
<path d="M733 330H737V334H733V330Z" fill="white"/>
<path d="M757 330H761V334H757V330Z" fill="white"/>
<path d="M781 330H785V334H781V330Z" fill="white"/>
<path d="M805 330H809V334H805V330Z" fill="white"/>
<path d="M829 330H833V334H829V330Z" fill="white"/>
<path d="M853 330H857V334H853V330Z" fill="white"/>
<path d="M877 330H881V334H877V330Z" fill="white"/>
<path d="M733 354H737V358H733V354Z" fill="white"/>
<path d="M757 354H761V358H757V354Z" fill="white"/>
<path d="M781 354H785V358H781V354Z" fill="white"/>
<path d="M805 354H809V358H805V354Z" fill="white"/>
<path d="M829 354H833V358H829V354Z" fill="white"/>
<path d="M853 354H857V358H853V354Z" fill="white"/>
<path d="M877 354H881V358H877V354Z" fill="white"/>
<path d="M733 378H737V382H733V378Z" fill="white"/>
<path d="M757 378H761V382H757V378Z" fill="white"/>
<path d="M781 378H785V382H781V378Z" fill="white"/>
<path d="M805 378H809V382H805V378Z" fill="white"/>
<path d="M829 378H833V382H829V378Z" fill="white"/>
<path d="M853 378H857V382H853V378Z" fill="white"/>
<path d="M877 378H881V382H877V378Z" fill="white"/>
<path d="M733 402H737V406H733V402Z" fill="white"/>
<path d="M757 402H761V406H757V402Z" fill="white"/>
<path d="M781 402H785V406H781V402Z" fill="white"/>
<path d="M805 402H809V406H805V402Z" fill="white"/>
<path d="M829 402H833V406H829V402Z" fill="white"/>
<path d="M853 402H857V406H853V402Z" fill="white"/>
<path d="M877 402H881V406H877V402Z" fill="white"/>
<path d="M733 426H737V430H733V426Z" fill="white"/>
<path d="M757 426H761V430H757V426Z" fill="white"/>
<path d="M781 426H785V430H781V426Z" fill="white"/>
<path d="M805 426H809V430H805V426Z" fill="white"/>
<path d="M829 426H833V430H829V426Z" fill="white"/>
<path d="M853 426H857V430H853V426Z" fill="white"/>
<path d="M877 426H881V430H877V426Z" fill="white"/>
<path d="M733 450H737V454H733V450Z" fill="white"/>
<path d="M757 450H761V454H757V450Z" fill="white"/>
<path d="M781 450H785V454H781V450Z" fill="white"/>
<path d="M805 450H809V454H805V450Z" fill="white"/>
<path d="M829 450H833V454H829V450Z" fill="white"/>
<path d="M853 450H857V454H853V450Z" fill="white"/>
<path d="M877 450H881V454H877V450Z" fill="white"/>
</g>
<g opacity="0.2">
<path d="M1282 936H1286V940H1282V936Z" fill="white"/>
<path d="M1306 936H1310V940H1306V936Z" fill="white"/>
<path d="M1330 936H1334V940H1330V936Z" fill="white"/>
<path d="M1354 936H1358V940H1354V936Z" fill="white"/>
<path d="M1378 936H1382V940H1378V936Z" fill="white"/>
<path d="M1402 936H1406V940H1402V936Z" fill="white"/>
<path d="M1426 936H1430V940H1426V936Z" fill="white"/>
<path d="M1282 960H1286V964H1282V960Z" fill="white"/>
<path d="M1306 960H1310V964H1306V960Z" fill="white"/>
<path d="M1330 960H1334V964H1330V960Z" fill="white"/>
<path d="M1354 960H1358V964H1354V960Z" fill="white"/>
<path d="M1378 960H1382V964H1378V960Z" fill="white"/>
<path d="M1402 960H1406V964H1402V960Z" fill="white"/>
<path d="M1426 960H1430V964H1426V960Z" fill="white"/>
<path d="M1282 984H1286V988H1282V984Z" fill="white"/>
<path d="M1306 984H1310V988H1306V984Z" fill="white"/>
<path d="M1330 984H1334V988H1330V984Z" fill="white"/>
<path d="M1354 984H1358V988H1354V984Z" fill="white"/>
<path d="M1378 984H1382V988H1378V984Z" fill="white"/>
<path d="M1402 984H1406V988H1402V984Z" fill="white"/>
<path d="M1426 984H1430V988H1426V984Z" fill="white"/>
<path d="M1282 1008H1286V1012H1282V1008Z" fill="white"/>
<path d="M1306 1008H1310V1012H1306V1008Z" fill="white"/>
<path d="M1330 1008H1334V1012H1330V1008Z" fill="white"/>
<path d="M1354 1008H1358V1012H1354V1008Z" fill="white"/>
<path d="M1378 1008H1382V1012H1378V1008Z" fill="white"/>
<path d="M1402 1008H1406V1012H1402V1008Z" fill="white"/>
<path d="M1426 1008H1430V1012H1426V1008Z" fill="white"/>
<path d="M1282 1032H1286V1036H1282V1032Z" fill="white"/>
<path d="M1306 1032H1310V1036H1306V1032Z" fill="white"/>
<path d="M1330 1032H1334V1036H1330V1032Z" fill="white"/>
<path d="M1354 1032H1358V1036H1354V1032Z" fill="white"/>
<path d="M1378 1032H1382V1036H1378V1032Z" fill="white"/>
<path d="M1402 1032H1406V1036H1402V1032Z" fill="white"/>
<path d="M1426 1032H1430V1036H1426V1032Z" fill="white"/>
<path d="M1282 1056H1286V1060H1282V1056Z" fill="white"/>
<path d="M1306 1056H1310V1060H1306V1056Z" fill="white"/>
<path d="M1330 1056H1334V1060H1330V1056Z" fill="white"/>
<path d="M1354 1056H1358V1060H1354V1056Z" fill="white"/>
<path d="M1378 1056H1382V1060H1378V1056Z" fill="white"/>
<path d="M1402 1056H1406V1060H1402V1056Z" fill="white"/>
<path d="M1426 1056H1430V1060H1426V1056Z" fill="white"/>
<path d="M1282 1080H1286V1084H1282V1080Z" fill="white"/>
<path d="M1306 1080H1310V1084H1306V1080Z" fill="white"/>
<path d="M1330 1080H1334V1084H1330V1080Z" fill="white"/>
<path d="M1354 1080H1358V1084H1354V1080Z" fill="white"/>
<path d="M1378 1080H1382V1084H1378V1080Z" fill="white"/>
<path d="M1402 1080H1406V1084H1402V1080Z" fill="white"/>
<path d="M1426 1080H1430V1084H1426V1080Z" fill="white"/>
</g>
<path opacity="0.2" d="M378 331C400.091 331 418 348.909 418 371H378V331Z" fill="white"/>
<g clip-path="url(#clip2_131_5377)">
<path d="M418 371H458V411C435.909 411 418 393.091 418 371Z" fill="#00E1F0"/>
</g>
<rect x="314" y="307" width="16" height="16" fill="#FFA733"/>
<rect x="314" y="339" width="16" height="16" fill="#FFA733"/>
<rect x="346" y="307" width="16" height="16" fill="#FFA733"/>
<rect x="346" y="339" width="16" height="16" fill="#FFA733"/>
<rect x="1223" y="289" width="16" height="16" fill="#FFA733"/>
<rect opacity="0.2" x="1353" y="700" width="16" height="16" fill="white"/>
<rect opacity="0.2" x="173" y="189" width="16" height="16" fill="white"/>
<rect opacity="0.2" x="123" y="813" width="16" height="16" fill="white"/>
<rect x="919" y="419" width="16" height="16" fill="#FFA733"/>
<path d="M1765 843H1725C1725 820.909 1742.91 803 1765 803V843Z" fill="#00E1F0"/>
</g>
<defs>
<clipPath id="clip0_131_5377">
<rect x="5" y="15" width="1840" height="966" rx="20" fill="white"/>
</clipPath>
<clipPath id="clip1_131_5377">
<rect width="80" height="80" fill="white" transform="translate(1278 410)"/>
</clipPath>
<clipPath id="clip2_131_5377">
<rect width="80" height="80" fill="white" transform="translate(378 371)"/>
</clipPath>
</defs>
</svg>
