<svg width="30" height="30" viewBox="0 0 30 30" fill="none" xmlns="http://www.w3.org/2000/svg">
<path d="M20.7462 19.4398L19.8199 20.3661C19.4093 20.7767 18.8647 21 18.2957 21C18.2064 21 18.1171 20.9943 18.0263 20.9827C16.0944 20.7435 13.9665 19.5867 12.1889 17.8089C10.4111 16.0325 9.25561 13.9048 9.01661 11.9728C8.93451 11.3072 9.15921 10.6546 9.63463 10.1792L10.561 9.25285C10.8981 8.91572 11.447 8.91572 11.7826 9.25285L13.8197 11.2899C13.9825 11.4527 14.0732 11.6703 14.0732 11.9007C14.0732 12.1312 13.9839 12.3487 13.8197 12.5115L12.6989 13.6323L16.3667 17.3L17.4874 16.1792C17.8246 15.8421 18.372 15.8421 18.7091 16.1792L20.7462 18.2163C21.0833 18.5535 21.0833 19.1024 20.7462 19.4396L20.7462 19.4398Z" fill="#1AA581"/>
<rect x="0.5" y="0.5" width="29" height="29" rx="14.5" stroke="#1AA581"/>
</svg>
