<svg width="30" height="30" viewBox="0 0 30 30" fill="none" xmlns="http://www.w3.org/2000/svg">
<path d="M15.2778 15.4752L20.3944 11.2928C20.1405 11.1028 19.8316 11 19.5141 11H10.4809C10.1636 11 9.85454 11.1028 9.60059 11.2928L14.7201 15.4752C14.7988 15.5395 14.8972 15.5745 14.9989 15.5745C15.1005 15.5745 15.199 15.5395 15.2777 15.4752H15.2778Z" fill="#1AA581"/>
<path d="M15.838 16.1552C15.6019 16.3481 15.306 16.4535 15.0008 16.4535C14.6956 16.4535 14.3998 16.3481 14.1637 16.1552L9.08219 12.002C9.02815 12.1563 9.00031 12.3185 9 12.4819V18.5229C9.00041 18.9148 9.15671 19.2905 9.43449 19.5676C9.71237 19.8447 10.089 20.0005 10.482 20.001H19.518C19.9109 20.0006 20.2876 19.8447 20.5655 19.5676C20.8433 19.2905 20.9996 18.9148 21 18.5229V12.4819C20.9997 12.3185 20.9719 12.1563 20.9178 12.002L15.838 16.1552Z" fill="#1AA581"/>
<rect x="0.5" y="0.5" width="29" height="29" rx="14.5" stroke="#1AA581"/>
</svg>
