<svg width="1840" height="294" viewBox="0 0 1840 294" fill="none" xmlns="http://www.w3.org/2000/svg">
<rect width="1840" height="294" rx="20" fill="#F7F7FA"/>
<g clip-path="url(#clip0_131_6116)">
<path d="M1590 162H1554V186H1590V162Z" fill="white"/>
<path d="M1590 165H1554V167.999H1590V165Z" fill="#FF0000"/>
<path d="M1590 171H1554V174H1590V171Z" fill="#FF0000"/>
<path d="M1590 176.999H1554V179.999H1590V176.999Z" fill="#FF0000"/>
<path d="M1590 183H1554V185.999H1590V183Z" fill="#FF0000"/>
<path d="M1572 162H1554V174.923H1572V162Z" fill="#0000CC"/>
<path d="M1561.02 167.294L1560.73 168.186H1559.79L1560.55 168.737L1560.26 169.628L1561.02 169.078L1561.78 169.628L1561.49 168.737L1562.25 168.186H1561.31L1561.02 167.294Z" fill="white"/>
<path d="M1561.31 171.404L1561.02 170.512L1560.73 171.404H1559.79L1560.55 171.955L1560.26 172.847L1561.02 172.296L1561.78 172.847L1561.49 171.955L1562.25 171.404H1561.31Z" fill="white"/>
<path d="M1557.35 171.404L1557.06 170.512L1556.77 171.404H1555.83L1556.59 171.955L1556.3 172.847L1557.06 172.296L1557.81 172.847L1557.52 171.955L1558.28 171.404H1557.35Z" fill="white"/>
<path d="M1557.06 167.294L1556.77 168.186H1555.83L1556.59 168.737L1556.3 169.628L1557.06 169.078L1557.81 169.628L1557.52 168.737L1558.28 168.186H1557.35L1557.06 167.294Z" fill="white"/>
<path d="M1561.02 164.076L1560.73 164.968H1559.79L1560.55 165.519L1560.26 166.41L1561.02 165.859L1561.78 166.41L1561.49 165.519L1562.25 164.968H1561.31L1561.02 164.076Z" fill="white"/>
<path d="M1557.06 164.075L1556.77 164.967H1555.83L1556.59 165.518L1556.3 166.41L1557.06 165.859L1557.81 166.41L1557.52 165.518L1558.28 164.967H1557.35L1557.06 164.075Z" fill="white"/>
<path d="M1564.98 167.294L1564.69 168.186H1563.75L1564.51 168.737L1564.22 169.628L1564.98 169.078L1565.74 169.628L1565.45 168.737L1566.21 168.186H1565.27L1564.98 167.294Z" fill="white"/>
<path d="M1565.27 171.404L1564.98 170.512L1564.69 171.404H1563.75L1564.51 171.955L1564.22 172.847L1564.98 172.296L1565.74 172.847L1565.45 171.955L1566.21 171.404H1565.27Z" fill="white"/>
<path d="M1569.23 171.404L1568.94 170.512L1568.65 171.404H1567.72L1568.48 171.955L1568.19 172.847L1568.94 172.296L1569.7 172.847L1569.41 171.955L1570.17 171.404H1569.23Z" fill="white"/>
<path d="M1568.94 167.294L1568.65 168.186H1567.72L1568.48 168.737L1568.19 169.628L1568.94 169.078L1569.7 169.628L1569.41 168.737L1570.17 168.186H1569.23L1568.94 167.294Z" fill="white"/>
<path d="M1564.98 164.076L1564.69 164.968H1563.75L1564.51 165.519L1564.22 166.41L1564.98 165.859L1565.74 166.41L1565.45 165.519L1566.21 164.968H1565.27L1564.98 164.076Z" fill="white"/>
<path d="M1568.94 164.075L1568.65 164.967H1567.72L1568.48 165.518L1568.19 166.41L1568.94 165.859L1569.7 166.41L1569.41 165.518L1570.17 164.967H1569.23L1568.94 164.075Z" fill="white"/>
</g>
<path fill-rule="evenodd" clip-rule="evenodd" d="M1604 51H1640V75H1604V51Z" fill="white"/>
<path fill-rule="evenodd" clip-rule="evenodd" d="M1604 51H1640V63H1604V51Z" fill="#FF0000"/>
<path fill-rule="evenodd" clip-rule="evenodd" d="M1612.3 53.0113C1610.64 53.3924 1609.41 54.6232 1609.06 56.2964C1608.58 58.5698 1610.06 60.7959 1612.34 61.2708C1610.04 61.927 1607.66 60.6042 1607.01 58.3242C1606.36 56.0442 1607.68 53.6662 1609.96 53.0161C1610.76 52.7878 1611.5 52.7864 1612.3 53.0113H1612.3Z" fill="white"/>
<path fill-rule="evenodd" clip-rule="evenodd" d="M1611.65 56.4977L1611.89 57.2537L1611.25 56.7922L1610.6 57.258L1610.84 56.5008L1610.2 56.0331L1610.99 56.0263L1611.24 55.271L1611.49 56.0244L1612.29 56.0257L1611.65 56.4977ZM1612.53 59.1007L1612.77 59.8566L1612.13 59.3951L1611.48 59.861L1611.72 59.1038L1611.08 58.6361L1611.87 58.6292L1612.12 57.8739L1612.37 58.6274L1613.17 58.6286L1612.53 59.1007ZM1615.45 59.0819L1615.69 59.8379L1615.05 59.3764L1614.4 59.8422L1614.64 59.0851L1614 58.6173L1614.79 58.6105L1615.04 57.8552L1615.29 58.6087L1616.09 58.6099L1615.45 59.0819ZM1616.32 56.5001L1616.56 57.256L1615.92 56.7945L1615.27 57.2603L1615.51 56.5032L1614.87 56.0355L1615.67 56.0286L1615.91 55.2733L1616.16 56.0268L1616.96 56.028L1616.32 56.5001ZM1614.01 54.7873L1614.25 55.5432L1613.6 55.0817L1612.96 55.5475L1613.2 54.7904L1612.56 54.3226L1613.35 54.3158L1613.6 53.5605L1613.85 54.3139L1614.65 54.3152L1614.01 54.7873Z" fill="white"/>
<g clip-path="url(#clip1_131_6116)">
<path d="M1498 219H1462V243H1498V219Z" fill="#0000CC"/>
<path d="M1477.71 231C1477.73 230.978 1477.75 230.957 1477.76 230.935C1477.75 230.957 1477.73 230.978 1477.71 231H1477.71Z" fill="#F0F0F0"/>
<path d="M1475.3 233.948L1476.07 235.559L1477.81 235.157L1477.04 236.763L1478.43 237.873L1476.69 238.266L1476.7 240.051L1475.3 238.934L1473.91 240.051L1473.92 238.266L1472.17 237.873L1473.57 236.763L1472.79 235.157L1474.53 235.559L1475.3 233.948Z" fill="white"/>
<path d="M1489.22 235.949L1489.58 236.717L1490.41 236.526L1490.04 237.292L1490.71 237.821L1489.88 238.009L1489.88 238.86L1489.22 238.327L1488.55 238.86L1488.55 238.009L1487.72 237.821L1488.39 237.292L1488.02 236.526L1488.85 236.717L1489.22 235.949Z" fill="white"/>
<path d="M1485.8 227.797L1486.16 228.566L1486.99 228.374L1486.62 229.14L1487.29 229.67L1486.46 229.857L1486.46 230.709L1485.8 230.176L1485.13 230.709L1485.13 229.857L1484.3 229.67L1484.97 229.14L1484.6 228.374L1485.43 228.566L1485.8 227.797Z" fill="white"/>
<path d="M1489.22 223.139L1489.58 223.908L1490.41 223.716L1490.04 224.482L1490.71 225.011L1489.88 225.199L1489.88 226.05L1489.22 225.517L1488.55 226.05L1488.55 225.199L1487.72 225.011L1488.39 224.482L1488.02 223.716L1488.85 223.908L1489.22 223.139Z" fill="white"/>
<path d="M1492.2 226.633L1492.57 227.401L1493.4 227.209L1493.03 227.976L1493.7 228.505L1492.86 228.692L1492.87 229.544L1492.2 229.011L1491.54 229.544L1491.54 228.692L1490.71 228.505L1491.38 227.976L1491 227.209L1491.83 227.401L1492.2 226.633Z" fill="white"/>
<path d="M1490.07 230.709L1490.36 231.598H1491.29L1490.53 232.148L1490.82 233.038L1490.07 232.488L1489.31 233.038L1489.6 232.148L1488.84 231.598H1489.78L1490.07 230.709Z" fill="white"/>
<path d="M1480 219V221.148L1476.82 222.913H1480V227.087H1475.84L1480 229.395V231H1478.12L1472.96 228.129V231H1469.04V227.585L1462.9 231H1462V228.852L1465.18 227.087H1462V222.913H1466.16L1462 220.604V219H1463.88L1469.04 221.871V219H1472.96V222.415L1479.1 219H1480Z" fill="white"/>
<path d="M1472.12 219H1469.87V223.875H1462V226.125H1469.87V231H1472.12V226.125H1480V223.875H1472.12V219Z" fill="#FF0000"/>
<path d="M1472.96 227.087L1480 231V229.893L1474.95 227.087H1472.96Z" fill="#0052B4"/>
<path d="M1472.96 227.087L1480 231V229.893L1474.95 227.087H1472.96Z" fill="#F0F0F0"/>
<path d="M1472.96 227.087L1480 231V229.893L1474.95 227.087H1472.96Z" fill="#FF0000"/>
<path d="M1467.05 227.087L1462 229.893V231L1469.04 227.087H1467.05Z" fill="#FF0000"/>
<path d="M1469.04 222.913L1462 219V220.106L1467.05 222.913H1469.04Z" fill="#0052B4"/>
<path d="M1469.04 222.913L1462 219V220.106L1467.05 222.913H1469.04Z" fill="#F0F0F0"/>
<path d="M1469.04 222.913L1462 219V220.106L1467.05 222.913H1469.04Z" fill="#FF0000"/>
<path d="M1474.95 222.913L1480 220.106V219L1472.96 222.913H1474.95Z" fill="#FF0000"/>
</g>
<path d="M1461 95H1425V119H1461V95Z" fill="#F0F0F0"/>
<path d="M1461 95H1425V103H1461V95Z" fill="#FF0000"/>
<path d="M1461 111H1425V119H1461V111Z" fill="#0000CC"/>
<path d="M1312.49 162H1329.47V186H1312.49V162Z" fill="white"/>
<path d="M1303 162H1312.49V186H1303V162ZM1329.47 162H1338.96V186H1329.47L1329.47 162ZM1315.03 173.597L1314.37 173.823L1317.44 176.516C1317.67 177.208 1317.36 177.412 1317.16 177.775L1320.49 177.352L1320.4 180.704L1321.09 180.684L1320.94 177.36L1324.28 177.755C1324.07 177.319 1323.89 177.088 1324.08 176.391L1327.14 173.84L1326.61 173.646C1326.17 173.307 1326.8 172.015 1326.89 171.2C1326.89 171.2 1325.1 171.815 1324.98 171.493L1324.53 170.617L1322.9 172.407C1322.72 172.449 1322.65 172.378 1322.6 172.228L1323.36 168.489L1322.16 169.159C1322.07 169.202 1321.97 169.165 1321.9 169.049L1320.75 166.749L1319.57 169.137C1319.48 169.223 1319.39 169.233 1319.32 169.175L1318.19 168.538L1318.87 172.248C1318.81 172.395 1318.68 172.437 1318.53 172.357L1316.97 170.588C1316.77 170.915 1316.63 171.448 1316.36 171.567C1316.09 171.679 1315.19 171.341 1314.59 171.209C1314.79 171.954 1315.44 173.192 1315.03 173.597Z" fill="#FF0000"/>
<g clip-path="url(#clip2_131_6116)">
<path fill-rule="evenodd" clip-rule="evenodd" d="M1237 71H1249V95H1237V71Z" fill="#0000CC"/>
<path fill-rule="evenodd" clip-rule="evenodd" d="M1249 71H1261V95H1249V71Z" fill="#FFCC00"/>
<path fill-rule="evenodd" clip-rule="evenodd" d="M1261 71H1273V95H1261V71Z" fill="#FF0000"/>
</g>
<g clip-path="url(#clip3_131_6116)">
<path fill-rule="evenodd" clip-rule="evenodd" d="M568 71H604V95H568V71Z" fill="white"/>
<path fill-rule="evenodd" clip-rule="evenodd" d="M568 71H580V95H568V71Z" fill="#009933"/>
<path fill-rule="evenodd" clip-rule="evenodd" d="M592 71H604V95H592V71Z" fill="#FF0000"/>
</g>
<path fill-rule="evenodd" clip-rule="evenodd" d="M502 162H538V186H502V162Z" fill="white"/>
<path fill-rule="evenodd" clip-rule="evenodd" d="M502 162H514V186H502V162Z" fill="#0000CC"/>
<path fill-rule="evenodd" clip-rule="evenodd" d="M526 162H538V186H526V162Z" fill="#FF0000"/>
<g clip-path="url(#clip4_131_6116)">
<path fill-rule="evenodd" clip-rule="evenodd" d="M379 243H343V219H379V243Z" fill="white"/>
<path fill-rule="evenodd" clip-rule="evenodd" d="M379.22 224.416H342.843V221.256H379.22V224.416ZM379.22 240.887H342.843V237.727H379.22V240.887ZM355.519 227.967L360.695 236.969L365.982 228.004L355.519 227.967Z" fill="#0000CC"/>
<path fill-rule="evenodd" clip-rule="evenodd" d="M359.717 233.937L360.701 235.606L361.707 233.944L359.717 233.937V233.937Z" fill="white"/>
<path fill-rule="evenodd" clip-rule="evenodd" d="M355.5 234.067L360.676 225.065L365.963 234.03L355.5 234.067V234.067Z" fill="#0000CC"/>
<path fill-rule="evenodd" clip-rule="evenodd" d="M359.717 228.006L360.702 226.337L361.708 227.999L359.717 228.006V228.006ZM357.66 231.742L356.643 233.433L358.565 233.427L357.66 231.742V231.742ZM356.66 228.617L358.598 228.63L357.665 230.335L356.66 228.617H356.66ZM363.768 231.761L364.747 233.434L362.787 233.408L363.768 231.761ZM364.729 228.617L362.792 228.63L363.724 230.335L364.729 228.617V228.617ZM359.359 228.615L358.024 231.036L359.378 233.4L361.856 233.457L363.362 231.036L361.97 228.596L359.359 228.615L359.359 228.615Z" fill="white"/>
</g>
<g clip-path="url(#clip5_131_6116)">
<path fill-rule="evenodd" clip-rule="evenodd" d="M379 114.118V99.8955L389.586 107.003L379 114.118V114.118Z" fill="black"/>
<path fill-rule="evenodd" clip-rule="evenodd" d="M386.223 119.006L398.107 111.007H414.999V119.006H386.223Z" fill="#0000CC"/>
<path fill-rule="evenodd" clip-rule="evenodd" d="M385.459 95.0035L414.999 95.0041V103.004H398.106C398.106 103.004 385.617 94.9244 385.459 95.0035Z" fill="#FF0000"/>
<path fill-rule="evenodd" clip-rule="evenodd" d="M379 98.0042V99.8945L389.586 107.002L379 114.117V116.007L392.333 107.002L379 98.0042V98.0042Z" fill="#FFCC00"/>
<path fill-rule="evenodd" clip-rule="evenodd" d="M379 98.004V95.0034H383.448L397.572 104.56H414.998V109.447H397.572L383.448 119.002H379V116.007L392.333 107.002L379 98.004V98.004Z" fill="#009933"/>
<path fill-rule="evenodd" clip-rule="evenodd" d="M383.448 95.0034H386.223L398.107 103.004H414.999V104.56H397.573L383.449 95.0034H383.448ZM383.448 119.006H386.223L398.107 111.007H414.999V109.45H397.573L383.449 119.006L383.448 119.006Z" fill="white"/>
</g>
<g clip-path="url(#clip6_131_6116)">
<path d="M285.999 162H250V186H285.999V162Z" fill="#F0F0F0"/>
<path d="M270.25 162H265.75V171.75H250V176.25H265.75V185.999H270.25V176.25H285.999V171.75H270.25V162Z" fill="#FF0000"/>
<path d="M277.688 178.174L285.999 182.791V178.174H277.688Z" fill="#0000CC"/>
<path d="M271.913 178.174L285.999 185.999V183.787L275.896 178.174H271.913Z" fill="#0052B4"/>
<path d="M282.247 185.999L271.913 180.258V185.999H282.247Z" fill="#0000CC"/>
<path d="M271.913 178.174L285.999 185.999V183.787L275.896 178.174H271.913Z" fill="#F0F0F0"/>
<path d="M271.913 178.174L285.999 185.999V183.787L275.896 178.174H271.913Z" fill="#FF0000"/>
<path d="M256.352 178.173L250 181.702V178.173H256.352Z" fill="#0000CC"/>
<path d="M264.087 179.168V185.999H251.792L264.087 179.168Z" fill="#0000CC"/>
<path d="M260.103 178.174L250 183.787V185.999L264.087 178.174H260.103Z" fill="#FF0000"/>
<path d="M258.312 169.826L250 165.208V169.826H258.312Z" fill="#0000CC"/>
<path d="M264.087 169.826L250 162V164.213L260.103 169.826H264.087Z" fill="#0052B4"/>
<path d="M253.752 162L264.087 167.742V162H253.752Z" fill="#0000CC"/>
<path d="M264.087 169.826L250 162V164.213L260.103 169.826H264.087Z" fill="#F0F0F0"/>
<path d="M264.087 169.826L250 162V164.213L260.103 169.826H264.087Z" fill="#FF0000"/>
<path d="M279.647 169.826L285.999 166.297V169.826H279.647Z" fill="#0000CC"/>
<path d="M271.913 168.831V162H284.207L271.913 168.831Z" fill="#0000CC"/>
<path d="M275.896 169.826L285.999 164.213V162L271.913 169.826H275.896Z" fill="#FF0000"/>
</g>
<g clip-path="url(#clip7_131_6116)">
<path d="M200 67H236V75.0001H200V67Z" fill="#FFCE00"/>
<path d="M200 51H236V59H200V51Z" fill="black"/>
<path d="M200 59H236V67H200V59Z" fill="#FF0000"/>
</g>
<defs>
<clipPath id="clip0_131_6116">
<rect x="1554" y="162" width="35.9996" height="24" rx="4" fill="white"/>
</clipPath>
<clipPath id="clip1_131_6116">
<rect x="1462" y="219" width="35.9993" height="24" rx="4" fill="white"/>
</clipPath>
<clipPath id="clip2_131_6116">
<rect x="1237" y="71" width="36" height="24" rx="4" fill="white"/>
</clipPath>
<clipPath id="clip3_131_6116">
<rect x="568" y="71" width="36" height="24" rx="4" fill="white"/>
</clipPath>
<clipPath id="clip4_131_6116">
<rect x="343" y="219" width="36" height="24" rx="4" fill="white"/>
</clipPath>
<clipPath id="clip5_131_6116">
<rect x="379" y="95" width="36" height="24" rx="4" fill="white"/>
</clipPath>
<clipPath id="clip6_131_6116">
<rect x="250" y="162" width="35.9993" height="24" rx="4" fill="white"/>
</clipPath>
<clipPath id="clip7_131_6116">
<rect x="200" y="51" width="36" height="24" rx="4" fill="white"/>
</clipPath>
</defs>
</svg>
