<svg width="1440" height="192" viewBox="0 0 1440 192" fill="none" xmlns="http://www.w3.org/2000/svg">
<g clip-path="url(#clip0_131_6119)">
<path d="M1390 111H1354V135H1390V111Z" fill="white"/>
<path d="M1390 114H1354V116.999H1390V114Z" fill="#FF0000"/>
<path d="M1390 120H1354V123H1390V120Z" fill="#FF0000"/>
<path d="M1390 125.999H1354V128.999H1390V125.999Z" fill="#FF0000"/>
<path d="M1390 132H1354V134.999H1390V132Z" fill="#FF0000"/>
<path d="M1372 111H1354V123.923H1372V111Z" fill="#0000CC"/>
<path d="M1361.02 116.294L1360.73 117.186H1359.79L1360.55 117.737L1360.26 118.628L1361.02 118.078L1361.78 118.628L1361.49 117.737L1362.25 117.186H1361.31L1361.02 116.294Z" fill="white"/>
<path d="M1361.31 120.404L1361.02 119.512L1360.73 120.404H1359.79L1360.55 120.955L1360.26 121.847L1361.02 121.296L1361.78 121.847L1361.49 120.955L1362.25 120.404H1361.31Z" fill="white"/>
<path d="M1357.35 120.404L1357.06 119.512L1356.77 120.404H1355.83L1356.59 120.955L1356.3 121.847L1357.06 121.296L1357.81 121.847L1357.52 120.955L1358.28 120.404H1357.35Z" fill="white"/>
<path d="M1357.06 116.294L1356.77 117.186H1355.83L1356.59 117.737L1356.3 118.628L1357.06 118.078L1357.81 118.628L1357.52 117.737L1358.28 117.186H1357.35L1357.06 116.294Z" fill="white"/>
<path d="M1361.02 113.076L1360.73 113.968H1359.79L1360.55 114.519L1360.26 115.41L1361.02 114.859L1361.78 115.41L1361.49 114.519L1362.25 113.968H1361.31L1361.02 113.076Z" fill="white"/>
<path d="M1357.06 113.075L1356.77 113.967H1355.83L1356.59 114.518L1356.3 115.41L1357.06 114.859L1357.81 115.41L1357.52 114.518L1358.28 113.967H1357.35L1357.06 113.075Z" fill="white"/>
<path d="M1364.98 116.294L1364.69 117.186H1363.75L1364.51 117.737L1364.22 118.628L1364.98 118.078L1365.74 118.628L1365.45 117.737L1366.21 117.186H1365.27L1364.98 116.294Z" fill="white"/>
<path d="M1365.27 120.404L1364.98 119.512L1364.69 120.404H1363.75L1364.51 120.955L1364.22 121.847L1364.98 121.296L1365.74 121.847L1365.45 120.955L1366.21 120.404H1365.27Z" fill="white"/>
<path d="M1369.23 120.404L1368.94 119.512L1368.65 120.404H1367.72L1368.48 120.955L1368.19 121.847L1368.94 121.296L1369.7 121.847L1369.41 120.955L1370.17 120.404H1369.23Z" fill="white"/>
<path d="M1368.94 116.294L1368.65 117.186H1367.72L1368.48 117.737L1368.19 118.628L1368.94 118.078L1369.7 118.628L1369.41 117.737L1370.17 117.186H1369.23L1368.94 116.294Z" fill="white"/>
<path d="M1364.98 113.076L1364.69 113.968H1363.75L1364.51 114.519L1364.22 115.41L1364.98 114.859L1365.74 115.41L1365.45 114.519L1366.21 113.968H1365.27L1364.98 113.076Z" fill="white"/>
<path d="M1368.94 113.075L1368.65 113.967H1367.72L1368.48 114.518L1368.19 115.41L1368.94 114.859L1369.7 115.41L1369.41 114.518L1370.17 113.967H1369.23L1368.94 113.075Z" fill="white"/>
</g>
<path fill-rule="evenodd" clip-rule="evenodd" d="M1404 0H1440V24H1404V0Z" fill="white"/>
<path fill-rule="evenodd" clip-rule="evenodd" d="M1404 0H1440V12H1404V0Z" fill="#FF0000"/>
<path fill-rule="evenodd" clip-rule="evenodd" d="M1412.3 2.01133C1410.64 2.39243 1409.41 3.62318 1409.06 5.29638C1408.58 7.56983 1410.06 9.79588 1412.34 10.2708C1410.04 10.927 1407.66 9.60418 1407.01 7.32418C1406.36 5.04418 1407.68 2.66618 1409.96 2.01608C1410.76 1.78783 1411.5 1.78638 1412.3 2.01133H1412.3Z" fill="white"/>
<path fill-rule="evenodd" clip-rule="evenodd" d="M1411.65 5.49775L1411.89 6.2537L1411.25 5.7922L1410.6 6.25805L1410.84 5.50085L1410.2 5.03315L1410.99 5.0263L1411.24 4.271L1411.49 5.02445L1412.29 5.0257L1411.65 5.49775ZM1412.53 8.1007L1412.77 8.85665L1412.13 8.39515L1411.48 8.861L1411.72 8.10385L1411.08 7.6361L1411.87 7.62925L1412.12 6.87395L1412.37 7.62745L1413.17 7.62865L1412.53 8.1007ZM1415.45 8.08195L1415.69 8.8379L1415.05 8.3764L1414.4 8.84225L1414.64 8.0851L1414 7.61735L1414.79 7.6105L1415.04 6.8552L1415.29 7.6087L1416.09 7.6099L1415.45 8.08195ZM1416.32 5.5001L1416.56 6.256L1415.92 5.7945L1415.27 6.26035L1415.51 5.5032L1414.87 5.0355L1415.67 5.02865L1415.91 4.27335L1416.16 5.0268L1416.96 5.02805L1416.32 5.5001ZM1414.01 3.7873L1414.25 4.5432L1413.6 4.0817L1412.96 4.54755L1413.2 3.7904L1412.56 3.32265L1413.35 3.31585L1413.6 2.56055L1413.85 3.31395L1414.65 3.3152L1414.01 3.7873Z" fill="white"/>
<g clip-path="url(#clip1_131_6119)">
<path d="M1298 168H1262V192H1298V168Z" fill="#0000CC"/>
<path d="M1277.71 180C1277.73 179.978 1277.75 179.957 1277.76 179.935C1277.75 179.957 1277.73 179.978 1277.71 180H1277.71Z" fill="#F0F0F0"/>
<path d="M1275.3 182.948L1276.07 184.559L1277.81 184.157L1277.04 185.763L1278.43 186.873L1276.69 187.266L1276.7 189.051L1275.3 187.934L1273.91 189.051L1273.92 187.266L1272.17 186.873L1273.57 185.763L1272.79 184.157L1274.53 184.559L1275.3 182.948Z" fill="white"/>
<path d="M1289.22 184.949L1289.58 185.717L1290.41 185.526L1290.04 186.292L1290.71 186.821L1289.88 187.009L1289.88 187.86L1289.22 187.327L1288.55 187.86L1288.55 187.009L1287.72 186.821L1288.39 186.292L1288.02 185.526L1288.85 185.717L1289.22 184.949Z" fill="white"/>
<path d="M1285.8 176.797L1286.16 177.566L1286.99 177.374L1286.62 178.14L1287.29 178.67L1286.46 178.857L1286.46 179.709L1285.8 179.176L1285.13 179.709L1285.13 178.857L1284.3 178.67L1284.97 178.14L1284.6 177.374L1285.43 177.566L1285.8 176.797Z" fill="white"/>
<path d="M1289.22 172.139L1289.58 172.908L1290.41 172.716L1290.04 173.482L1290.71 174.011L1289.88 174.199L1289.88 175.05L1289.22 174.517L1288.55 175.05L1288.55 174.199L1287.72 174.011L1288.39 173.482L1288.02 172.716L1288.85 172.908L1289.22 172.139Z" fill="white"/>
<path d="M1292.2 175.633L1292.57 176.401L1293.4 176.209L1293.03 176.976L1293.7 177.505L1292.86 177.692L1292.87 178.544L1292.2 178.011L1291.54 178.544L1291.54 177.692L1290.71 177.505L1291.38 176.976L1291 176.209L1291.83 176.401L1292.2 175.633Z" fill="white"/>
<path d="M1290.07 179.709L1290.36 180.598H1291.29L1290.53 181.148L1290.82 182.038L1290.07 181.488L1289.31 182.038L1289.6 181.148L1288.84 180.598H1289.78L1290.07 179.709Z" fill="white"/>
<path d="M1280 168V170.148L1276.82 171.913H1280V176.087H1275.84L1280 178.395V180H1278.12L1272.96 177.129V180H1269.04V176.585L1262.9 180H1262V177.852L1265.18 176.087H1262V171.913H1266.16L1262 169.604V168H1263.88L1269.04 170.871V168H1272.96V171.415L1279.1 168H1280Z" fill="white"/>
<path d="M1272.12 168H1269.87V172.875H1262V175.125H1269.87V180H1272.12V175.125H1280V172.875H1272.12V168Z" fill="#FF0000"/>
<path d="M1272.96 176.087L1280 180V178.893L1274.95 176.087H1272.96Z" fill="#0052B4"/>
<path d="M1272.96 176.087L1280 180V178.893L1274.95 176.087H1272.96Z" fill="#F0F0F0"/>
<path d="M1272.96 176.087L1280 180V178.893L1274.95 176.087H1272.96Z" fill="#FF0000"/>
<path d="M1267.05 176.087L1262 178.893V180L1269.04 176.087H1267.05Z" fill="#FF0000"/>
<path d="M1269.04 171.913L1262 168V169.106L1267.05 171.913H1269.04Z" fill="#0052B4"/>
<path d="M1269.04 171.913L1262 168V169.106L1267.05 171.913H1269.04Z" fill="#F0F0F0"/>
<path d="M1269.04 171.913L1262 168V169.106L1267.05 171.913H1269.04Z" fill="#FF0000"/>
<path d="M1274.95 171.913L1280 169.106V168L1272.96 171.913H1274.95Z" fill="#FF0000"/>
</g>
<path d="M1261 44H1225V68H1261V44Z" fill="#F0F0F0"/>
<path d="M1261 44H1225V52H1261V44Z" fill="#FF0000"/>
<path d="M1261 60H1225V68H1261V60Z" fill="#0000CC"/>
<path d="M1112.49 111H1129.47V135H1112.49V111Z" fill="white"/>
<path d="M1103 111H1112.49V135H1103V111ZM1129.47 111H1138.96V135H1129.47L1129.47 111ZM1115.03 122.597L1114.37 122.823L1117.44 125.516C1117.67 126.208 1117.36 126.412 1117.16 126.775L1120.49 126.352L1120.4 129.704L1121.09 129.684L1120.94 126.36L1124.28 126.755C1124.07 126.319 1123.89 126.088 1124.08 125.391L1127.14 122.84L1126.61 122.646C1126.17 122.307 1126.8 121.015 1126.89 120.2C1126.89 120.2 1125.1 120.815 1124.98 120.493L1124.53 119.617L1122.9 121.407C1122.72 121.449 1122.65 121.378 1122.6 121.228L1123.36 117.489L1122.16 118.159C1122.07 118.202 1121.97 118.165 1121.9 118.049L1120.75 115.749L1119.57 118.137C1119.48 118.223 1119.39 118.233 1119.32 118.175L1118.19 117.538L1118.87 121.248C1118.81 121.395 1118.68 121.437 1118.53 121.357L1116.97 119.588C1116.77 119.915 1116.63 120.448 1116.36 120.567C1116.09 120.679 1115.19 120.341 1114.59 120.209C1114.79 120.954 1115.44 122.192 1115.03 122.597Z" fill="#FF0000"/>
<g clip-path="url(#clip2_131_6119)">
<path fill-rule="evenodd" clip-rule="evenodd" d="M1037 20H1049V44H1037V20Z" fill="#0000CC"/>
<path fill-rule="evenodd" clip-rule="evenodd" d="M1049 20H1061V44H1049V20Z" fill="#FFCC00"/>
<path fill-rule="evenodd" clip-rule="evenodd" d="M1061 20H1073V44H1061V20Z" fill="#FF0000"/>
</g>
<g clip-path="url(#clip3_131_6119)">
<path fill-rule="evenodd" clip-rule="evenodd" d="M368 20H404V44H368V20Z" fill="white"/>
<path fill-rule="evenodd" clip-rule="evenodd" d="M368 20H380V44H368V20Z" fill="#009933"/>
<path fill-rule="evenodd" clip-rule="evenodd" d="M392 20H404V44H392V20Z" fill="#FF0000"/>
</g>
<path fill-rule="evenodd" clip-rule="evenodd" d="M302 111H338V135H302V111Z" fill="white"/>
<path fill-rule="evenodd" clip-rule="evenodd" d="M302 111H314V135H302V111Z" fill="#0000CC"/>
<path fill-rule="evenodd" clip-rule="evenodd" d="M326 111H338V135H326V111Z" fill="#FF0000"/>
<g clip-path="url(#clip4_131_6119)">
<path fill-rule="evenodd" clip-rule="evenodd" d="M179 192H143V168H179V192Z" fill="white"/>
<path fill-rule="evenodd" clip-rule="evenodd" d="M179.22 173.416H142.843V170.256H179.22V173.416ZM179.22 189.887H142.843V186.727H179.22V189.887ZM155.519 176.967L160.695 185.969L165.982 177.004L155.519 176.967Z" fill="#0000CC"/>
<path fill-rule="evenodd" clip-rule="evenodd" d="M159.717 182.937L160.701 184.606L161.707 182.944L159.717 182.937V182.937Z" fill="white"/>
<path fill-rule="evenodd" clip-rule="evenodd" d="M155.5 183.067L160.676 174.065L165.963 183.03L155.5 183.067V183.067Z" fill="#0000CC"/>
<path fill-rule="evenodd" clip-rule="evenodd" d="M159.717 177.006L160.702 175.337L161.708 176.999L159.717 177.006V177.006ZM157.66 180.742L156.643 182.433L158.565 182.427L157.66 180.742V180.742ZM156.66 177.617L158.598 177.63L157.665 179.335L156.66 177.617H156.66ZM163.768 180.761L164.747 182.434L162.787 182.408L163.768 180.761ZM164.729 177.617L162.792 177.63L163.724 179.335L164.729 177.617V177.617ZM159.359 177.615L158.024 180.036L159.378 182.4L161.856 182.457L163.362 180.036L161.97 177.596L159.359 177.615L159.359 177.615Z" fill="white"/>
</g>
<g clip-path="url(#clip5_131_6119)">
<path fill-rule="evenodd" clip-rule="evenodd" d="M179 63.1175V48.8955L189.586 56.0029L179 63.118V63.1175Z" fill="black"/>
<path fill-rule="evenodd" clip-rule="evenodd" d="M186.223 68.0058L198.107 60.0071H214.999V68.0058H186.223Z" fill="#0000CC"/>
<path fill-rule="evenodd" clip-rule="evenodd" d="M185.459 44.0035L214.999 44.0041V52.0042H198.106C198.106 52.0042 185.617 43.9244 185.459 44.0035Z" fill="#FF0000"/>
<path fill-rule="evenodd" clip-rule="evenodd" d="M179 47.0042V48.8945L189.586 56.0019L179 63.117V65.0073L192.333 56.0019L179 47.0042V47.0042Z" fill="#FFCC00"/>
<path fill-rule="evenodd" clip-rule="evenodd" d="M179 47.004V44.0034H183.448L197.572 53.5601H214.998V58.4472H197.572L183.448 68.0025H179V65.0071L192.333 56.0017L179 47.004V47.004Z" fill="#009933"/>
<path fill-rule="evenodd" clip-rule="evenodd" d="M183.448 44.0034H186.223L198.107 52.0035H214.999V53.5601H197.573L183.449 44.0034H183.448ZM183.448 68.0057H186.223L198.107 60.0069H214.999V58.4504H197.573L183.449 68.0056L183.448 68.0057Z" fill="white"/>
</g>
<g clip-path="url(#clip6_131_6119)">
<path d="M85.9993 111H50V135H85.9993V111Z" fill="#F0F0F0"/>
<path d="M70.2496 111H65.7497V120.75H50V125.25H65.7497V134.999H70.2496V125.25H85.9993V120.75H70.2496V111Z" fill="#FF0000"/>
<path d="M77.6875 127.174L85.9993 131.791V127.174H77.6875Z" fill="#0000CC"/>
<path d="M71.9126 127.174L85.9993 134.999V132.787L75.8961 127.174H71.9126Z" fill="#0052B4"/>
<path d="M82.2471 134.999L71.9126 129.258V134.999H82.2471Z" fill="#0000CC"/>
<path d="M71.9126 127.174L85.9993 134.999V132.787L75.8961 127.174H71.9126Z" fill="#F0F0F0"/>
<path d="M71.9126 127.174L85.9993 134.999V132.787L75.8961 127.174H71.9126Z" fill="#FF0000"/>
<path d="M56.352 127.173L50 130.702V127.173H56.352Z" fill="#0000CC"/>
<path d="M64.0869 128.168V134.999H51.7925L64.0869 128.168Z" fill="#0000CC"/>
<path d="M60.1032 127.174L50 132.787V134.999L64.0867 127.174H60.1032Z" fill="#FF0000"/>
<path d="M58.3118 118.826L50 114.208V118.826H58.3118Z" fill="#0000CC"/>
<path d="M64.0867 118.826L50 111V113.213L60.1032 118.826H64.0867Z" fill="#0052B4"/>
<path d="M53.7524 111L64.0869 116.742V111H53.7524Z" fill="#0000CC"/>
<path d="M64.0867 118.826L50 111V113.213L60.1032 118.826H64.0867Z" fill="#F0F0F0"/>
<path d="M64.0867 118.826L50 111V113.213L60.1032 118.826H64.0867Z" fill="#FF0000"/>
<path d="M79.6475 118.826L85.9994 115.297V118.826H79.6475Z" fill="#0000CC"/>
<path d="M71.9126 117.831V111H84.207L71.9126 117.831Z" fill="#0000CC"/>
<path d="M75.8961 118.826L85.9993 113.213V111L71.9126 118.826H75.8961Z" fill="#FF0000"/>
</g>
<g clip-path="url(#clip7_131_6119)">
<path d="M0 16H36V24.0001H0V16Z" fill="#FFCE00"/>
<path d="M0 0H36V8H0V0Z" fill="black"/>
<path d="M0 8H36V16H0V8Z" fill="#FF0000"/>
</g>
<defs>
<clipPath id="clip0_131_6119">
<rect x="1354" y="111" width="35.9996" height="24" rx="4" fill="white"/>
</clipPath>
<clipPath id="clip1_131_6119">
<rect x="1262" y="168" width="35.9993" height="24" rx="4" fill="white"/>
</clipPath>
<clipPath id="clip2_131_6119">
<rect x="1037" y="20" width="36" height="24" rx="4" fill="white"/>
</clipPath>
<clipPath id="clip3_131_6119">
<rect x="368" y="20" width="36" height="24" rx="4" fill="white"/>
</clipPath>
<clipPath id="clip4_131_6119">
<rect x="143" y="168" width="36" height="24" rx="4" fill="white"/>
</clipPath>
<clipPath id="clip5_131_6119">
<rect x="179" y="44" width="36" height="24" rx="4" fill="white"/>
</clipPath>
<clipPath id="clip6_131_6119">
<rect x="50" y="111" width="35.9993" height="24" rx="4" fill="white"/>
</clipPath>
<clipPath id="clip7_131_6119">
<rect width="36" height="24" rx="4" fill="white"/>
</clipPath>
</defs>
</svg>
