<svg width="1840" height="966" viewBox="0 0 1840 966" fill="none" xmlns="http://www.w3.org/2000/svg">
<g clip-path="url(#clip0_131_6342)">
<g clip-path="url(#clip1_131_6342)">
<path opacity="0.2" d="M1273 395H1313V395C1313 417.091 1295.09 435 1273 435V435V395Z" fill="white"/>
</g>
<g opacity="0.2">
<path d="M1492 181H1496V185H1492V181Z" fill="white"/>
<path d="M1516 181H1520V185H1516V181Z" fill="white"/>
<path d="M1540 181H1544V185H1540V181Z" fill="white"/>
<path d="M1564 181H1568V185H1564V181Z" fill="white"/>
<path d="M1588 181H1592V185H1588V181Z" fill="white"/>
<path d="M1612 181H1616V185H1612V181Z" fill="white"/>
<path d="M1636 181H1640V185H1636V181Z" fill="white"/>
<path d="M1492 205H1496V209H1492V205Z" fill="white"/>
<path d="M1516 205H1520V209H1516V205Z" fill="white"/>
<path d="M1540 205H1544V209H1540V205Z" fill="white"/>
<path d="M1564 205H1568V209H1564V205Z" fill="white"/>
<path d="M1588 205H1592V209H1588V205Z" fill="white"/>
<path d="M1612 205H1616V209H1612V205Z" fill="white"/>
<path d="M1636 205H1640V209H1636V205Z" fill="white"/>
<path d="M1492 229H1496V233H1492V229Z" fill="white"/>
<path d="M1516 229H1520V233H1516V229Z" fill="white"/>
<path d="M1540 229H1544V233H1540V229Z" fill="white"/>
<path d="M1564 229H1568V233H1564V229Z" fill="white"/>
<path d="M1588 229H1592V233H1588V229Z" fill="white"/>
<path d="M1612 229H1616V233H1612V229Z" fill="white"/>
<path d="M1636 229H1640V233H1636V229Z" fill="white"/>
<path d="M1492 253H1496V257H1492V253Z" fill="white"/>
<path d="M1516 253H1520V257H1516V253Z" fill="white"/>
<path d="M1540 253H1544V257H1540V253Z" fill="white"/>
<path d="M1564 253H1568V257H1564V253Z" fill="white"/>
<path d="M1588 253H1592V257H1588V253Z" fill="white"/>
<path d="M1612 253H1616V257H1612V253Z" fill="white"/>
<path d="M1636 253H1640V257H1636V253Z" fill="white"/>
<path d="M1492 277H1496V281H1492V277Z" fill="white"/>
<path d="M1516 277H1520V281H1516V277Z" fill="white"/>
<path d="M1540 277H1544V281H1540V277Z" fill="white"/>
<path d="M1564 277H1568V281H1564V277Z" fill="white"/>
<path d="M1588 277H1592V281H1588V277Z" fill="white"/>
<path d="M1612 277H1616V281H1612V277Z" fill="white"/>
<path d="M1636 277H1640V281H1636V277Z" fill="white"/>
<path d="M1492 301H1496V305H1492V301Z" fill="white"/>
<path d="M1516 301H1520V305H1516V301Z" fill="white"/>
<path d="M1540 301H1544V305H1540V301Z" fill="white"/>
<path d="M1564 301H1568V305H1564V301Z" fill="white"/>
<path d="M1588 301H1592V305H1588V301Z" fill="white"/>
<path d="M1612 301H1616V305H1612V301Z" fill="white"/>
<path d="M1636 301H1640V305H1636V301Z" fill="white"/>
<path d="M1492 325H1496V329H1492V325Z" fill="white"/>
<path d="M1516 325H1520V329H1516V325Z" fill="white"/>
<path d="M1540 325H1544V329H1540V325Z" fill="white"/>
<path d="M1564 325H1568V329H1564V325Z" fill="white"/>
<path d="M1588 325H1592V329H1588V325Z" fill="white"/>
<path d="M1612 325H1616V329H1612V325Z" fill="white"/>
<path d="M1636 325H1640V329H1636V325Z" fill="white"/>
</g>
<g opacity="0.2">
<path d="M393 591H397V595H393V591Z" fill="white"/>
<path d="M417 591H421V595H417V591Z" fill="white"/>
<path d="M441 591H445V595H441V591Z" fill="white"/>
<path d="M465 591H469V595H465V591Z" fill="white"/>
<path d="M489 591H493V595H489V591Z" fill="white"/>
<path d="M513 591H517V595H513V591Z" fill="white"/>
<path d="M537 591H541V595H537V591Z" fill="white"/>
<path d="M393 615H397V619H393V615Z" fill="white"/>
<path d="M417 615H421V619H417V615Z" fill="white"/>
<path d="M441 615H445V619H441V615Z" fill="white"/>
<path d="M465 615H469V619H465V615Z" fill="white"/>
<path d="M489 615H493V619H489V615Z" fill="white"/>
<path d="M513 615H517V619H513V615Z" fill="white"/>
<path d="M537 615H541V619H537V615Z" fill="white"/>
<path d="M393 639H397V643H393V639Z" fill="white"/>
<path d="M417 639H421V643H417V639Z" fill="white"/>
<path d="M441 639H445V643H441V639Z" fill="white"/>
<path d="M465 639H469V643H465V639Z" fill="white"/>
<path d="M489 639H493V643H489V639Z" fill="white"/>
<path d="M513 639H517V643H513V639Z" fill="white"/>
<path d="M537 639H541V643H537V639Z" fill="white"/>
<path d="M393 663H397V667H393V663Z" fill="white"/>
<path d="M417 663H421V667H417V663Z" fill="white"/>
<path d="M441 663H445V667H441V663Z" fill="white"/>
<path d="M465 663H469V667H465V663Z" fill="white"/>
<path d="M489 663H493V667H489V663Z" fill="white"/>
<path d="M513 663H517V667H513V663Z" fill="white"/>
<path d="M537 663H541V667H537V663Z" fill="white"/>
<path d="M393 687H397V691H393V687Z" fill="white"/>
<path d="M417 687H421V691H417V687Z" fill="white"/>
<path d="M441 687H445V691H441V687Z" fill="white"/>
<path d="M465 687H469V691H465V687Z" fill="white"/>
<path d="M489 687H493V691H489V687Z" fill="white"/>
<path d="M513 687H517V691H513V687Z" fill="white"/>
<path d="M537 687H541V691H537V687Z" fill="white"/>
<path d="M393 711H397V715H393V711Z" fill="white"/>
<path d="M417 711H421V715H417V711Z" fill="white"/>
<path d="M441 711H445V715H441V711Z" fill="white"/>
<path d="M465 711H469V715H465V711Z" fill="white"/>
<path d="M489 711H493V715H489V711Z" fill="white"/>
<path d="M513 711H517V715H513V711Z" fill="white"/>
<path d="M537 711H541V715H537V711Z" fill="white"/>
<path d="M393 735H397V739H393V735Z" fill="white"/>
<path d="M417 735H421V739H417V735Z" fill="white"/>
<path d="M441 735H445V739H441V735Z" fill="white"/>
<path d="M465 735H469V739H465V735Z" fill="white"/>
<path d="M489 735H493V739H489V735Z" fill="white"/>
<path d="M513 735H517V739H513V735Z" fill="white"/>
<path d="M537 735H541V739H537V735Z" fill="white"/>
</g>
<g opacity="0.2">
<path d="M728 291H732V295H728V291Z" fill="white"/>
<path d="M752 291H756V295H752V291Z" fill="white"/>
<path d="M776 291H780V295H776V291Z" fill="white"/>
<path d="M800 291H804V295H800V291Z" fill="white"/>
<path d="M824 291H828V295H824V291Z" fill="white"/>
<path d="M848 291H852V295H848V291Z" fill="white"/>
<path d="M872 291H876V295H872V291Z" fill="white"/>
<path d="M728 315H732V319H728V315Z" fill="white"/>
<path d="M752 315H756V319H752V315Z" fill="white"/>
<path d="M776 315H780V319H776V315Z" fill="white"/>
<path d="M800 315H804V319H800V315Z" fill="white"/>
<path d="M824 315H828V319H824V315Z" fill="white"/>
<path d="M848 315H852V319H848V315Z" fill="white"/>
<path d="M872 315H876V319H872V315Z" fill="white"/>
<path d="M728 339H732V343H728V339Z" fill="white"/>
<path d="M752 339H756V343H752V339Z" fill="white"/>
<path d="M776 339H780V343H776V339Z" fill="white"/>
<path d="M800 339H804V343H800V339Z" fill="white"/>
<path d="M824 339H828V343H824V339Z" fill="white"/>
<path d="M848 339H852V343H848V339Z" fill="white"/>
<path d="M872 339H876V343H872V339Z" fill="white"/>
<path d="M728 363H732V367H728V363Z" fill="white"/>
<path d="M752 363H756V367H752V363Z" fill="white"/>
<path d="M776 363H780V367H776V363Z" fill="white"/>
<path d="M800 363H804V367H800V363Z" fill="white"/>
<path d="M824 363H828V367H824V363Z" fill="white"/>
<path d="M848 363H852V367H848V363Z" fill="white"/>
<path d="M872 363H876V367H872V363Z" fill="white"/>
<path d="M728 387H732V391H728V387Z" fill="white"/>
<path d="M752 387H756V391H752V387Z" fill="white"/>
<path d="M776 387H780V391H776V387Z" fill="white"/>
<path d="M800 387H804V391H800V387Z" fill="white"/>
<path d="M824 387H828V391H824V387Z" fill="white"/>
<path d="M848 387H852V391H848V387Z" fill="white"/>
<path d="M872 387H876V391H872V387Z" fill="white"/>
<path d="M728 411H732V415H728V411Z" fill="white"/>
<path d="M752 411H756V415H752V411Z" fill="white"/>
<path d="M776 411H780V415H776V411Z" fill="white"/>
<path d="M800 411H804V415H800V411Z" fill="white"/>
<path d="M824 411H828V415H824V411Z" fill="white"/>
<path d="M848 411H852V415H848V411Z" fill="white"/>
<path d="M872 411H876V415H872V411Z" fill="white"/>
<path d="M728 435H732V439H728V435Z" fill="white"/>
<path d="M752 435H756V439H752V435Z" fill="white"/>
<path d="M776 435H780V439H776V435Z" fill="white"/>
<path d="M800 435H804V439H800V435Z" fill="white"/>
<path d="M824 435H828V439H824V435Z" fill="white"/>
<path d="M848 435H852V439H848V435Z" fill="white"/>
<path d="M872 435H876V439H872V435Z" fill="white"/>
</g>
<g opacity="0.2">
<path d="M1277 921H1281V925H1277V921Z" fill="white"/>
<path d="M1301 921H1305V925H1301V921Z" fill="white"/>
<path d="M1325 921H1329V925H1325V921Z" fill="white"/>
<path d="M1349 921H1353V925H1349V921Z" fill="white"/>
<path d="M1373 921H1377V925H1373V921Z" fill="white"/>
<path d="M1397 921H1401V925H1397V921Z" fill="white"/>
<path d="M1421 921H1425V925H1421V921Z" fill="white"/>
<path d="M1277 945H1281V949H1277V945Z" fill="white"/>
<path d="M1301 945H1305V949H1301V945Z" fill="white"/>
<path d="M1325 945H1329V949H1325V945Z" fill="white"/>
<path d="M1349 945H1353V949H1349V945Z" fill="white"/>
<path d="M1373 945H1377V949H1373V945Z" fill="white"/>
<path d="M1397 945H1401V949H1397V945Z" fill="white"/>
<path d="M1421 945H1425V949H1421V945Z" fill="white"/>
<path d="M1277 969H1281V973H1277V969Z" fill="white"/>
<path d="M1301 969H1305V973H1301V969Z" fill="white"/>
<path d="M1325 969H1329V973H1325V969Z" fill="white"/>
<path d="M1349 969H1353V973H1349V969Z" fill="white"/>
<path d="M1373 969H1377V973H1373V969Z" fill="white"/>
<path d="M1397 969H1401V973H1397V969Z" fill="white"/>
<path d="M1421 969H1425V973H1421V969Z" fill="white"/>
<path d="M1277 993H1281V997H1277V993Z" fill="white"/>
<path d="M1301 993H1305V997H1301V993Z" fill="white"/>
<path d="M1325 993H1329V997H1325V993Z" fill="white"/>
<path d="M1349 993H1353V997H1349V993Z" fill="white"/>
<path d="M1373 993H1377V997H1373V993Z" fill="white"/>
<path d="M1397 993H1401V997H1397V993Z" fill="white"/>
<path d="M1421 993H1425V997H1421V993Z" fill="white"/>
<path d="M1277 1017H1281V1021H1277V1017Z" fill="white"/>
<path d="M1301 1017H1305V1021H1301V1017Z" fill="white"/>
<path d="M1325 1017H1329V1021H1325V1017Z" fill="white"/>
<path d="M1349 1017H1353V1021H1349V1017Z" fill="white"/>
<path d="M1373 1017H1377V1021H1373V1017Z" fill="white"/>
<path d="M1397 1017H1401V1021H1397V1017Z" fill="white"/>
<path d="M1421 1017H1425V1021H1421V1017Z" fill="white"/>
<path d="M1277 1041H1281V1045H1277V1041Z" fill="white"/>
<path d="M1301 1041H1305V1045H1301V1041Z" fill="white"/>
<path d="M1325 1041H1329V1045H1325V1041Z" fill="white"/>
<path d="M1349 1041H1353V1045H1349V1041Z" fill="white"/>
<path d="M1373 1041H1377V1045H1373V1041Z" fill="white"/>
<path d="M1397 1041H1401V1045H1397V1041Z" fill="white"/>
<path d="M1421 1041H1425V1045H1421V1041Z" fill="white"/>
<path d="M1277 1065H1281V1069H1277V1065Z" fill="white"/>
<path d="M1301 1065H1305V1069H1301V1065Z" fill="white"/>
<path d="M1325 1065H1329V1069H1325V1065Z" fill="white"/>
<path d="M1349 1065H1353V1069H1349V1065Z" fill="white"/>
<path d="M1373 1065H1377V1069H1373V1065Z" fill="white"/>
<path d="M1397 1065H1401V1069H1397V1065Z" fill="white"/>
<path d="M1421 1065H1425V1069H1421V1065Z" fill="white"/>
</g>
<path opacity="0.2" d="M373 316V316C395.091 316 413 333.909 413 356V356H373V316Z" fill="white"/>
<g clip-path="url(#clip2_131_6342)">
<path d="M413 356H453V396V396C430.909 396 413 378.091 413 356V356Z" fill="#00E1F0"/>
</g>
<rect x="309" y="292" width="16" height="16" fill="#FFA733"/>
<rect x="309" y="324" width="16" height="16" fill="#FFA733"/>
<rect x="341" y="292" width="16" height="16" fill="#FFA733"/>
<rect x="341" y="324" width="16" height="16" fill="#FFA733"/>
<rect x="1218" y="274" width="16" height="16" fill="#FFA733"/>
<rect opacity="0.2" x="1348" y="685" width="16" height="16" fill="white"/>
<rect opacity="0.2" x="168" y="174" width="16" height="16" fill="white"/>
<rect opacity="0.2" x="118" y="798" width="16" height="16" fill="white"/>
<rect x="914" y="404" width="16" height="16" fill="#FFA733"/>
<path d="M1760 828H1720V828C1720 805.909 1737.91 788 1760 788V788V828Z" fill="#00E1F0"/>
</g>
<defs>
<clipPath id="clip0_131_6342">
<rect width="1840" height="966" rx="20" fill="white"/>
</clipPath>
<clipPath id="clip1_131_6342">
<rect width="80" height="80" fill="white" transform="translate(1273 395)"/>
</clipPath>
<clipPath id="clip2_131_6342">
<rect width="80" height="80" fill="white" transform="translate(373 356)"/>
</clipPath>
</defs>
</svg>
