<svg width="582" height="400" viewBox="0 0 582 400" fill="none" xmlns="http://www.w3.org/2000/svg">
<path d="M386.392 294.919C428.701 294.919 463 237.383 463 166.41C463 95.4364 428.701 37.9011 386.392 37.9011C344.082 37.9011 309.783 95.4364 309.783 166.41C309.783 237.383 344.082 294.919 386.392 294.919Z" fill="#0C0E26"/>
<path d="M196.608 374C238.918 374 273.217 316.465 273.217 245.491C273.217 174.518 238.918 116.982 196.608 116.982C154.299 116.982 120 174.518 120 245.491C120 316.465 154.299 374 196.608 374Z" fill="#0C0E26"/>
<path d="M167.258 231.325C163.878 235.708 163.999 256.862 207.455 258.847C228.597 259.813 220.871 235.733 216.25 233.87C211.628 232.006 173.164 223.612 167.258 231.325Z" fill="#2F44CC"/>
<path d="M213.93 184.917C217.207 187.229 231.175 195.183 237.262 206.089C243.349 216.994 250.514 228.607 250.514 228.607L239.305 245.491C239.305 245.491 223.932 228.564 222.63 227.261C221.328 225.958 213.93 184.917 213.93 184.917Z" fill="#F7B59C"/>
<path d="M213.413 191.456C216.689 193.769 230.7 201.913 235.037 213.681C239.374 225.449 235.287 234.016 235.287 234.016L239.331 245.491C239.331 245.491 223.958 228.564 222.656 227.261C221.354 225.958 213.413 191.456 213.413 191.456Z" fill="#D88A6A"/>
<path d="M216.241 191.87C218.75 195.442 234.848 214.345 233.692 218.685C232.537 223.025 226.32 230.453 220.242 231.04C214.163 231.626 195.901 207.434 195.901 207.434L216.241 191.87Z" fill="#1AA581"/>
<path d="M220.034 227.589C217.335 227.045 208.868 218.426 200.746 208.073L215.602 196.711L216.542 197.901C219.819 202.06 229.691 214.57 230.277 218.064C229.2 221.472 224.164 227.097 220.034 227.589Z" fill="#DADFFC"/>
<path d="M220.034 227.589C217.335 227.045 208.868 218.426 200.746 208.073L215.602 196.711L216.542 197.901C218.594 200.489 223.216 206.365 226.535 211.248C228.536 214.173 224.164 227.097 220.034 227.589Z" fill="#A3AEF7"/>
<path d="M168.017 220.393C171.871 227.598 171.647 239.624 172.328 249.46C173.009 259.295 188.572 278.794 205.593 276.887C222.613 274.981 216.396 251.073 216.06 244.335C215.724 237.597 216.922 223.473 216.922 223.473C216.922 223.473 161.292 207.832 168.017 220.393Z" fill="#F7B59C"/>
<path d="M174.699 222.197C178.553 229.392 198.505 253.575 199.178 263.411C199.85 273.246 188.564 278.811 205.584 276.887C222.604 274.963 216.388 251.073 216.051 244.335C215.715 237.597 216.914 223.473 216.914 223.473C216.914 223.473 167.974 209.635 174.699 222.197Z" fill="#D88A6A"/>
<path fill-rule="evenodd" clip-rule="evenodd" d="M252.536 333.316C250.846 319.284 248.945 303.356 247.575 291.451C244.488 264.636 218.526 253.058 218.526 253.058C218.526 253.058 216.285 263.29 208.697 265.344C205.428 266.228 200.465 264.748 195.859 263.374C189.774 261.559 184.313 259.93 184.21 264.187C183.256 303.687 202.508 348.061 218.822 368.515C231.872 361.893 243.451 349.588 252.536 333.316Z" fill="#FCFCFC"/>
<path fill-rule="evenodd" clip-rule="evenodd" d="M225.655 364.441C216.698 370.602 206.89 373.999 196.609 373.999C179.386 373.999 163.49 364.465 150.695 348.371C151.459 344.565 152.409 340.431 153.262 336.717C154.68 330.542 155.832 325.528 155.42 325.115C155.122 324.817 154.546 326.065 153.619 328.077C152.04 331.501 149.439 337.14 145.446 341.14C135.86 326.701 128.456 308.267 124.167 287.398C124.593 286.677 125.049 285.962 125.535 285.256C143.659 258.941 157.774 251.185 163.93 248.373C174.38 243.593 201.316 267.293 200.997 272.237C199.661 292.512 201.687 302.649 213.93 326.082C221.679 340.912 225.335 354.167 225.655 364.441Z" fill="#E35032"/>
<path fill-rule="evenodd" clip-rule="evenodd" d="M161.836 360.029L155.504 325.576C155.506 325.332 155.479 325.175 155.42 325.115L155.504 325.576C155.492 327.008 154.474 331.438 153.262 336.717C152.408 340.431 151.459 344.565 150.695 348.371C154.189 352.766 157.915 356.672 161.836 360.029Z" fill="#C2381D"/>
<path fill-rule="evenodd" clip-rule="evenodd" d="M260.947 315.282C256.507 283.518 247.953 254.251 243.332 251.125C239.856 248.774 231.944 247.726 226.209 246.966C224.304 246.714 222.64 246.494 221.457 246.268C221.457 246.268 216.31 260.322 216.982 265.085C217.244 266.937 219.622 271.267 222.793 277.042C227.774 286.115 234.714 298.754 238.486 310.958C241.549 320.867 241.804 336.262 241.228 349.966C249.021 340.584 255.721 328.809 260.947 315.282Z" fill="#E35032"/>
<path d="M200.885 167.402C211.525 169.913 216.181 181.552 217.974 189.524C219.767 197.496 230.83 212.551 215.663 232.481C200.497 252.411 168.784 225.725 163.904 211.921C159.024 198.117 149.505 155.315 200.885 167.402Z" fill="#F7B59C"/>
<path d="M164.766 184.477C161.059 188.739 168.724 201.162 162.939 207.15C157.153 213.138 146.556 202.31 144.099 191.715C142.263 183.855 144.237 178.308 147.324 176.669C150.411 175.029 155.705 174.736 155.705 174.736C155.705 174.736 154.842 162.252 163.128 158.145C177.786 150.863 186.744 159.594 195.712 155.056C204.679 150.518 206.989 140.588 208.645 141.071C210.3 141.554 227.614 165.763 206.524 177.048C185.434 188.333 171.906 176.28 164.766 184.477Z" fill="#FFA733"/>
<path d="M164.766 184.477C161.059 188.739 168.724 201.162 162.939 207.15C157.153 213.138 146.556 202.31 144.099 191.715C154.325 209.272 160.361 187.212 164.861 179.498C172.388 166.557 198.928 174.676 206.826 165.694C213.456 158.145 206.989 140.614 208.628 141.097C210.266 141.58 227.596 165.789 206.507 177.074C185.417 188.359 171.906 176.28 164.766 184.477Z" fill="#DE8712"/>
<path d="M165.956 206.373C162.352 204.009 157.084 201.62 153.359 207.918C149.634 214.216 162.344 228.072 170.293 221.946C175.406 218.012 169.681 208.815 165.956 206.373Z" fill="#F7B59C"/>
<path d="M178.976 196.616C178.743 198.79 180.252 200.99 183.089 200.067C185.925 199.143 194.125 192.578 194.211 189.869C194.231 189.234 194.086 188.605 193.792 188.042C193.499 187.479 193.065 187.002 192.533 186.655C192.001 186.308 191.389 186.105 190.756 186.063C190.123 186.021 189.49 186.144 188.917 186.418C186.374 187.695 179.252 194.036 178.976 196.616Z" fill="#DE8712"/>
<path d="M209.654 181.724C207.731 183.113 207.602 186.608 209.654 187.643C211.706 188.678 216.008 188.954 217.414 188.135C218.819 187.315 219.06 182.691 217.715 181.724C216.37 180.758 211.232 180.525 209.654 181.724Z" fill="#DE8712"/>
<path d="M195.545 206.252C196.766 205.805 197.153 203.796 196.41 201.764C195.666 199.733 194.074 198.449 192.853 198.896C191.633 199.343 191.246 201.352 191.989 203.384C192.732 205.415 194.324 206.699 195.545 206.252Z" fill="#0C0E26"/>
<path d="M215.535 201.037C216.78 200.664 217.287 198.681 216.667 196.609C216.047 194.537 214.534 193.159 213.289 193.532C212.044 193.906 211.537 195.888 212.157 197.96C212.777 200.033 214.289 201.41 215.535 201.037Z" fill="#0C0E26"/>
<path d="M213.93 219.815C213.93 219.815 211.68 227.58 205.092 226.821C198.505 226.062 194.461 218.53 194.461 218.53L213.93 219.815Z" fill="#FCFCFC"/>
<path d="M209.335 214.018C205.886 214.225 203.084 209.566 196.324 214.018C189.564 218.469 189.676 225.553 190.59 225.898C191.504 226.243 196.005 221.739 198.945 221.049C202.463 220.186 204.506 222.619 209.636 222.533C214.767 222.447 216.25 218.487 219.121 217.71C221.044 217.193 223.277 219.16 223.984 218.573C224.691 217.986 222.535 210.066 217.457 210.152C212.378 210.239 212.232 213.845 209.335 214.018Z" fill="#DE8712"/>
<path d="M205.584 191.87C206.446 200.36 213.042 206.468 214.413 209.816C215.655 212.844 209.524 215.2 205.955 213.155" fill="#F7B59C"/>
<path d="M205.584 191.87C206.627 197.047 209.464 201.361 212.482 205.58C213.913 207.754 216.793 210.894 213.646 213C212.507 213.752 211.178 214.166 209.814 214.193C208.45 214.221 207.106 213.861 205.937 213.155C207.122 213.66 208.426 213.819 209.697 213.612C211.663 213.336 215.146 211.887 213.594 209.488C210.042 204.182 205.446 198.652 205.567 191.87H205.584Z" fill="#CF6C44"/>
<path d="M159.007 214.225C161.809 215.95 163.904 217.529 167.215 217.055C164.732 220.186 159.645 217.719 159.007 214.225Z" fill="#CF6C44"/>
<path d="M167.258 231.325C167.258 231.325 165.292 237.502 174.354 242.644C183.416 247.786 197.876 251.134 199.359 257.751C200.842 264.368 203.351 271.84 200.523 272.478C197.695 273.117 182.778 269.519 172.958 261.746C163.137 253.972 160.248 242.325 167.258 231.325Z" fill="#485EF0"/>
<path d="M217.008 265.059C214.62 264.912 210.973 250.659 215.862 246.078C221.225 241.082 216.224 233.602 216.224 233.602C219.977 237.426 222.357 242.387 222.992 247.708C224.165 257.648 224.044 265.481 217.008 265.059Z" fill="#485EF0"/>
<path d="M260.973 315.453C269.164 317.178 294.901 317.963 301.075 302.33C307.248 286.697 290.659 255.646 271.759 240.021C252.859 224.397 244.168 218.029 244.168 218.029C244.168 218.029 246.798 226.088 240.055 231.031C233.313 235.975 229.459 234.62 229.459 234.62C229.459 234.62 240.443 255.844 244.298 262.979C248.152 270.114 260.973 315.453 260.973 315.453Z" fill="#E35032"/>
<path d="M260.973 315.453C269.164 317.178 294.901 317.963 301.075 302.33C284.52 326.669 256.438 297.913 251.756 278.432C244.53 248.64 236.486 233.352 235.055 233.913C231.459 235.328 229.493 234.638 229.493 234.638C229.493 234.638 240.478 255.862 244.332 262.997C248.186 270.132 260.973 315.453 260.973 315.453Z" fill="#C2381D"/>
<path d="M347.307 113.022C342.815 116.724 329.502 112.41 327.476 116.301C325.45 120.192 331.537 133.556 331.537 133.556C331.537 133.556 301.385 118.743 286.245 116.784C271.104 114.826 233.563 119.51 229.502 114.437C225.441 109.364 225.674 44.864 229.502 38.7211C233.33 32.5782 340.996 32.5782 346.764 37.8584C354.86 45.3558 351.773 109.33 347.307 113.022Z" fill="#485EF0"/>
<path d="M347.307 113.022C342.815 116.724 329.502 112.41 327.476 116.301C325.45 120.192 331.537 133.556 331.537 133.556C331.537 133.556 301.385 118.743 286.245 116.784C271.104 114.826 233.563 119.51 229.502 114.437C225.441 109.364 225.674 44.8641 229.502 38.7212C230.485 37.1251 237.107 34.4074 270.026 34.2607C242.556 35.598 221.742 80.4186 242.927 98.8472C264.111 117.276 347.704 121.279 350.256 100.901C349.851 107.423 348.393 112.134 347.307 113.022Z" fill="#2F44CC"/>
<path d="M250.678 64.2848C252.317 63.1755 253.865 61.9378 255.308 60.5835C256.328 59.5909 256.917 58.2366 256.946 56.8132C256.963 55.8078 256.634 54.8272 256.015 54.0351C255.682 53.6579 255.267 53.3611 254.803 53.1669C254.338 52.9726 253.836 52.886 253.334 52.9135C252.679 52.8497 252.02 52.9873 251.445 53.308C250.871 53.6286 250.407 54.1171 250.118 54.7081C249.717 55.7455 249.516 56.8488 249.523 57.9607H244.487C244.49 56.066 244.911 54.1952 245.72 52.4822C247.108 49.8249 249.566 48.5221 253.118 48.5221C255.549 48.3897 257.934 49.2203 259.757 50.8343C260.596 51.6197 261.254 52.5782 261.686 53.6434C262.117 54.7085 262.313 55.8549 262.258 57.003C262.283 58.8738 261.675 60.6982 260.533 62.1796C259.437 63.4812 258.166 64.6251 256.757 65.5789L254.67 67.037C253.754 67.6651 252.871 68.3389 252.023 69.0559C251.545 69.4641 251.129 69.9409 250.79 70.4708H262.318V75.0693H244.211C244.247 73.2754 244.668 71.5101 245.444 69.8928C246.16 68.0896 247.919 66.2605 250.678 64.2848ZM275.243 75.078V69.401H264.758V64.8456L274.493 48.7809H280.321V65.3287H283.304V69.401H280.321V75.078H275.243ZM275.243 65.3287V53.8971L268.595 65.3287H275.243Z" fill="#FCFCFC"/>
<path d="M289.418 75.078L299.825 47.366H304.136L293.711 75.078H289.418Z" fill="#FCFCFC"/>
<path d="M326.062 57.1498C324.706 59.0559 323.55 61.0971 322.613 63.2409C321.78 65.1965 321.105 67.2162 320.596 69.2802C320.073 71.1793 319.784 73.1349 319.733 75.1039H314.319C314.465 70.3587 316.043 65.4323 318.983 60.3161C320.322 57.9269 321.924 55.6957 323.76 53.6642H310.568L310.646 48.9966H329.304V53.0689C328.127 54.3493 327.043 55.7132 326.062 57.1498Z" fill="#FCFCFC"/>
<path d="M260.378 102.488C260.797 102.82 261.329 102.974 261.861 102.919C262.208 102.936 262.555 102.868 262.87 102.721C262.979 102.675 263.072 102.597 263.135 102.496C263.198 102.396 263.229 102.279 263.223 102.16C263.231 102.051 263.209 101.941 263.159 101.844C263.109 101.747 263.032 101.665 262.939 101.608C262.214 101.33 261.467 101.113 260.706 100.961C259.992 100.822 259.318 100.527 258.731 100.098C258.536 99.9076 258.384 99.6772 258.286 99.4226C258.188 99.168 258.145 98.8952 258.162 98.6228C258.158 98.2537 258.233 97.888 258.382 97.5502C258.53 97.2124 258.749 96.9104 259.024 96.6643C259.73 96.0912 260.626 95.8048 261.533 95.862C262.41 95.825 263.279 96.0342 264.042 96.4659C264.377 96.7101 264.649 97.0292 264.838 97.3978C265.027 97.7664 265.126 98.1742 265.129 98.5883H262.991C262.977 98.3493 262.896 98.119 262.758 97.924C262.604 97.766 262.416 97.645 262.208 97.5703C262.001 97.4956 261.779 97.469 261.559 97.4926C261.218 97.4651 260.875 97.5402 260.576 97.7083C260.487 97.7609 260.411 97.8349 260.357 97.9237C260.303 98.0125 260.272 98.1134 260.266 98.2173C260.258 98.3306 260.285 98.4436 260.344 98.5409C260.403 98.6382 260.49 98.715 260.594 98.7609C261.32 99.0214 262.067 99.2206 262.827 99.3562C263.531 99.4893 264.188 99.8046 264.732 100.271C264.937 100.47 265.098 100.709 265.206 100.973C265.314 101.237 265.367 101.521 265.362 101.806C265.375 102.186 265.3 102.564 265.143 102.909C264.986 103.255 264.751 103.56 264.456 103.799C263.639 104.372 262.649 104.643 261.654 104.567C260.638 104.647 259.627 104.356 258.809 103.748C258.507 103.494 258.267 103.175 258.107 102.815C257.947 102.455 257.872 102.062 257.886 101.668H260.05C260.079 101.967 260.193 102.252 260.378 102.488Z" fill="#FCFCFC"/>
<path d="M269.285 102.082C269.392 102.291 269.56 102.462 269.766 102.573C269.972 102.684 270.207 102.73 270.44 102.704C270.75 102.731 271.06 102.662 271.329 102.508C271.599 102.354 271.815 102.121 271.949 101.841C272.099 101.433 272.167 100.999 272.147 100.564V96.0949H274.337V104.291H272.242V103.135L272.087 103.351C272.017 103.479 271.923 103.593 271.811 103.687C271.528 103.949 271.201 104.16 270.845 104.308C270.486 104.421 270.11 104.476 269.733 104.472C269.24 104.525 268.742 104.428 268.304 104.194C267.866 103.96 267.508 103.6 267.276 103.161C267.009 102.486 266.889 101.763 266.922 101.039V96.0949H269.13V101.039C269.112 101.393 269.164 101.748 269.285 102.082Z" fill="#FCFCFC"/>
<path d="M284.253 100.081C284.338 101.26 283.995 102.43 283.287 103.377C282.986 103.749 282.602 104.046 282.167 104.245C281.732 104.444 281.256 104.539 280.778 104.524C280.197 104.544 279.626 104.368 279.157 104.024C278.881 103.801 278.652 103.526 278.485 103.213V107.527H276.355V96.0949H278.407V97.2942C278.601 96.9646 278.852 96.6724 279.149 96.4314C279.642 96.0529 280.252 95.8577 280.873 95.8792C281.33 95.8751 281.783 95.9675 282.202 96.1504C282.621 96.3332 282.997 96.6024 283.304 96.9404C284.017 97.8236 284.358 98.9504 284.253 100.081ZM280.209 97.7859C279.857 97.772 279.51 97.873 279.221 98.0739C278.932 98.2747 278.716 98.5643 278.605 98.8989C278.452 99.3813 278.38 99.8855 278.39 100.391C278.345 100.761 278.389 101.136 278.52 101.484C278.65 101.833 278.863 102.145 279.14 102.393C279.448 102.624 279.824 102.746 280.209 102.738C280.476 102.751 280.741 102.696 280.98 102.576C281.218 102.457 281.422 102.278 281.571 102.057C281.913 101.503 282.081 100.86 282.054 100.21C282.067 99.607 281.918 99.0113 281.623 98.4848C281.474 98.2498 281.263 98.0604 281.014 97.9371C280.765 97.8139 280.486 97.7616 280.209 97.7859Z" fill="#FCFCFC"/>
<path d="M293.66 100.081C293.745 101.26 293.402 102.43 292.694 103.377C292.393 103.749 292.009 104.046 291.574 104.245C291.139 104.444 290.663 104.539 290.185 104.524C289.604 104.544 289.033 104.368 288.564 104.024C288.286 103.808 288.052 103.542 287.874 103.239V107.552H285.753V96.0949H287.797V97.2942C287.99 96.9646 288.242 96.6724 288.538 96.4314C289.032 96.0529 289.641 95.8577 290.263 95.8792C290.72 95.874 291.173 95.9659 291.592 96.1488C292.011 96.3318 292.387 96.6016 292.694 96.9404C293.413 97.821 293.76 98.9481 293.66 100.081ZM289.616 97.7859C289.264 97.7734 288.918 97.875 288.629 98.0756C288.34 98.2762 288.124 98.565 288.012 98.8989C287.859 99.3813 287.786 99.8855 287.797 100.391C287.753 100.762 287.8 101.137 287.932 101.485C288.064 101.833 288.278 102.145 288.555 102.393C288.861 102.623 289.234 102.744 289.616 102.738C289.883 102.75 290.15 102.694 290.39 102.575C290.629 102.456 290.835 102.277 290.987 102.057C291.322 101.501 291.487 100.859 291.461 100.21C291.473 99.607 291.325 99.0113 291.03 98.4848C290.881 98.2498 290.67 98.0604 290.421 97.9371C290.171 97.8139 289.893 97.7616 289.616 97.7859Z" fill="#FCFCFC"/>
<path d="M298.902 104.585C298.314 104.629 297.724 104.535 297.179 104.31C296.634 104.086 296.149 103.736 295.764 103.29C295.057 102.422 294.684 101.33 294.712 100.21C294.689 99.1107 295.048 98.0372 295.729 97.1735C296.567 96.3442 297.698 95.879 298.876 95.879C300.055 95.879 301.185 96.3442 302.023 97.1735C302.715 98.0486 303.078 99.1384 303.049 100.254C303.081 101.369 302.718 102.46 302.023 103.334C301.633 103.767 301.149 104.105 300.608 104.322C300.067 104.539 299.483 104.629 298.902 104.585ZM300.842 100.21C300.882 99.5339 300.704 98.8623 300.333 98.2951C300.154 98.0886 299.933 97.9229 299.685 97.8094C299.436 97.6959 299.167 97.6372 298.893 97.6372C298.62 97.6372 298.35 97.6959 298.102 97.8094C297.854 97.9229 297.632 98.0886 297.454 98.2951C297.083 98.8623 296.905 99.5339 296.945 100.21C296.903 100.879 297.082 101.543 297.454 102.1C297.628 102.313 297.848 102.485 298.097 102.602C298.346 102.72 298.618 102.781 298.893 102.781C299.169 102.781 299.441 102.72 299.69 102.602C299.939 102.485 300.159 102.313 300.333 102.1C300.705 101.543 300.883 100.879 300.842 100.21Z" fill="#FCFCFC"/>
<path d="M309.369 95.9138V98.1138C309.246 98.1065 309.122 98.1065 308.999 98.1138H308.757C308.417 98.0694 308.07 98.1278 307.763 98.2815C307.456 98.4352 307.202 98.6773 307.033 98.9766C306.834 99.4356 306.748 99.9356 306.783 100.435V104.352H304.619V96.1553H306.662V97.5875C306.89 97.1716 307.181 96.7933 307.524 96.4659C307.967 96.1088 308.526 95.9276 309.093 95.9569H309.206C309.206 95.9569 309.266 95.9138 309.369 95.9138Z" fill="#FCFCFC"/>
<path d="M310.913 93.8777H313.034V96.1726H314.379V97.6997H313.034V102.014C313.008 102.232 313.053 102.453 313.163 102.643C313.408 102.758 313.679 102.803 313.948 102.773C314.019 102.781 314.092 102.781 314.163 102.773H314.379V104.378H313.361C312.998 104.439 312.626 104.424 312.269 104.335C311.911 104.246 311.576 104.084 311.284 103.86C311.148 103.703 311.045 103.521 310.982 103.324C310.918 103.127 310.894 102.919 310.913 102.712V97.6997H309.775V96.1726H310.913V93.8777Z" fill="#FCFCFC"/>
<path d="M239.012 85.2587C269.138 82.6704 325.174 85.5951 336.357 83.5331" stroke="#1AA581" stroke-width="3" stroke-miterlimit="10" stroke-linecap="round"/>
<path d="M394.729 271.452C386.848 271.831 364.172 287.732 363.103 288.871C370.242 292.785 378.242 294.86 386.383 294.91C399.79 294.91 412.387 289.13 423.354 278.975C420.751 277.569 401.782 271.115 394.729 271.452Z" fill="#128A6B"/>
<path d="M320.733 237.976C327.234 241.695 342.142 243.602 352.963 235.155C363.784 226.709 350.704 199.575 337.581 206.33C324.458 213.086 312.611 233.343 320.733 237.976Z" fill="#128A6B"/>
<path d="M431.287 133.004C430.752 135.73 432.106 135.825 430.64 139.293C429.175 142.762 432.917 146.584 437.331 149.577C444.229 154.245 446.876 181.5 418.362 180.758C389.849 180.016 392.659 149.345 397.471 135.765C402.282 122.185 433.417 122.193 431.287 133.004Z" fill="#873A1C"/>
<path d="M404.713 139.673C403.963 144.755 403.291 161.587 403.851 166.85C404.411 172.113 392.246 191.991 381.183 188.626C370.121 185.261 366.689 166.902 367.879 158.429C369.069 149.957 404.713 139.673 404.713 139.673Z" fill="#F7B59C"/>
<path d="M404.713 139.673C403.963 144.755 386.21 177.186 386.753 182.449C387.296 187.712 383.347 193.915 372.294 190.533C361.24 187.151 366.689 166.885 367.879 158.404C369.069 149.923 404.713 139.673 404.713 139.673Z" fill="#D88A6A"/>
<path d="M356.084 182.475C356.084 182.475 345.013 201.861 344.815 212.594C344.617 223.327 351.868 241.617 351.963 249.762C352.058 257.906 343.522 278.88 355.041 280.968C360.068 281.874 374.648 279.406 389.642 274.825C409.007 268.906 429.062 259.468 430.123 249.235C432.011 231.117 415.948 167.678 405.412 172.346C394.875 177.013 390.53 177.419 380.623 183.243C378.967 183.277 370.914 160.707 356.084 182.475Z" fill="#1AA581"/>
<path d="M356.084 182.475C356.084 182.475 369.017 176.125 380.623 183.243C388.969 183.7 398.583 178.817 404.386 183.985C414.413 192.897 408.041 227.062 407.955 231.376C407.757 242.109 386.805 245.18 380.623 257.846C373.872 271.65 343.547 278.88 355.041 280.968C366.534 283.056 428.235 267.388 430.123 249.235C432.011 231.083 415.948 167.678 405.412 172.346C394.875 177.013 390.53 177.419 380.623 183.243C378.967 183.277 370.914 160.707 356.084 182.475Z" fill="#128A6B"/>
<path d="M371.397 165.263C371.397 165.263 372.113 171.647 375.225 175.296C377.273 177.765 379.078 180.426 380.614 183.243C380.614 183.243 371.992 174.037 368.009 175.555C364.025 177.074 357.878 183.976 354.774 182.181C351.67 180.387 360.731 157.808 363.396 158.136C366.06 158.464 371.397 165.263 371.397 165.263Z" fill="#A3AEF7"/>
<path d="M353.61 124.022C350.462 126.662 343.513 139.846 343.384 147.205C343.254 154.564 346.358 156.549 344.246 161.777C342.133 167.005 353.911 172.846 358.343 169.99C362.775 167.135 370.535 141.908 370.535 141.908L353.61 124.022Z" fill="#F7B59C"/>
<path d="M353.61 124.022C350.462 126.662 348.212 142.348 348.083 149.707C347.953 157.066 350.497 159.827 348.384 165.055C346.272 170.284 353.911 172.82 358.343 169.99C362.775 167.161 370.535 141.908 370.535 141.908L353.61 124.022Z" fill="#D88A6A"/>
<path d="M355.101 129.251C353.515 132.564 345.298 152.33 346.479 153.874C347.66 155.418 362.559 164.279 364.284 164.012C366.008 163.744 371.44 143.305 371.44 143.305L355.101 129.251Z" fill="#E35032"/>
<path d="M363.197 160.888C358.318 158.475 353.616 155.719 349.126 152.64C349.73 149.439 353.592 139.44 356.075 133.608L368.448 144.271C366.655 150.837 364.456 157.981 363.197 160.888Z" fill="#DADFFC"/>
<path d="M363.197 160.888C361.145 159.965 357.489 157.92 354.325 156.014C352.126 154.685 352.299 143.072 352.48 142.572C353.687 139.397 355.006 136.118 356.075 133.608L368.448 144.271C366.655 150.837 364.456 157.981 363.197 160.888Z" fill="#A3AEF7"/>
<path d="M353.86 107.915C351.023 113.091 353.506 127.102 353.084 131.278C352.661 135.454 352.799 162.338 376.993 166.6C389.668 168.843 401.765 154.858 404.86 139.397C405.834 134.574 408.257 133.176 407.835 129.294C406.205 114.497 369.207 79.7453 353.86 107.915Z" fill="#F7B59C"/>
<path d="M372.121 121.771C372.121 123.332 381.537 130.554 384.718 130.191C387.9 129.829 388.823 126.939 388.038 125.524C387.253 124.109 377.364 117.457 375.519 118.018C373.673 118.578 372.121 120.218 372.121 121.771Z" fill="#873A1C"/>
<path d="M358.947 122.047C358.128 123.091 351.945 125.558 350.6 124.868C349.255 124.178 349.738 118.829 350.6 117.793C351.463 116.758 357.257 114.403 358.455 114.894C359.654 115.386 360.016 120.701 358.947 122.047Z" fill="#873A1C"/>
<path d="M378.76 133.91C379.054 131.546 378.142 129.486 376.725 129.31C375.307 129.134 373.92 130.908 373.626 133.272C373.333 135.636 374.244 137.696 375.662 137.872C377.08 138.048 378.467 136.274 378.76 133.91Z" fill="#0C0E26"/>
<path d="M359.542 133.564C359.693 131.186 358.66 129.185 357.235 129.094C355.809 129.004 354.531 130.858 354.379 133.235C354.228 135.613 355.261 137.614 356.687 137.705C358.113 137.795 359.391 135.942 359.542 133.564Z" fill="#0C0E26"/>
<path d="M364.086 125.929C364.086 125.929 358.24 143.909 363.094 147.498C367.008 150.38 370.707 145.35 370.707 145.35C370.707 145.35 366.31 147.3 364.068 145.074C361.551 142.555 364.086 125.929 364.086 125.929Z" fill="#CF6C44"/>
<path d="M365.939 153.503C368.526 153.098 371.113 152.64 373.32 151.338C375.289 149.98 377.11 148.418 378.752 146.679H380.364C380.752 149.595 381.752 153.115 379.209 155.427C375.156 158.68 369.207 156.79 365.939 153.486V153.503ZM365.939 153.503C369.009 154.185 372.492 154.866 375.312 153.736C377.847 152.709 379.769 149.992 378.76 147.153H380.381C379.924 149.94 377.864 151.898 375.57 153.261C374.088 154.02 372.454 154.435 370.789 154.474C369.124 154.512 367.473 154.175 365.957 153.486L365.939 153.503Z" fill="#CF6C44"/>
<path d="M365.939 153.503C365.939 153.503 371.492 154.452 375.174 151.838C378.855 149.224 379.554 146.929 379.554 146.929C379.554 146.929 381.088 152.39 377.329 154.642C372.57 157.498 365.939 153.503 365.939 153.503Z" fill="#FCFCFC"/>
<path d="M377.476 146.92C377.637 146.592 377.882 146.311 378.184 146.106C378.487 145.901 378.839 145.778 379.203 145.75C379.568 145.722 379.934 145.79 380.264 145.947C380.595 146.104 380.879 146.344 381.088 146.644C381.361 147.022 381.497 147.481 381.476 147.947C381.273 147.864 381.076 147.763 380.89 147.645C379.861 147.007 378.64 146.75 377.441 146.92H377.476Z" fill="#CF6C44"/>
<path d="M372.897 86.7165C372.897 86.7165 364.646 81.9454 355.653 88.951C346.66 95.9567 345.867 102.54 341.426 103.92C336.986 105.3 347.048 118.466 363.499 119.95C379.95 121.434 389.28 111.323 392.461 111.883C395.643 112.444 390.34 126.8 401.799 125.929C413.258 125.058 412.284 152.321 425.062 146.351C435.124 141.64 437.452 111.624 417.103 91.9189C400.618 75.9923 382.218 78.9688 372.897 86.7165Z" fill="#AB593A"/>
<path d="M379.502 111.59C377.864 112.203 378.312 103.765 376.786 104.205C375.881 104.464 374.725 114.126 374.01 114.661C371.621 116.447 367.371 116.991 364.913 116.387C364.473 116.283 364.379 110.451 363.939 110.46C363.723 110.46 361.999 116.861 361.792 116.836C344.66 114.428 338.909 104.938 341.426 103.92C336.969 105.3 347.048 118.466 363.499 119.95C379.95 121.434 389.28 111.323 392.461 111.883C395.643 112.444 390.34 126.8 401.799 125.929C413.258 125.058 405.541 113.85 399.316 108.674C393.392 103.747 390.202 107.613 379.502 111.59Z" fill="#873A1C"/>
<path d="M400.756 125.964C402.678 122.953 408.257 116.905 411.654 119.924C415.051 122.944 414.879 131.011 407.214 137.784C399.549 144.556 396.367 132.823 400.756 125.964Z" fill="#F7B59C"/>
<path d="M337.753 167.92C331.597 170.836 317.293 189.058 312.525 208.867C307.757 228.676 317.819 240.306 325.139 239.279C339.279 237.286 343.789 220.298 350.264 203.604C355.532 190.05 356.3 184.623 356.015 178.67C355.731 172.717 337.753 167.92 337.753 167.92Z" fill="#1AA581"/>
<path d="M410.404 162.122C416.56 158.128 455.36 196.305 455.955 233.421C456.55 270.537 403.817 293.193 391.099 284.445C378.381 275.696 381.071 259.994 388.917 254.136C396.764 248.278 418.164 240.392 418.164 240.392C418.164 240.392 413.103 228.21 411.706 223.137C410.309 218.064 396.057 171.371 410.404 162.122Z" fill="#1AA581"/>
<path d="M448.868 204.786C457.326 231.609 451.566 243.067 445.341 251.487C432.839 268.389 405.817 281.373 397.057 279.838C390.857 278.751 380.933 265.74 382.873 273.177C384.135 277.809 387.049 281.817 391.064 284.445C403.782 293.193 456.515 270.528 455.921 233.421C455.783 223.689 452.998 213.879 448.868 204.786Z" fill="#128A6B"/>
<path d="M377.64 180.344C378.407 183.182 373.268 200.075 370.569 209.013C367.871 217.952 367.517 233.706 369.638 249.235C371.759 264.765 372.992 270.037 372.992 270.037L374.829 267.647C374.829 267.647 368.793 239.926 369.655 229.193C370.518 218.461 382.339 182.147 382.339 182.147L380.666 183.243L377.64 180.344Z" fill="#128A6B"/>
<path d="M378.743 284.678C373.156 287.266 365.068 292.805 356.446 292.106C347.824 291.407 333.891 278.423 333.718 275.524C333.546 272.625 343.677 273.859 350.178 278.069C356.679 282.279 377.096 277.456 377.096 277.456L378.743 284.678Z" fill="#F7B59C"/>
<path d="M348.324 281.52C348.324 281.52 332.606 275.67 333.666 271.115C334.727 266.56 342.47 271.167 347.729 272.746C350.835 273.695 354.132 273.838 357.308 273.16C357.308 273.16 349.652 269.942 350.005 267.31C350.359 264.679 359.999 265.145 363.853 266.784C367.707 268.423 378.286 272.823 378.286 272.823L377.096 277.491C377.096 277.491 361.257 283.392 348.324 281.52Z" fill="#F7B59C"/>
<path d="M370.647 269.614C369.259 276.792 375.82 286.136 376.415 285.834C377.234 285.411 378.01 285.023 378.743 284.678L377.096 277.491L378.329 272.841L370.647 269.614Z" fill="#D88A6A"/>
<path d="M382.649 264.67C385.029 265.861 388.84 271.15 389.633 274.825C390.426 278.5 390.745 282.322 390.168 283.78C389.59 285.239 381.752 288.094 380.062 287.43C378.372 286.766 370.69 270.83 372.596 267.949C374.501 265.067 380.381 263.531 382.649 264.67Z" fill="#DADFFC"/>
<path d="M389.633 274.825C390.426 278.5 390.745 282.322 390.168 283.78C389.59 285.239 381.752 288.094 380.062 287.43C379.459 287.18 378.105 285.014 376.691 282.193C378.597 284.919 390.866 286.731 389.633 274.825Z" fill="#A3AEF7"/>
<path d="M380.614 183.243C380.614 183.243 395.272 173.847 400.721 166.85C402.954 163.845 404.01 160.125 403.687 156.393C403.687 156.393 413.43 157.946 412.904 164.331C412.378 170.715 410.257 185.563 406.808 186.09C403.36 186.616 404.343 176.755 396.807 177.876C389.271 178.998 380.614 183.243 380.614 183.243Z" fill="#DADFFC"/>
<path d="M380.614 183.243C380.614 183.243 395.272 173.847 400.721 166.85C402.954 163.845 404.01 160.125 403.687 156.393C403.687 156.393 413.43 157.946 412.904 164.331C412.585 161.216 408.654 158.697 405.532 161.164C402.549 163.537 404.17 177.557 396.807 177.876C391.235 179.086 385.807 180.885 380.614 183.243Z" fill="#A3AEF7"/>
<path d="M344.599 160.776C345.608 163.364 348.281 167.212 351.592 168.075C354.585 168.677 357.688 168.42 360.542 167.333C362.197 166.669 359.749 176.642 356.075 179.153C353.101 181.189 348.134 180.249 343.961 177.859C339.788 175.469 336.762 170.957 337.753 167.937C338.745 164.917 343.961 159.154 344.599 160.776Z" fill="#DADFFC"/>
<path d="M410.18 126.835C410.947 130.398 407.171 134.764 403.549 132.874C406.895 132.012 408.274 129.674 410.18 126.835Z" fill="#CF6C44"/>
</svg>
