<svg width="1182" height="54" viewBox="0 0 1182 54" fill="none" xmlns="http://www.w3.org/2000/svg">
<path d="M1 27.5V28H0.5V27.5H1ZM591 27.5V27H591.5V27.5H591ZM591 54L588.113 49H593.887L591 54ZM590.5 47.375V42.9583H591.5V47.375H590.5ZM590.5 38.5417V34.125H591.5V38.5417H590.5ZM590.5 29.7083V27.5H591.5V29.7083H590.5ZM591 28H588.5V27H591V28ZM583.5 28H578.5V27H583.5V28ZM573.5 28H568.5V27H573.5V28ZM563.5 28H558.5V27H563.5V28ZM553.5 28H548.5V27H553.5V28ZM543.5 28H538.5V27H543.5V28ZM533.5 28H528.5V27H533.5V28ZM523.5 28H518.5V27H523.5V28ZM513.5 28H508.5V27H513.5V28ZM503.5 28H498.5V27H503.5V28ZM493.5 28H488.5V27H493.5V28ZM483.5 28H478.5V27H483.5V28ZM473.5 28H468.5V27H473.5V28ZM463.5 28H458.5V27H463.5V28ZM453.5 28H448.5V27H453.5V28ZM443.5 28H438.5V27H443.5V28ZM433.5 28H428.5V27H433.5V28ZM423.5 28H418.5V27H423.5V28ZM413.5 28H408.5V27H413.5V28ZM403.5 28H398.5V27H403.5V28ZM393.5 28H388.5V27H393.5V28ZM383.5 28H378.5V27H383.5V28ZM373.5 28H368.5V27H373.5V28ZM363.5 28H358.5V27H363.5V28ZM353.5 28H348.5V27H353.5V28ZM343.5 28H338.5V27H343.5V28ZM333.5 28H328.5V27H333.5V28ZM323.5 28H318.5V27H323.5V28ZM313.5 28H308.5V27H313.5V28ZM303.5 28H298.5V27H303.5V28ZM293.5 28H288.5V27H293.5V28ZM283.5 28H278.5V27H283.5V28ZM273.5 28H268.5V27H273.5V28ZM263.5 28H258.5V27H263.5V28ZM253.5 28H248.5V27H253.5V28ZM243.5 28H238.5V27H243.5V28ZM233.5 28H228.5V27H233.5V28ZM223.5 28H218.5V27H223.5V28ZM213.5 28H208.5V27H213.5V28ZM203.5 28H198.5V27H203.5V28ZM193.5 28H188.5V27H193.5V28ZM183.5 28H178.5V27H183.5V28ZM173.5 28H168.5V27H173.5V28ZM163.5 28H158.5V27H163.5V28ZM153.5 28H148.5V27H153.5V28ZM143.5 28H138.5V27H143.5V28ZM133.5 28H128.5V27H133.5V28ZM123.5 28H118.5V27H123.5V28ZM113.5 28H108.5V27H113.5V28ZM103.5 28H98.5V27H103.5V28ZM93.5 28H88.5V27H93.5V28ZM83.5 28H78.5V27H83.5V28ZM73.5 28H68.5V27H73.5V28ZM63.4999 28H58.5V27H63.4999V28ZM53.5 28H48.5V27H53.5V28ZM43.5 28H38.4999V27H43.5V28ZM33.5 28H28.5V27H33.5V28ZM23.5 28H18.5V27H23.5V28ZM13.4999 28H8.5V27H13.4999V28ZM3.5 28H1V27H3.5V28ZM0.5 27.5V25.2083H1.5V27.5H0.5ZM0.5 20.625V16.0417H1.5V20.625H0.5ZM0.5 11.4583V6.875H1.5V11.4583H0.5ZM0.5 2.29166V0H1.5V2.29166H0.5Z" fill="white"/>
<path d="M296 0V28" stroke="white" stroke-dasharray="5 5"/>
<path d="M591 0V28" stroke="white" stroke-dasharray="5 5"/>
<path d="M886 0V28" stroke="white" stroke-dasharray="5 5"/>
<path d="M1181 0V28" stroke="white" stroke-dasharray="5 5"/>
<path d="M591 27.5H1180" stroke="white" stroke-dasharray="5 5"/>
</svg>
