<svg width="46" height="46" viewBox="0 0 46 46" fill="none" xmlns="http://www.w3.org/2000/svg">
<path d="M29.9956 29.9996V29.999H29.9991V24.8646C29.9991 22.3528 29.4583 20.418 26.5219 20.418C25.1102 20.418 24.1629 21.1926 23.7762 21.927H23.7354V20.6525H20.9512V29.999H23.8503V25.3709C23.8503 24.1524 24.0813 22.9741 25.5903 22.9741C27.0772 22.9741 27.0994 24.3647 27.0994 25.4491V29.9996H29.9956Z" fill="#1AA581"/>
<path d="M16.2305 20.6523H19.1331V29.9989H16.2305V20.6523Z" fill="#1AA581"/>
<path d="M17.6811 16C16.7531 16 16 16.7531 16 17.6811C16 18.6092 16.7531 19.378 17.6811 19.378C18.6092 19.378 19.3623 18.6092 19.3623 17.6811C19.3617 16.7531 18.6086 16 17.6811 16V16Z" fill="#1AA581"/>
<rect x="0.5" y="0.5" width="45" height="45" rx="22.5" stroke="#1AA581"/>
</svg>
