<svg width="46" height="46" viewBox="0 0 46 46" fill="none" xmlns="http://www.w3.org/2000/svg">
<path d="M27.1854 16H18.8146C17.26 16 16 17.2786 16 18.8562V27.1438C16 28.7214 17.26 30 18.8146 30H27.1854C28.74 30 30 28.7214 30 27.1438V18.8562C30 17.2786 28.74 16 27.1854 16ZM23 26.3446C21.18 26.3446 19.7042 24.8469 19.7042 23C19.7042 21.1531 21.18 19.6554 23 19.6554C24.82 19.6554 26.2958 21.1531 26.2958 23C26.2958 24.8469 24.82 26.3446 23 26.3446ZM27.2496 19.5696C26.8617 19.5696 26.5467 19.2499 26.5467 18.8562C26.5467 18.4626 26.8617 18.1429 27.2496 18.1429C27.6375 18.1429 27.9525 18.4626 27.9525 18.8562C27.9525 19.2499 27.6375 19.5696 27.2496 19.5696Z" fill="#1AA581"/>
<rect x="0.5" y="0.5" width="45" height="45" rx="22.5" stroke="#1AA581"/>
</svg>
