<svg width="945" height="639" viewBox="0 0 945 639" fill="none" xmlns="http://www.w3.org/2000/svg">
<g clip-path="url(#clip0_131_6076)">
<path d="M51.4277 51.7971C-17.3395 13.0291 -32.5323 -142.043 -8.04394 -194H949V609.337C885.697 618.496 736.901 625.324 648.143 579.362C537.196 521.909 536.589 484.237 506.711 418.994C473.765 347.053 423.289 301.091 319.839 301.091C250.328 301.091 207.074 234.012 187.863 180.691C141.424 51.7971 137.387 100.257 51.4277 51.7971Z" fill="#F7F7FA"/>
</g>
<g clip-path="url(#clip1_131_6076)">
<path d="M590.92 90.6399H266.57V403.91H590.92V90.6399Z" fill="#E7E6E9"/>
<path d="M570.92 110.64H286.57V415.45H570.92V110.64Z" fill="#FCFCFC"/>
<path d="M292.57 110.64H286.57V415.45H292.57V110.64Z" fill="#D6D6DA"/>
<path d="M266.57 90.6399H590.93L596.93 84.6399H276.57L266.57 90.6399Z" fill="#F3F3F4"/>
<path d="M590.93 403.91L596.93 397.91V84.6399L590.93 90.6399V403.91Z" fill="#D6D6DA"/>
<path d="M618.13 138.28H449.61V101.88H618.13L604.13 120.08L618.13 138.28Z" fill="#E35032"/>
<path d="M460.08 117.84L460.54 116.12H462.64L463.75 111.98H465.75L464.64 116.12H466.34L467.43 111.98H469.43L468.33 116.12H470.39L470 117.84H468L467.18 120.84H469.26L468.75 122.54H466.67L465.56 126.64H463.56L464.65 122.54H462.97L461.86 126.64H459.86L460.9 122.54H458.82L459.28 120.82H461.36L462.18 117.82L460.08 117.84ZM463.42 120.84H465.08L465.92 117.84H464.21L463.42 120.84ZM473.9 114.23C474.441 114.119 474.937 113.848 475.32 113.45C475.593 113.144 475.789 112.777 475.89 112.38C475.959 112.19 476.003 111.991 476.02 111.79H478.43V126.66H475.43V116.41H471.92V114.41C472.583 114.394 473.245 114.334 473.9 114.23ZM501.63 115.47C501.684 116.11 501.536 116.751 501.206 117.302C500.875 117.853 500.38 118.286 499.79 118.54C500.504 118.782 501.122 119.249 501.55 119.87C501.949 120.54 502.147 121.31 502.12 122.09C502.138 122.938 501.905 123.773 501.45 124.49C501.169 124.949 500.806 125.352 500.38 125.68C499.872 126.068 499.279 126.328 498.65 126.44C497.946 126.584 497.229 126.655 496.51 126.65H489.67V111.54H497C498.87 111.54 500.18 112.11 500.95 113.16C501.418 113.837 501.656 114.647 501.63 115.47ZM498 117.13C498.213 116.984 498.382 116.784 498.49 116.549C498.597 116.315 498.639 116.056 498.61 115.8C498.646 115.511 498.585 115.219 498.436 114.97C498.288 114.72 498.06 114.526 497.79 114.42C497.209 114.23 496.6 114.143 495.99 114.16H492.67V117.54H496.39C496.954 117.554 497.511 117.412 498 117.13ZM497.94 123.76C498.277 123.582 498.553 123.306 498.731 122.969C498.909 122.632 498.982 122.249 498.94 121.87C498.963 121.529 498.878 121.19 498.699 120.9C498.52 120.609 498.255 120.382 497.94 120.25C497.447 120.082 496.93 119.998 496.41 120H492.65V124H496.37C496.905 124.042 497.442 123.96 497.94 123.76ZM513.29 117.36C513.75 118.054 514.044 118.844 514.15 119.67C514.23 120.4 514.26 121.135 514.24 121.87H506.59C506.564 122.32 506.645 122.77 506.828 123.182C507.01 123.594 507.289 123.957 507.64 124.24C508.075 124.529 508.588 124.675 509.11 124.66C509.647 124.673 510.17 124.488 510.58 124.14C510.804 123.923 510.984 123.665 511.11 123.38H514.11C513.966 124.136 513.601 124.832 513.06 125.38C512.558 125.935 511.939 126.371 511.246 126.654C510.554 126.938 509.807 127.063 509.06 127.02C507.678 127.035 506.339 126.54 505.3 125.63C504.21 124.73 503.66 123.22 503.66 121.16C503.554 119.542 504.081 117.946 505.13 116.71C505.628 116.194 506.232 115.791 506.9 115.528C507.567 115.266 508.284 115.151 509 115.19C509.866 115.175 510.724 115.356 511.51 115.72C512.252 116.078 512.872 116.649 513.29 117.36ZM506.68 119.96H511.21C511.211 119.307 510.964 118.678 510.52 118.2C510.098 117.797 509.533 117.578 508.95 117.59C508.655 117.575 508.36 117.625 508.087 117.738C507.814 117.85 507.569 118.022 507.37 118.24C506.964 118.726 506.723 119.328 506.68 119.96ZM518.88 124.2C519.443 124.651 520.162 124.863 520.88 124.79C521.358 124.812 521.835 124.719 522.27 124.52C522.419 124.458 522.545 124.352 522.63 124.216C522.716 124.08 522.758 123.921 522.75 123.76C522.761 123.608 522.73 123.457 522.659 123.322C522.588 123.188 522.481 123.076 522.35 123C521.377 122.622 520.373 122.328 519.35 122.12C518.377 121.936 517.458 121.536 516.66 120.95C516.398 120.689 516.193 120.377 516.058 120.032C515.924 119.688 515.863 119.319 515.88 118.95C515.883 118.444 515.993 117.944 516.204 117.484C516.414 117.024 516.72 116.613 517.1 116.28C518.066 115.506 519.284 115.117 520.52 115.19C521.717 115.143 522.904 115.427 523.95 116.01C524.406 116.345 524.777 116.782 525.036 117.285C525.294 117.788 525.433 118.344 525.44 118.91H522.52C522.497 118.586 522.387 118.275 522.2 118.01C521.99 117.795 521.734 117.631 521.452 117.529C521.17 117.427 520.869 117.39 520.57 117.42C520.101 117.382 519.632 117.482 519.22 117.71C519.097 117.782 518.994 117.884 518.92 118.006C518.847 118.128 518.806 118.267 518.8 118.41C518.791 118.562 518.828 118.713 518.906 118.843C518.985 118.974 519.101 119.077 519.24 119.14C520.232 119.499 521.252 119.773 522.29 119.96C523.252 120.132 524.15 120.561 524.89 121.2C525.171 121.472 525.392 121.798 525.54 122.16C525.688 122.521 525.759 122.909 525.75 123.3C525.767 123.817 525.664 124.331 525.449 124.801C525.234 125.271 524.912 125.685 524.51 126.01C523.39 126.774 522.041 127.128 520.69 127.01C519.304 127.117 517.926 126.719 516.81 125.89C516.402 125.542 516.077 125.107 515.859 124.618C515.641 124.128 515.535 123.596 515.55 123.06H518.55C518.542 123.464 518.657 123.862 518.88 124.2ZM528.29 112.46H531.18V115.59H533V117.67H531.17V123.54C531.139 123.837 531.198 124.137 531.34 124.4C531.674 124.554 532.044 124.613 532.41 124.57C532.51 124.58 532.61 124.58 532.71 124.57H533V126.75H531.61C531.115 126.835 530.607 126.816 530.12 126.693C529.633 126.571 529.176 126.349 528.78 126.04C528.597 125.828 528.458 125.582 528.372 125.316C528.286 125.049 528.255 124.769 528.28 124.49V117.67H526.72V115.59H528.28L528.29 112.46ZM543.8 123.54C544.144 123.877 544.557 124.135 545.012 124.294C545.467 124.453 545.951 124.51 546.43 124.46C547.05 124.481 547.669 124.397 548.26 124.21C548.645 124.112 548.985 123.887 549.225 123.571C549.465 123.255 549.59 122.867 549.58 122.47C549.587 122.236 549.531 122.004 549.416 121.8C549.301 121.595 549.133 121.426 548.93 121.31C548.277 120.969 547.575 120.729 546.85 120.6L545.25 120.24C544.11 120.048 543.01 119.662 542 119.1C541.488 118.728 541.078 118.232 540.811 117.658C540.543 117.084 540.426 116.451 540.47 115.82C540.463 115.179 540.596 114.544 540.86 113.96C541.125 113.376 541.514 112.857 542 112.44C543.221 111.467 544.763 110.989 546.32 111.1C547.782 111.057 549.217 111.5 550.4 112.36C550.964 112.792 551.417 113.352 551.723 113.993C552.029 114.635 552.179 115.339 552.16 116.05H549.16C549.165 115.638 549.056 115.233 548.844 114.88C548.632 114.526 548.326 114.239 547.96 114.05C547.389 113.78 546.761 113.65 546.13 113.67C545.443 113.634 544.761 113.812 544.18 114.18C543.948 114.321 543.757 114.521 543.627 114.76C543.497 114.999 543.432 115.268 543.44 115.54C543.435 115.792 543.501 116.041 543.633 116.257C543.764 116.474 543.953 116.648 544.18 116.76C544.804 117.043 545.458 117.255 546.13 117.39L548.74 118C549.668 118.186 550.547 118.564 551.32 119.11C551.777 119.479 552.139 119.952 552.375 120.49C552.612 121.027 552.716 121.614 552.68 122.2C552.692 122.851 552.558 123.497 552.286 124.089C552.014 124.681 551.612 125.205 551.11 125.62C549.829 126.615 548.229 127.109 546.61 127.01C544.953 127.094 543.316 126.611 541.97 125.64C541.415 125.204 540.973 124.641 540.681 123.999C540.388 123.357 540.254 122.654 540.29 121.95H543.29C543.313 122.516 543.489 123.066 543.8 123.54ZM563.48 117.35C563.935 118.046 564.229 118.835 564.34 119.66C564.42 120.39 564.45 121.125 564.43 121.86H556.78C556.754 122.31 556.835 122.76 557.018 123.172C557.2 123.584 557.479 123.947 557.83 124.23C558.265 124.519 558.778 124.665 559.3 124.65C559.837 124.663 560.36 124.478 560.77 124.13C560.994 123.913 561.174 123.655 561.3 123.37H564.3C564.149 124.124 563.785 124.818 563.25 125.37C562.748 125.925 562.129 126.361 561.436 126.644C560.744 126.928 559.997 127.053 559.25 127.01C557.868 127.025 556.529 126.53 555.49 125.62C554.4 124.72 553.85 123.21 553.85 121.15C553.744 119.532 554.271 117.936 555.32 116.7C555.811 116.187 556.405 115.784 557.064 115.518C557.723 115.253 558.43 115.13 559.14 115.16C560.009 115.144 560.871 115.325 561.66 115.69C562.421 116.05 563.056 116.632 563.48 117.36V117.35ZM556.87 119.95H561.4C561.401 119.297 561.154 118.668 560.71 118.19C560.5 117.989 560.252 117.832 559.981 117.727C559.71 117.623 559.421 117.573 559.13 117.58C558.837 117.566 558.544 117.617 558.273 117.73C558.001 117.842 557.758 118.013 557.56 118.23C557.152 118.719 556.911 119.325 556.87 119.96V119.95ZM569.38 111.54V126.66H566.46V111.54H569.38ZM575.22 111.54V126.66H572.3V111.54H575.22ZM586.83 117.36C587.29 118.054 587.584 118.844 587.69 119.67C587.775 120.4 587.805 121.135 587.78 121.87H580.13C580.106 122.32 580.189 122.769 580.371 123.181C580.554 123.592 580.831 123.955 581.18 124.24C581.615 124.527 582.128 124.674 582.65 124.66C583.187 124.673 583.71 124.488 584.12 124.14C584.344 123.923 584.524 123.665 584.65 123.38H587.65C587.52 124.13 587.172 124.826 586.65 125.38C586.148 125.935 585.529 126.371 584.836 126.654C584.144 126.938 583.397 127.063 582.65 127.02C581.268 127.035 579.929 126.54 578.89 125.63C577.8 124.73 577.26 123.22 577.26 121.16C577.152 119.543 577.675 117.948 578.72 116.71C579.212 116.195 579.808 115.792 580.469 115.526C581.129 115.261 581.839 115.139 582.55 115.17C583.419 115.156 584.28 115.337 585.07 115.7C585.807 116.069 586.419 116.646 586.83 117.36ZM580.22 119.96H584.75C584.751 119.307 584.504 118.678 584.06 118.2C583.852 118 583.605 117.843 583.336 117.738C583.067 117.633 582.779 117.583 582.49 117.59C582.195 117.575 581.9 117.625 581.627 117.738C581.354 117.85 581.109 118.022 580.91 118.24C580.504 118.726 580.263 119.328 580.22 119.96ZM596.22 115.24V118.24C596.03 118.24 595.86 118.24 595.71 118.24C595.6 118.232 595.49 118.232 595.38 118.24C594.92 118.169 594.45 118.234 594.027 118.428C593.604 118.622 593.247 118.935 593 119.33C592.731 119.96 592.614 120.646 592.66 121.33V126.67H589.66V115.54H592.45V117.44C592.757 116.869 593.156 116.352 593.63 115.91C594.235 115.425 594.995 115.176 595.77 115.21H596C596 115.21 596.07 115.24 596.22 115.24Z" fill="#FCFCFC"/>
<path d="M352.22 343.26C352.22 343.26 363.22 294.26 406.9 241.69C450.58 189.12 498.73 170.13 498.73 170.13" stroke="#FFA733" stroke-width="2" stroke-linecap="round" stroke-linejoin="round"/>
<path d="M481.23 164.76L498.73 170.14L493.35 187.64" stroke="#FFA733" stroke-width="2" stroke-linecap="round" stroke-linejoin="round"/>
<path d="M444.61 224.36C455.932 224.36 465.11 215.182 465.11 203.86C465.11 192.538 455.932 183.36 444.61 183.36C433.288 183.36 424.11 192.538 424.11 203.86C424.11 215.182 433.288 224.36 444.61 224.36Z" fill="#E35032"/>
<path d="M364.78 319.91C370.855 319.91 375.78 314.985 375.78 308.91C375.78 302.835 370.855 297.91 364.78 297.91C358.705 297.91 353.78 302.835 353.78 308.91C353.78 314.985 358.705 319.91 364.78 319.91Z" fill="#FFA733"/>
<path d="M395.28 272.81C404.26 272.81 411.54 265.53 411.54 256.55C411.54 247.57 404.26 240.29 395.28 240.29C386.3 240.29 379.02 247.57 379.02 256.55C379.02 265.53 386.3 272.81 395.28 272.81Z" fill="#FF8933"/>
<path d="M258.69 133.4C258.69 133.4 276.1 126.54 284.59 130.01C293.08 133.48 304.94 148.17 288.51 170.92C272.08 193.67 229.05 215.54 186.4 185.37C143.75 155.2 171 120.12 193 125.34C210.6 129.54 258.69 133.4 258.69 133.4Z" fill="#0C0E26"/>
<path d="M262.37 144.66C265.62 143.72 278.73 140.94 278.43 146.71C278.06 148.55 276.66 150.4 274.63 150.17C270.26 149.17 269.94 142.83 273.76 140.86C276.55 139.65 279.67 140.61 282.41 141.27C284.22 141.714 285.934 142.484 287.47 143.54C285.763 142.941 283.99 142.548 282.19 142.37C279.8 142.14 276.86 141.58 274.7 142.5C274.241 142.766 273.852 143.137 273.565 143.583C273.278 144.029 273.102 144.536 273.05 145.064C272.998 145.592 273.073 146.124 273.267 146.617C273.462 147.11 273.772 147.55 274.17 147.9C274.61 148.24 275.02 148.4 275.48 148.08C275.94 147.76 276.83 146.6 276.37 146.02C275.423 145.375 274.315 145.007 273.17 144.96C269.579 144.65 265.972 144.566 262.37 144.71V144.66Z" fill="#3D3E51"/>
<path d="M183.88 176.26C184.615 173.481 185.815 170.847 187.43 168.47C188.093 167.361 189.133 166.527 190.36 166.12C192.13 165.83 193.22 167.62 193.36 169.18C193.46 171.52 190.52 172.34 188.75 171.56C187.89 171.25 187.155 170.666 186.659 169.898C186.162 169.131 185.93 168.222 186 167.31C186.48 164.8 188.35 163.39 190 161.83C191.069 160.868 192.306 160.112 193.65 159.6C192.578 160.489 191.608 161.495 190.76 162.6C189.66 164.02 188.1 165.71 187.76 167.39C187.759 167.904 187.898 168.408 188.16 168.85C188.47 169.334 188.958 169.678 189.519 169.807C190.08 169.936 190.669 169.84 191.16 169.54C191.42 169.21 190.98 168.35 190.73 168.09C190.48 167.83 190.29 168.09 190 168.27C187.41 170.37 185.81 173.49 183.76 176.27L183.88 176.26Z" fill="#3D3E51"/>
<path d="M255.39 158.54C256.245 161.286 256.63 164.156 256.53 167.03C256.552 168.32 256.112 169.575 255.29 170.57C253.94 171.76 252.07 170.82 251.12 169.57C249.79 167.64 251.86 165.39 253.77 165.1C254.661 164.92 255.586 165.035 256.407 165.426C257.227 165.818 257.899 166.464 258.32 167.27C259.24 169.65 258.41 171.84 257.8 174.05C257.409 175.435 256.761 176.734 255.89 177.88C256.33 176.56 256.622 175.194 256.76 173.81C256.93 172.02 257.36 169.81 256.76 168.18C256.49 167.75 256.105 167.404 255.65 167.18C255.13 166.938 254.536 166.907 253.994 167.094C253.451 167.28 253.002 167.669 252.74 168.18C252.74 168.6 253.53 169.09 253.88 169.18C254.23 169.27 254.24 168.94 254.4 168.64C255.48 165.49 255.18 161.99 255.4 158.56L255.39 158.54Z" fill="#3D3E51"/>
<path d="M190.26 149.54C190.66 152.66 189.17 157.19 185.26 156.74C184.86 156.64 184.41 156.55 184.03 156.42L182.63 155.75C181.37 155.11 179.78 154.23 178.8 155.6C178.024 157.186 177.829 158.995 178.25 160.71C176.31 158.29 176.42 152.91 180.52 153.01C181.608 153.11 182.66 153.452 183.6 154.01C187.6 156.68 189.16 152.67 190.26 149.55V149.54Z" fill="#3D3E51"/>
<path d="M263.31 153.54C268.23 154.93 278.79 160.72 271.31 165.99C269.979 166.9 268.48 167.536 266.9 167.86C266.15 168.002 265.374 167.844 264.74 167.42C264.36 167.097 264.114 166.644 264.05 166.15C264.05 162.79 267.78 160.62 270.8 160.57C276.28 160.65 279.63 165.92 281.4 170.43C280.346 168.809 279.166 167.274 277.87 165.84C274.97 162.46 269.69 160.63 266.56 164.6C266.255 164.958 266.066 165.401 266.02 165.87C266.231 165.915 266.449 165.915 266.66 165.87L267.25 165.76C277.98 162.36 268.5 156.65 263.3 153.51L263.31 153.54Z" fill="#3D3E51"/>
<path d="M171.26 144.33C173.94 141.93 179.54 138.99 183.05 141.45C184.66 142.85 183.77 145.89 182.11 146.8C179.33 147.8 177.56 144.14 178.11 141.89C179.79 136.71 186.92 138.28 190.78 139.62C189.31 139.56 187.86 139.46 186.43 139.51C184.12 139.66 180.7 139.7 179.99 142.29C179.91 142.795 179.971 143.311 180.165 143.784C180.359 144.256 180.679 144.667 181.09 144.97C181.36 145.09 181.38 144.97 181.59 144.68C182.85 142.51 181.29 142.18 179.38 142.09C176.541 142.208 173.767 142.975 171.27 144.33H171.26Z" fill="#3D3E51"/>
<path d="M324.85 186.68C325.38 188.32 383.48 172.78 383.48 172.78C396.203 169.655 408.617 165.384 420.57 160.02C433.57 154.17 448.79 148.09 448.35 146.73C447.91 145.37 432 149.4 418.06 152.31C405.238 154.994 392.687 158.837 380.56 163.79C380.56 163.79 324.31 185.03 324.85 186.68Z" fill="#0C0E26"/>
<path d="M412.84 158.29C411.75 154.94 411.91 153.69 411.91 153.69C413.84 153.23 416.12 152.69 418.06 152.31C432.06 149.4 447.91 145.38 448.35 146.73C448.79 148.08 433.58 154.17 420.57 160.02C418.65 160.88 416.72 161.71 414.78 162.51C414.78 162.51 413.93 161.63 412.84 158.29Z" fill="#7E7C89"/>
<path d="M445.61 136.54C443.057 137.37 440.939 139.18 439.721 141.572C438.503 143.964 438.285 146.742 439.115 149.295C439.945 151.847 441.755 153.966 444.147 155.184C446.539 156.402 449.317 156.62 451.87 155.79C460.55 152.97 468.54 145.79 470.12 131.28C462.21 143.46 455.18 133.4 445.61 136.54Z" fill="#0C0E26"/>
<path d="M445.61 136.54C449.16 135.92 454.74 138.54 452.95 143.21C451.49 147.01 440.18 154.21 451.87 155.79C460.55 152.97 468.54 145.79 470.12 131.28C462.21 143.46 455.18 133.4 445.61 136.54Z" fill="#C2381D"/>
<path d="M248.59 449.23L247.59 475.86C247.59 475.86 253.82 487.06 270.44 483.73C287.06 480.4 284.96 470.73 284.96 470.73L275.34 431.24L248.59 449.23Z" fill="#AB593A"/>
<path d="M248.59 449.23L247.94 467.6C247.94 467.6 253.2 469.16 262.81 468.12C269.746 467.177 276.577 465.577 283.21 463.34L275.39 431.26L248.59 449.23Z" fill="#873A1C"/>
<path d="M213.5 440.14C213.5 440.14 201.57 474.09 201.87 482.74C202.17 491.39 161.92 483.63 161.92 483.63L174.15 436.71L213.5 440.14Z" fill="#AB593A"/>
<path d="M213.5 440.14C213.5 440.14 208.24 455.14 204.79 467.72C178.44 468.94 168.09 459.98 168.09 459.98L174.15 436.71L213.5 440.14Z" fill="#873A1C"/>
<path d="M207.93 277.54C207.93 277.54 219.35 375.88 225.93 399.54C232.51 423.2 239.93 461.09 242.64 464.16C245.35 467.23 281.19 462.31 284.03 460.06C286.87 457.81 282.13 401.06 277.84 369.32C273.55 337.58 268.84 271.75 268.84 271.75L207.93 277.54Z" fill="#485EF0"/>
<path d="M207.93 277.54C207.93 277.54 219.35 375.88 225.93 399.54C230.51 415.84 235.45 439 238.93 452.76C240.5 458.93 250.73 441.88 284.27 436.13C283.1 416.27 280.38 388.33 277.81 369.32C273.51 337.53 268.81 271.75 268.81 271.75L207.93 277.54Z" fill="#2F44CC"/>
<path d="M129.32 490.64C129.32 490.64 142.83 472.64 165.32 470.75C172.98 479.75 199.53 480.05 202.69 475.86C205.01 477.16 205.34 492.86 205.34 492.86C205.34 492.86 189.69 503.15 166.43 504.34C159.636 504.718 152.837 503.698 146.453 501.341C140.07 498.985 134.238 495.342 129.32 490.64Z" fill="#9AA6F7"/>
<path d="M129.32 502.42V490.64C129.32 490.64 143.32 497.45 166.24 498.05C189.16 498.65 205.3 492.87 205.3 492.87L206.3 502.42C206.3 502.42 185.92 509.54 167.14 509.54C148.36 509.54 129.32 502.42 129.32 502.42Z" fill="#E7E6E9"/>
<path d="M156.66 471.42C160.53 469.06 165.43 472.6 166.35 476.53C166.704 477.843 166.684 479.228 166.29 480.53C165.311 479.757 164.401 478.9 163.57 477.97C161.496 475.548 159.181 473.343 156.66 471.39V471.42Z" fill="#FCFCFC"/>
<path d="M147 474.78C149.93 473.45 153.37 475.17 155.2 477.54C156.595 479.331 157.305 481.562 157.2 483.83C156.83 486.39 156.84 486.46 155.31 484.36C152.63 480.81 150.65 477.6 147.05 474.78H147Z" fill="#FCFCFC"/>
<path d="M321 490.64C321 490.64 307.49 472.64 285 470.75C277.35 479.75 250.79 480.05 247.63 475.86C245.31 477.16 244.98 492.86 244.98 492.86C244.98 492.86 260.64 503.15 283.89 504.34C290.684 504.72 297.484 503.7 303.868 501.344C310.251 498.987 316.083 495.344 321 490.64Z" fill="#E35032"/>
<path d="M321 502.42V490.64C321 490.64 307 497.45 284.08 498.05C261.16 498.65 245 492.87 245 492.87V502.42C245 502.42 264.37 509.54 283.16 509.54C301.95 509.54 321 502.42 321 502.42Z" fill="#DADFFC"/>
<path d="M293.63 471.42C291.107 473.37 288.791 475.575 286.72 478C285.891 478.926 284.98 479.776 284 480.54C283.606 479.238 283.586 477.853 283.94 476.54C284.86 472.61 289.76 469.07 293.63 471.43V471.42Z" fill="#FCFCFC"/>
<path d="M303.29 474.78C299.69 477.6 297.71 480.78 295.03 484.36C293.52 486.43 293.51 486.43 293.14 483.83C293.035 481.562 293.745 479.331 295.14 477.54C296.97 475.16 300.41 473.45 303.34 474.78H303.29Z" fill="#FCFCFC"/>
<path d="M192.86 286.22C192 294.12 183.14 362.35 177.99 391.42C172.84 420.49 165.4 454.11 167 455.82C170.74 459.73 202.89 466.11 208.87 464.76C214.85 463.41 246.87 333.41 251.07 303.05C255.27 272.69 194.36 272.44 192.86 286.22Z" fill="#485EF0"/>
<path d="M192.86 286.22C192.66 288.11 191.99 293.46 191.03 300.91C199.39 300.44 203.71 300.45 199.8 322.55C195.89 344.65 182 411.06 177.65 442.74C176.24 452.93 194.43 446.74 215.17 450.4C226.55 415.49 247.71 327.4 251.11 303.05C255.36 272.69 194.36 272.44 192.86 286.22Z" fill="#2F44CC"/>
<path d="M249 156.17C249 156.17 244.83 182.28 244.18 194.41C243.53 206.54 218.66 201.01 218.66 201.01L210.23 168.64L249 156.17Z" fill="#873A1C"/>
<path d="M224.77 99.8398C211.27 98.5398 197.86 117.54 196.19 133.72C194.52 149.9 198.99 177.32 218.31 181C239.48 185 261.15 147.47 250.98 122.46C244.51 106.54 234.64 100.82 224.77 99.8398Z" fill="#AB593A"/>
<path d="M213.79 134.54C215.52 139.77 213.54 145.54 211.66 150.37C211.1 152.06 210.27 153.77 211.02 155.37C211.43 156.12 212.07 156.719 212.846 157.079C213.622 157.439 214.492 157.541 215.33 157.37C216.614 157.168 217.84 156.698 218.93 155.99C217.16 158.14 213.83 159.56 211.16 157.87C208.02 155.99 208.69 152.43 209.78 149.65C210.78 147.11 211.78 144.74 212.57 142.25C213.364 139.756 213.775 137.157 213.79 134.54Z" fill="#873A1C"/>
<path d="M227.853 145.688C227.967 143.402 226.95 141.493 225.58 141.424C224.21 141.356 223.007 143.154 222.893 145.44C222.779 147.727 223.796 149.636 225.166 149.704C226.536 149.773 227.739 147.975 227.853 145.688Z" fill="#0C0E26"/>
<path d="M207.777 143.494C208.108 141.232 207.278 139.237 205.923 139.038C204.568 138.839 203.201 140.512 202.869 142.774C202.537 145.037 203.367 147.032 204.722 147.23C206.077 147.429 207.445 145.756 207.777 143.494Z" fill="#0C0E26"/>
<path d="M213.13 166.1C218.05 167.37 222.71 166.47 225.8 162.25C226.57 161.4 227.17 160.37 227.92 159.46C227.15 166.91 219.14 171.2 213.13 166.1Z" fill="#873A1C"/>
<path d="M229.31 163.84C228.966 162.606 228.327 161.473 227.45 160.54C226.44 159.746 225.295 159.139 224.07 158.75C224.788 158.404 225.595 158.287 226.381 158.415C227.168 158.543 227.896 158.909 228.468 159.464C229.04 160.02 229.427 160.737 229.578 161.52C229.728 162.302 229.635 163.112 229.31 163.84Z" fill="#873A1C"/>
<path d="M210.59 128.97C211.77 130.97 204.66 134.71 199.27 134.97C193.88 135.23 205.79 121.01 210.59 128.97Z" fill="#0C0E26"/>
<path d="M223.41 130.67C222.01 132.46 228.59 137.11 233.9 138.03C239.21 138.95 229.17 123.37 223.41 130.67Z" fill="#0C0E26"/>
<path d="M231.93 122.94L255.87 149.88C255.87 149.88 267.44 141.88 267.98 130.94C268.52 120 231.93 122.94 231.93 122.94Z" fill="#0C0E26"/>
<path d="M256.94 136.9C262.32 141.57 254.39 157.22 246.5 154.9C238.61 152.58 248.41 129.54 256.94 136.9Z" fill="#AB593A"/>
<path d="M247.9 148.64C249.148 148.359 250.311 147.783 251.29 146.96C252.149 145.996 252.826 144.885 253.29 143.68C254.63 146.98 251.14 150.38 247.94 148.68L247.9 148.64Z" fill="#873A1C"/>
<path d="M242.29 92.2198C249.74 94.7698 259.45 98.3698 265.23 107.13C271.01 115.89 281 136.85 259.5 134.04C238 131.23 203.07 124.04 194.95 118.91C186.83 113.78 186.85 104.44 208.09 93.5398C229.33 82.6398 233 89.0598 242.29 92.2198Z" fill="#1AA581"/>
<path d="M262.86 124.41C266.96 123.06 272.11 118.41 265.23 107.13C271 115.9 281 136.85 259.5 134.04C238 131.23 203.07 124.04 194.95 118.91C189.42 115.4 187.67 109.91 193.83 103.38C189.83 108.98 193.57 118.26 206.64 121.75C222.22 125.91 253.83 127.39 262.86 124.41Z" fill="#128A6B"/>
<path d="M240 93.0699C240 93.0699 243.34 80.8999 246.32 80.9999C249.3 81.0999 252.82 87.2199 250.8 88.5899C248.78 89.9599 240 93.0699 240 93.0699Z" fill="#1AA581"/>
<path d="M288.68 197.11C288.68 197.11 305.82 206.11 327.29 198.01C348.76 189.91 360.08 179.67 366.79 171.77C373.5 163.87 374.24 154.54 381.1 153.1C387.96 151.66 408.98 153.66 407.49 154.82C406 155.98 382.29 162.7 387.06 168.73C391.83 174.76 398.67 167.37 400.76 167.65C402.85 167.93 395.86 181.02 384.53 183.55C373.2 186.08 352.18 224.24 317.3 232.74C282.42 241.24 269.15 219.91 269.15 219.91L288.68 197.11Z" fill="#AB593A"/>
<path d="M304.55 223.54C328.63 226.74 372.38 190.97 379.09 183.06C385.8 175.15 382.49 162.64 388.57 159.17C395.42 155.25 408.98 153.7 407.49 154.86C406 156.02 382 162.99 387.06 168.73C390.86 172.99 398.67 167.37 400.76 167.65C402.85 167.93 395.86 181.02 384.53 183.55C373.2 186.08 352.18 224.24 317.3 232.74C282.42 241.24 269.15 219.91 269.15 219.91C269.15 219.91 281.83 220.47 304.55 223.54Z" fill="#873A1C"/>
<path d="M190.29 215.89C179.12 223.7 161.29 240.34 146.02 268.22C138.35 282.22 130.81 310.11 113.37 312.64C95.93 315.17 77 318.46 79.24 320.84C92.65 334.84 116.24 325.46 117.55 331.57C118.86 337.68 113.22 345.43 117.99 344.09C122.76 342.75 132.9 325.01 137.52 318.15C142.14 311.29 182.84 262.25 203.11 249.58C223.38 236.91 202.67 207.25 190.29 215.89Z" fill="#AB593A"/>
<path d="M190.29 215.89C179.12 223.7 182.98 244.81 167.71 272.69C160.04 286.69 136.18 318.38 108.53 325.31C91.43 329.6 77 318.46 79.24 320.84C92.65 334.84 116.24 325.46 117.55 331.57C118.86 337.68 113.22 345.43 117.99 344.09C122.76 342.75 132.9 325.01 137.52 318.15C142.14 311.29 182.84 262.25 203.11 249.58C223.38 236.91 202.67 207.25 190.29 215.89Z" fill="#873A1C"/>
<path d="M224.05 191.15C244.11 184.51 254.39 183.55 271.83 188.47C289.27 193.39 310.74 197.41 313.57 198.01C316.4 198.61 314.93 211.67 309.85 222.9C304.77 234.13 300.6 236.17 297.32 235.72C294.04 235.27 277.5 230.95 277.5 230.95C277.5 230.95 285.55 289.38 267.21 298.18C248.87 306.98 195.58 287.74 193.91 280.89C192.24 274.04 193.91 263.3 193.91 263.3C193.91 263.3 187.46 272.99 185.08 271.94C177.698 268.992 171.149 264.285 166 258.23C158.13 248.94 154.71 244.23 157.15 240.34C159.59 236.45 192.07 201.73 224.05 191.15Z" fill="#DADFFC"/>
<path d="M268 214.95C267.41 214.72 217.05 225.78 207.93 233.45C198.81 241.12 180.2 264.32 177.25 267.97C179.713 269.573 182.337 270.914 185.08 271.97C187.46 272.97 193.91 263.33 193.91 263.33C193.91 263.33 192.23 274.06 193.91 280.92C195.59 287.78 248.91 307 267.21 298.21C285.51 289.42 277.5 230.98 277.5 230.98C277.5 230.98 294.04 235.3 297.32 235.75C300.06 236.12 303.4 234.75 307.38 227.75C303.57 226.48 272.43 216.69 268 214.95Z" fill="#A3AEF7"/>
<path d="M232.78 206.67C252.67 201.86 251.98 185.3 249.16 185.46C241.83 185.89 234.16 187.79 224.05 191.15C216.419 193.797 209.115 197.306 202.28 201.61C200.6 202.65 212.88 211.48 232.78 206.67Z" fill="#A3AEF7"/>
<path d="M251.34 185.37C253.15 186.23 276.04 208.63 282.19 267.21C288.34 325.79 303.24 421.8 301.19 422.92C299.14 424.04 254.31 439.18 231.84 438.75C208.44 438.3 192.71 435.75 191.15 434.03C189.59 432.31 200.15 372.86 202.03 339.77C203.91 306.68 204.62 293.7 202.55 289.57C201.27 287 193.89 287.67 192.82 286.22C191.75 284.77 192.02 276.75 193.23 276.59C194.44 276.43 203.23 280.24 205.4 275.93C207.57 271.62 211.1 252.23 208.64 237.14C206.18 222.05 198.45 205.79 198.92 203.71C199.39 201.63 205.86 197.71 207.08 198.77C208.3 199.83 215.58 221.88 221.61 223.22C227.64 224.56 256.27 215.11 253.53 208.12C250.79 201.13 240.96 188.32 242.13 186.29C243.3 184.26 249.32 184.41 251.34 185.37Z" fill="#76C9B3"/>
<path d="M245.55 234.44C253.55 231.34 258.55 227.23 260.95 228.44C263.35 229.65 269.53 253.44 264.3 259.57C258.59 266.26 247.24 268.9 238.14 266.21C229.04 263.52 224.14 239.66 226.6 238.96C229.06 238.26 236.17 238.07 245.55 234.44Z" fill="#31AE8E"/>
<path d="M246.73 236.32C253.11 233.86 257.09 230.59 258.97 231.59C260.85 232.59 265.79 251.46 261.63 256.33C257.09 261.64 248.08 263.74 240.84 261.6C233.6 259.46 229.71 240.51 231.68 239.95C233.65 239.39 239.28 239.2 246.73 236.32Z" fill="#76C9B3"/>
<path d="M231.1 188.06C220.88 188.06 214.1 182.56 210.34 181.12C206.58 179.68 205.72 186.34 207 192.54C208.52 199.92 213.93 206.85 229 206.18C249.33 205.27 250.24 176.81 246.33 180.04C242.42 183.27 240 188.06 231.1 188.06Z" fill="#DADFFC"/>
<path d="M259.94 334.03C258.94 339.77 253.63 364.17 246.78 377.44C239.93 390.71 234.33 412.17 236.98 409.94C239.63 407.71 253.05 381.61 256.62 369.99C258.93 362.49 261.44 347.14 261.68 338.83C261.82 334.26 260.37 331.66 259.94 334.03Z" fill="#31AE8E"/>
<path d="M269.15 370.66C266.15 372.81 256.99 386.44 258.08 390.19C259.17 393.94 275.54 366.08 269.15 370.66Z" fill="#31AE8E"/>
<path d="M346.52 514.6C399.2 514.6 413.8 541.6 346.52 541.6C282.39 541.6 285.83 528.1 346.52 528.1C406.18 528.1 408.52 568.6 346.52 568.6C286.76 568.6 280.64 555.1 346.52 555.1C407.69 555.1 406.65 595.6 346.52 595.6C281.96 595.6 285.16 582.1 346.52 582.1C407.88 582.1 407 615.1 346.52 615.1C312.79 615.1 302.52 609.61 299.52 607.41" stroke="#1AA581" stroke-width="7" stroke-miterlimit="10" stroke-linecap="round"/>
<path d="M394.94 594.54C392.877 595.651 390.726 596.59 388.51 597.35C388.244 596.609 387.832 595.93 387.3 595.35C383.45 590.92 371.91 586.2 350.9 585.62C355.534 584.38 359.912 582.328 363.83 579.56C377.59 581.28 387.71 585.16 392.58 590.76C393.568 591.883 394.365 593.16 394.94 594.54Z" fill="#128A6B"/>
<path d="M393.77 568.45C391.638 569.466 389.431 570.318 387.17 571C386.677 570.238 386.103 569.531 385.46 568.89C382.6 565.99 373.74 559.5 351.36 558.68C355.882 557.481 360.16 555.502 364 552.83C375.85 554.66 385 558.46 390.41 563.97C391.747 565.288 392.879 566.798 393.77 568.45Z" fill="#128A6B"/>
<path d="M346.52 568.59C372.7 568.59 387.41 561.37 391.17 553.02" stroke="#1AA581" stroke-width="7" stroke-miterlimit="10" stroke-linecap="round"/>
<path d="M388.92 582.97C383.05 589.97 368.87 595.59 346.52 595.59" stroke="#1AA581" stroke-width="7" stroke-miterlimit="10" stroke-linecap="round"/>
<path d="M299.38 561.69C300.96 565.81 327.26 566.57 333.06 568.33C324.26 568.84 315.3 568.64 306.75 566.25C304.562 565.705 302.482 564.792 300.6 563.55C300.275 563.346 299.998 563.074 299.787 562.753C299.577 562.432 299.438 562.069 299.38 561.69Z" fill="#8CD2C0"/>
<path d="M299.38 589.42C299.827 589.972 300.424 590.382 301.1 590.6C303.119 591.296 305.203 591.789 307.32 592.07C315.86 593.5 324.53 593.67 333.06 595.37C324.35 595.94 315.49 595.8 306.99 593.59C304.822 593.082 302.747 592.238 300.84 591.09C300.187 590.705 299.675 590.119 299.38 589.42Z" fill="#8CD2C0"/>
<path d="M299.56 607.4C310.09 612.21 321.85 612.4 333.06 614.77C322.9 615.47 307.5 614.3 299.56 607.4Z" fill="#8CD2C0"/>
<path d="M346.52 528.09C382 528.09 397.21 542.42 390.66 554.03" stroke="#0F785D" stroke-width="7" stroke-miterlimit="10"/>
<path d="M401.41 511.53H285.51C283.61 511.53 282.07 513.07 282.07 514.97V545.44C282.07 547.34 283.61 548.88 285.51 548.88H401.41C403.31 548.88 404.85 547.34 404.85 545.44V514.97C404.85 513.07 403.31 511.53 401.41 511.53Z" fill="#0F785D"/>
<path d="M461.13 398.62H225.78L160.25 527.88H526.66L461.13 398.62Z" fill="#1AA581"/>
<path d="M526.66 527.88H160.25V534.63H526.66V527.88Z" fill="#128A6B"/>
<path d="M343.46 481.99C368.76 481.99 389.27 477.795 389.27 472.62C389.27 467.445 368.76 463.25 343.46 463.25C318.16 463.25 297.65 467.445 297.65 472.62C297.65 477.795 318.16 481.99 343.46 481.99Z" fill="#0C0E26"/>
<path d="M343.46 474.69C371.87 474.69 394.9 451.66 394.9 423.25C394.9 394.841 371.87 371.81 343.46 371.81C315.05 371.81 292.02 394.841 292.02 423.25C292.02 451.66 315.05 474.69 343.46 474.69Z" fill="#FFA733"/>
<path d="M369.18 467.8C357.364 474.619 343.324 476.466 330.146 472.935C316.969 469.404 305.733 460.784 298.91 448.97C317.57 460.97 341.57 461.24 360.5 451.85C379.43 442.46 392.21 425.65 388 397.54C394.819 409.353 396.668 423.391 393.138 436.567C389.609 449.743 380.991 460.977 369.18 467.8Z" fill="#DE8712"/>
<path d="M345.43 427.07H284.02V390.67H361.53L345.43 427.07Z" fill="#E35032"/>
<path d="M294.49 406.63L294.95 404.9H297.05L298.16 400.77H300.16L299.04 404.9H300.75L301.84 400.77H303.84L302.75 404.9H304.81L304.35 406.63H302.29L301.47 409.63H303.55L303.09 411.35H301.01L300 415.44H298L299.09 411.35H297.41L296.3 415.44H294.3L295.42 411.35H293.34L293.8 409.63H295.88L296.7 406.63H294.49ZM297.83 409.63H299.48L300.32 406.63H298.62L297.83 409.63ZM307.7 407.53C307.082 407.165 306.591 406.621 306.29 405.97C306.091 405.477 305.983 404.952 305.97 404.42C305.961 403.898 306.066 403.38 306.277 402.901C306.487 402.423 306.799 401.996 307.19 401.65C308.146 400.84 309.38 400.434 310.63 400.52C311.883 400.437 313.119 400.842 314.08 401.65C314.471 401.996 314.783 402.423 314.993 402.901C315.204 403.38 315.309 403.898 315.3 404.42C315.287 404.952 315.179 405.477 314.98 405.97C314.7 406.607 314.199 407.122 313.57 407.42C314.264 407.803 314.839 408.371 315.23 409.06C315.6 409.759 315.789 410.539 315.78 411.33C315.787 411.93 315.667 412.524 315.427 413.074C315.188 413.624 314.834 414.117 314.39 414.52C313.32 415.453 311.927 415.927 310.51 415.84C309.823 415.889 309.134 415.798 308.484 415.571C307.834 415.344 307.237 414.986 306.73 414.52C306.317 414.099 305.992 413.6 305.772 413.053C305.552 412.505 305.443 411.92 305.45 411.33C305.444 410.535 305.648 409.752 306.04 409.06C306.41 408.384 306.994 407.85 307.7 407.54V407.53ZM310.63 413.43C310.922 413.45 311.215 413.406 311.488 413.301C311.761 413.195 312.007 413.031 312.21 412.82C312.58 412.327 312.78 411.727 312.78 411.11C312.78 410.493 312.58 409.893 312.21 409.4C312.001 409.199 311.753 409.043 311.481 408.941C311.209 408.84 310.92 408.795 310.63 408.81C310.344 408.792 310.058 408.835 309.791 408.937C309.524 409.039 309.281 409.197 309.08 409.4C308.87 409.632 308.709 409.904 308.608 410.199C308.506 410.495 308.466 410.808 308.49 411.12C308.451 411.739 308.656 412.349 309.06 412.82C309.262 413.03 309.506 413.193 309.778 413.298C310.049 413.404 310.34 413.449 310.63 413.43ZM310.63 406.58C310.885 406.59 311.139 406.549 311.377 406.46C311.616 406.371 311.834 406.235 312.02 406.06C312.344 405.698 312.516 405.225 312.5 404.74C312.531 404.487 312.503 404.231 312.42 403.99C312.337 403.749 312.2 403.53 312.02 403.35C311.84 403.17 311.621 403.033 311.38 402.95C311.14 402.867 310.883 402.839 310.63 402.87C310.383 402.857 310.136 402.892 309.902 402.974C309.669 403.057 309.454 403.184 309.27 403.35C309.093 403.533 308.956 403.751 308.87 403.991C308.784 404.231 308.75 404.486 308.77 404.74C308.754 404.983 308.79 405.227 308.877 405.454C308.963 405.682 309.097 405.889 309.27 406.06C309.452 406.229 309.666 406.359 309.9 406.441C310.134 406.524 310.383 406.558 310.63 406.54V406.58ZM319.98 403.01C320.525 402.908 321.025 402.639 321.41 402.24C321.678 401.932 321.87 401.566 321.97 401.17C322.044 400.982 322.088 400.782 322.1 400.58H324.52V415.44H321.52V405.2H318V403.2C318.671 403.193 319.34 403.129 320 403.01H319.98ZM332.39 412.92C332.575 413.107 332.799 413.251 333.046 413.343C333.293 413.435 333.557 413.471 333.82 413.45C334.138 413.47 334.456 413.411 334.746 413.279C335.035 413.146 335.288 412.944 335.48 412.69C335.875 412.126 336.072 411.448 336.04 410.76C336.069 410.085 335.888 409.417 335.52 408.85C335.334 408.587 335.084 408.375 334.793 408.235C334.503 408.095 334.182 408.032 333.86 408.05C333.547 408.042 333.235 408.093 332.94 408.2C332.489 408.358 332.115 408.679 331.89 409.1L329.26 408.98L330.31 400.77H338.5V403.25H332.43L331.89 406.5C332.23 406.274 332.588 406.077 332.96 405.91C333.453 405.748 333.971 405.67 334.49 405.68C335.121 405.661 335.749 405.775 336.332 406.016C336.916 406.256 337.442 406.617 337.876 407.075C338.31 407.533 338.643 408.077 338.852 408.673C339.061 409.268 339.142 409.901 339.09 410.53C339.103 411.875 338.635 413.18 337.77 414.21C337.282 414.768 336.672 415.206 335.986 415.489C335.301 415.772 334.56 415.892 333.82 415.84C332.557 415.886 331.319 415.478 330.33 414.69C329.866 414.291 329.49 413.799 329.226 413.247C328.963 412.694 328.818 412.092 328.8 411.48H331.72C331.78 412.02 332.015 412.526 332.39 412.92Z" fill="#FCFCFC"/>
<path d="M623.22 408.32C623.22 408.32 630.34 436.79 630.22 447.83C630.1 458.87 597.91 465.42 595.82 456.1C593.73 446.78 623.22 408.32 623.22 408.32Z" fill="#2F44CC"/>
<path d="M600.86 567.97C600.86 567.97 610.7 604.35 610.99 612.97C611.28 621.59 571.04 613.87 571.04 613.87L565.23 566.32L600.86 567.97Z" fill="#F7B59C"/>
<path d="M600.86 567.97C600.86 567.97 606.13 587.48 609.08 601.32C591.93 608.39 569.38 600.24 569.38 600.24L565.23 566.34L600.86 567.97Z" fill="#CF6C44"/>
<path d="M642.6 580.05L653.63 618.96L693.88 609.42L662.57 554.71L642.6 580.05Z" fill="#F7B59C"/>
<path d="M642.6 580.05L651.88 612.79C651.88 612.79 655.38 602.07 666.34 597.99C677.3 593.91 679.72 584.67 679.72 584.67L662.57 554.67L642.6 580.05Z" fill="#CF6C44"/>
<path d="M644.09 624.32C644.09 624.32 646.92 599.58 667.49 596C688.06 592.42 702.06 609.15 704.15 623C706.24 636.85 647.81 634.16 644.09 624.32Z" fill="#1AA581"/>
<path d="M538.44 620.89C538.44 620.89 547.1 603.56 569.55 601.67C585.11 613.09 607.92 609.29 610.16 606.78C612.49 608.07 614.42 623.13 614.42 623.13C614.42 623.13 598.77 633.42 575.52 634.61C568.73 634.979 561.936 633.952 555.558 631.592C549.181 629.233 543.354 625.59 538.44 620.89Z" fill="#1AA581"/>
<path d="M514.78 409.74C516.27 431.65 532.36 496.87 546.49 535.74C560.62 574.61 565.23 590.89 565.23 590.89C565.23 590.89 573.13 593.43 586.7 593.13C595.284 592.764 603.639 590.25 611 585.82C611 585.82 597.13 543.93 594.15 506.22C591.17 468.51 583.2 406.87 583.2 406.87L514.78 409.74Z" fill="#76C9B3"/>
<path d="M514.78 409.74C515.66 422.74 521.67 450.89 529.35 479.74C548.99 493.4 562.95 474.99 568.71 490.86C577.29 514.5 603.76 547.43 600.93 571.07C599.11 586.32 565.23 590.89 565.23 590.89C565.23 590.89 573.13 593.43 586.7 593.13C595.284 592.764 603.639 590.25 611 585.82C611 585.82 597.13 543.93 594.15 506.22C591.17 468.51 583.2 406.87 583.2 406.87L514.78 409.74Z" fill="#31AE8E"/>
<path d="M549 449.47C549 449.47 592.22 519.23 605.79 539.65C619.36 560.07 641.56 596 641.56 596L678.37 578.54C678.37 578.54 659.74 523.83 645.88 494.91C632.02 465.99 607.29 404.85 607.29 404.85L549 449.47Z" fill="#76C9B3"/>
<path d="M629 457.05C617.83 430.92 607.3 404.87 607.3 404.87L549 449.47C549 449.47 556.35 461.32 565.93 476.69C578.8 467.54 630.6 466.76 629 457.05Z" fill="#31AE8E"/>
<path d="M629.19 576.19C633.1 583.07 641.55 596 641.55 596L678.37 578.54C678.37 578.54 676.69 573.6 673.96 565.91C673.1 569.24 668.44 575.55 658.51 580.91C648.58 586.27 632.24 580.78 629.19 576.19Z" fill="#31AE8E"/>
<path d="M561.47 585.6C561.07 587.39 564.3 596 565.47 597.45C566.64 598.9 575.35 600.98 589.55 599.97C605.42 598.83 613.25 592.91 613.85 590.63C614.45 588.35 612.36 581.06 610.85 579.63C609.34 578.2 601.78 587.57 586.31 588.82C573.32 589.84 561.86 583.81 561.47 585.6Z" fill="#76C9B3"/>
<path d="M634.55 589.44C634.96 591.3 638.98 598.67 640.79 599.5C642.6 600.33 651.54 602.3 665.55 594.25C679.56 586.2 681.55 580.87 681.65 579.3C681.75 577.73 679.86 570.43 678.37 569.91C676.88 569.39 669 579.04 656.5 583.96C644 588.88 634.14 587.54 634.55 589.44Z" fill="#76C9B3"/>
<path d="M538.74 630.28L538.44 620.89C538.44 620.89 552.44 627.71 575.37 628.3C598.3 628.89 614.37 623.13 614.37 623.13L615.37 632.67C615.37 632.67 594.99 638.78 576.21 638.78C557.43 638.78 538.74 630.28 538.74 630.28Z" fill="#E7E6E9"/>
<path d="M644.09 624.32L643.7 634.78C643.7 634.78 653.62 638.47 674.7 638.78C697.01 639.11 704.7 633.46 704.7 633.46L704.19 623C704.19 623 688.91 627.56 674.9 627.86C660.89 628.16 644.09 624.32 644.09 624.32Z" fill="#E7E6E9"/>
<path d="M661.23 606.43C665.23 597.15 678.86 595.89 684.23 604.69C682.1 604.17 680.23 603.37 678.15 603.05C672.15 601.71 666.72 603.79 661.27 606.43H661.23Z" fill="#FCFCFC"/>
<path d="M561.43 602.46C565.3 600.1 570.2 603.64 571.13 607.57C571.476 608.884 571.452 610.269 571.06 611.57C570.081 610.797 569.171 609.94 568.34 609.01C566.271 606.583 563.955 604.378 561.43 602.43V602.46Z" fill="#FCFCFC"/>
<path d="M552 605.46C554.94 604.13 558.38 605.85 560.21 608.23C561.583 610.026 562.274 612.252 562.16 614.51C561.78 617.08 561.79 617.14 560.27 615.05C557.59 611.5 555.6 608.28 552 605.46Z" fill="#FCFCFC"/>
<path d="M545.4 318.88C530.2 325.74 473.11 387.88 474.9 413.24C476.69 438.6 517.61 434.11 517.61 434.11C517.61 434.11 512.12 456.47 518.7 462.11C525.28 467.75 544.07 468.22 544.7 466.73C545.33 465.24 547.98 449.44 547.98 449.44C547.98 449.44 549.56 464.9 550.85 466.98C552.14 469.06 602.85 467.77 611.63 457.34C620.41 446.91 621.63 434.98 620.57 414.85C619.51 394.72 613.12 311.85 595.01 305.96C576.9 300.07 564.19 310.41 545.4 318.88Z" fill="#485EF0"/>
<path d="M541.45 311.95C542.471 316.81 544.803 321.298 548.193 324.928C551.582 328.557 555.901 331.19 560.68 332.54C577.45 337.46 595.12 319.35 589.31 307.27C583.5 295.19 576.78 292.27 575.15 272.62C573.52 252.97 533.4 287.13 541.45 311.95Z" fill="#F7B59C"/>
<path d="M541.45 311.95C541.45 311.95 545.93 335.09 548.27 336.83C552.91 340.25 550.43 339.13 554.73 331.7C563.47 316.6 572.43 281.39 572.14 280.09C571.59 277.56 575.43 276 575.14 272.6C573.51 252.93 533.4 287.13 541.45 311.95Z" fill="#D88A6A"/>
<path d="M603.77 354.99C605.29 366.93 600.39 383.84 590.44 392.11C580.49 400.38 561.88 407.32 550.81 410.89C539.74 414.46 581.81 426.89 604.01 415.48C626.21 404.07 627.19 361.25 603.77 354.99Z" fill="#2F44CC"/>
<path d="M557.22 322.12C557.22 322.12 552.08 356 550.17 373.55C548.26 391.1 546.49 424.42 546.49 424.42H551.49C551.49 424.42 550.84 383.28 552.49 371.09C554.14 358.9 563.26 322.68 563.26 322.68L557.22 322.12Z" fill="#2F44CC"/>
<path d="M566.12 414.14C566.12 414.14 543.91 406.09 536.2 409.66C528.49 413.23 517.61 431.03 517.61 431.03C517.61 431.03 552.3 434.71 570.86 429.68C589.42 424.65 566.12 414.14 566.12 414.14Z" fill="#F7B59C"/>
<path d="M512.27 413.54C512.27 413.54 520.83 375.08 526.21 361.21C530.21 350.94 519.97 419.67 515.3 419.44C510.63 419.21 513.06 415.67 512.27 413.54Z" fill="#2F44CC"/>
<path d="M594.83 305.94C608.14 306.42 634.13 311.33 657.06 368.82C671.37 404.7 608.46 400.57 609.65 382.24C610.84 363.91 605.78 357.49 602.05 352.72C598.32 347.95 584.91 305.59 594.83 305.94Z" fill="#485EF0"/>
<path d="M581.74 402.36C581.74 402.36 565.86 406.79 564.11 412.2C562.36 417.61 563 430.54 570.45 431.54C577.9 432.54 595.08 424.68 595.08 424.68L581.74 402.36Z" fill="#485EF0"/>
<path d="M581.74 402.36C581.74 402.36 579 403.13 575.67 404.41C570.98 406.21 571.92 427.94 581.79 429.78C586.315 428.353 590.752 426.663 595.08 424.72L581.74 402.36Z" fill="#2F44CC"/>
<path d="M559.94 320.11C566.656 319.436 572.874 316.263 577.36 311.22C584.96 302.73 583.67 297.67 583.67 297.67C583.67 297.67 594.75 302.67 594.83 305.02C594.91 307.37 595.23 320.39 586.25 331.18C577.03 342.25 564.25 345.63 562.25 344.07C558.06 340.74 559.94 320.11 559.94 320.11Z" fill="#2F44CC"/>
<path d="M559.94 320.11C559.94 320.11 548.39 321.23 545.94 319.89C543.49 318.55 540.4 319.96 541.54 325.2C543.7 335.2 550.19 343.71 552.54 342.73C555.69 341.43 560.83 322.09 559.94 320.11Z" fill="#2F44CC"/>
<path d="M559.94 320.11C566.656 319.436 572.874 316.263 577.36 311.22C584.96 302.73 583.67 297.67 583.67 297.67C583.67 297.67 594.75 302.67 594.83 305.02C594.91 307.37 593.83 318.82 583.6 328.44C573.54 337.91 563.94 339.21 561.75 338.02C559.39 336.74 559.94 320.11 559.94 320.11Z" fill="#485EF0"/>
<path d="M559.94 320.11C559.94 320.11 548.8 321.05 542.43 316.31C540.18 314.64 539.43 320.31 541.53 325.2C543.63 330.09 550.18 338.92 552.53 337.94C555.69 336.64 560.83 322.09 559.94 320.11Z" fill="#485EF0"/>
<path d="M659.18 377.02C661.11 391.42 656.39 416.26 622.73 426.43C589.07 436.6 582.1 424.06 579.91 419.5C577.72 414.94 573.21 403.94 583.72 396.01C594.23 388.08 655.37 348.73 659.18 377.02Z" fill="#485EF0"/>
<path d="M520 235.81C512.64 243.7 511.42 267.81 515.13 276.23C518.84 284.65 514.83 299.17 524.95 308.65C535.07 318.13 545.89 318.6 556.63 309.26C567.37 299.92 580.08 273.26 578.68 252.03C577.28 230.8 531.93 223 520 235.81Z" fill="#F7B59C"/>
<path d="M520 235.81C515.66 240.46 513.45 250.76 513.14 260.16C513.14 260.93 532.38 265.78 549.28 251.86C551.75 249.86 557.07 251.86 559.82 256.23C563.17 261.55 564.59 269.9 569.31 270.45C571.87 270.74 574.8 266.45 577.99 262.71C581.52 258.54 578.99 257.15 578.68 252.03C577.24 230.79 531.93 223 520 235.81Z" fill="#D37B57"/>
<path d="M556.25 245.03C556.25 245.03 548.67 255.38 522.97 258.83C500.54 261.83 495.13 251.64 495.32 245.76C495.55 238.96 502.46 236.66 502.46 236.66C502.46 236.66 486.1 218.94 504.4 209.14C524.4 198.42 547.01 223.82 555.4 222.14C567.04 219.77 584.88 220.14 587.56 238.74C590.37 258.29 582.01 263.36 575.3 264.91C568.59 266.46 559.25 258.8 556.25 245.03Z" fill="#873A1C"/>
<path d="M540.12 260.91C538.93 263.12 546.97 266.91 552.92 266.91C558.87 266.91 545 251.88 540.12 260.91Z" fill="#873A1C"/>
<path d="M518.78 264.27C521.63 266.54 515.46 270.47 513.01 271.42C510.56 272.37 511.05 258.1 518.78 264.27Z" fill="#873A1C"/>
<path d="M543.333 281.188C544.669 281.056 545.6 279.421 545.414 277.536C545.228 275.65 543.994 274.229 542.659 274.361C541.323 274.493 540.392 276.128 540.578 278.013C540.764 279.898 541.998 281.32 543.333 281.188Z" fill="#0C0E26"/>
<path d="M522.792 283.217C523.985 283.099 524.801 281.475 524.614 279.59C524.428 277.705 523.311 276.272 522.118 276.39C520.925 276.508 520.109 278.131 520.295 280.017C520.482 281.902 521.599 283.335 522.792 283.217Z" fill="#0C0E26"/>
<path d="M530.9 270.17C530.9 270.17 524.74 289.11 529.9 292.87C534.01 295.87 537.9 290.6 537.9 290.6C537.9 290.6 533.27 292.66 530.9 290.32C528.22 287.68 530.9 270.17 530.9 270.17Z" fill="#CF6C44"/>
<path d="M535.53 275.02C534.7 278.76 536.07 284.02 539.53 285.26C542.99 286.5 554.34 284.62 556.16 281.87C557.98 279.12 557.92 271.4 555.1 270.31C552.28 269.22 536.36 271.24 535.53 275.02Z" stroke="#0C0E26" stroke-width="2" stroke-miterlimit="10"/>
<path d="M526.38 274.75C528.06 276.33 527.56 284.61 526.46 285.96C525.36 287.31 516.07 287.81 514.52 285.6C512.97 283.39 511.52 275.41 513.75 274.19C515.98 272.97 524.16 272.65 526.38 274.75Z" stroke="#0C0E26" stroke-width="2" stroke-miterlimit="10"/>
<path d="M535.54 279.7C535.54 279.7 528.89 276.93 527.47 280.38" stroke="#0C0E26" stroke-width="2" stroke-miterlimit="10"/>
<path d="M529.27 299.78C533.44 299.44 537.74 298.78 541.35 296.87C544.703 294.753 547.672 292.082 550.13 288.97C550.64 288.73 551.49 287.97 551.93 288.78C552.73 293.25 553.81 298.78 550 302.3C543.85 307.3 534.68 304.49 529.27 299.78ZM529.27 299.78C534.44 301.34 540.34 302.72 545.27 300.53C547.277 299.599 548.876 297.969 549.767 295.944C550.658 293.919 550.78 291.638 550.11 289.53H551.99C551.06 293.72 547.8 296.74 544.31 298.87C539.72 301.45 534.07 301.43 529.26 299.76L529.27 299.78Z" fill="#CF6C44"/>
<path d="M529.27 299.78C529.27 299.78 538.16 301.29 544.05 297.11C549.94 292.93 551.05 289.26 551.05 289.26C551.05 289.26 553.5 298 547.49 301.6C539.88 306.17 529.27 299.78 529.27 299.78Z" fill="#FCFCFC"/>
<path d="M531.18 297.67C529.55 299.29 529.4 300.75 529.87 302.81C529.406 302.475 529.053 302.009 528.857 301.471C528.662 300.933 528.633 300.348 528.774 299.794C528.916 299.239 529.221 298.74 529.65 298.361C530.079 297.982 530.612 297.741 531.18 297.67Z" fill="#CF6C44"/>
<path d="M547.73 289.26C548.125 288.644 548.704 288.169 549.385 287.901C550.066 287.634 550.814 287.588 551.522 287.769C552.231 287.951 552.864 288.351 553.332 288.913C553.8 289.475 554.079 290.17 554.13 290.9C553.23 290.172 552.217 289.598 551.13 289.2C550.003 288.966 548.838 288.987 547.72 289.26H547.73Z" fill="#CF6C44"/>
<path d="M557.58 274.62C557.58 274.62 569.98 264.22 577.32 262.2" stroke="#0C0E26" stroke-width="2" stroke-miterlimit="10"/>
<path d="M569.07 267.14C571.82 262.14 577.72 256.27 582.24 260.73C586.76 265.19 580.78 283.81 572.49 281.2C564.2 278.59 567.13 270.71 569.07 267.14Z" fill="#F7B59C"/>
<path d="M578.7 266.91C580.92 270.38 578.54 276.49 573.96 275.8C577.15 273.59 577.71 270.61 578.7 266.91Z" fill="#CF6C44"/>
<path d="M422.81 364.77L516.81 360.99C517.658 360.957 518.499 361.161 519.237 361.58C519.976 361.998 520.583 362.615 520.99 363.36L556.59 429.09C556.847 429.573 557.232 429.977 557.703 430.257C558.174 430.538 558.712 430.684 559.26 430.68H621.66C622.137 430.68 622.595 430.869 622.933 431.207C623.27 431.545 623.46 432.002 623.46 432.48V434.93C623.46 435.408 623.271 435.867 622.933 436.206C622.596 436.545 622.138 436.737 621.66 436.74H464.35C463.838 436.741 463.333 436.612 462.885 436.363C462.437 436.115 462.06 435.755 461.79 435.32L420.36 369.41C420.067 368.962 419.9 368.443 419.875 367.908C419.85 367.374 419.969 366.842 420.219 366.368C420.469 365.895 420.841 365.497 421.297 365.216C421.752 364.935 422.275 364.781 422.81 364.77Z" fill="#7E7C89"/>
<path d="M621.62 430.68H458.87L461.79 435.32C462.06 435.756 462.437 436.115 462.885 436.363C463.333 436.612 463.838 436.742 464.35 436.74H621.62C622.098 436.737 622.556 436.545 622.893 436.206C623.231 435.867 623.42 435.408 623.42 434.93V432.48C623.42 432.003 623.23 431.545 622.893 431.207C622.555 430.87 622.097 430.68 621.62 430.68Z" fill="#AEADB6"/>
<path d="M494.046 399.971C495.499 396.075 493.081 391.575 488.647 389.922C484.212 388.268 479.439 390.086 477.986 393.983C476.533 397.88 478.95 402.379 483.385 404.033C487.82 405.686 492.593 403.868 494.046 399.971Z" fill="#FCFCFC"/>
<path d="M528.4 436.74H493.64C493.476 434.847 493.652 432.941 494.16 431.11C494.23 430.82 494.32 430.52 494.41 430.24C496.15 424.76 500.09 421.35 503.19 422.59C504.64 423.18 505.65 424.69 506.13 426.7C506.485 426.327 506.914 426.033 507.389 425.835C507.864 425.637 508.375 425.54 508.89 425.55C510.39 425.67 511.61 426.96 512.32 428.9C513.63 426.7 515.42 425.39 517.12 425.65C519.04 425.94 520.33 428.15 520.58 431.11C520.62 431.703 520.62 432.297 520.58 432.89C521.15 432.222 521.798 431.624 522.51 431.11C524.16 429.95 525.9 429.53 527.2 430.18C527.631 430.389 527.997 430.71 528.26 431.11C529.18 432.38 529.22 434.54 528.4 436.74Z" fill="#555667"/>
<path d="M524.23 429.68C522.4 428.68 519.7 429.98 517.62 432.6C517.8 428.48 516.42 425.17 514.13 424.8C512.42 424.52 510.64 425.93 509.32 428.3C508.61 426.21 507.4 424.82 505.9 424.7C505.376 424.689 504.856 424.793 504.378 425.005C503.899 425.218 503.473 425.534 503.13 425.93C502.65 423.77 501.64 422.14 500.19 421.51C497.09 420.17 493.19 423.85 491.41 429.74C489.63 435.63 490.75 441.5 493.85 442.84C495.55 443.58 497.49 442.84 499.19 440.99C499.335 440.841 499.512 440.728 499.708 440.66C499.904 440.591 500.113 440.568 500.319 440.593C500.525 440.618 500.723 440.691 500.896 440.805C501.07 440.919 501.215 441.071 501.32 441.25C501.519 441.811 501.87 442.306 502.333 442.68C502.797 443.054 503.355 443.292 503.946 443.367C504.536 443.443 505.136 443.353 505.679 443.108C506.222 442.863 506.686 442.473 507.02 441.98C507.151 441.842 507.312 441.734 507.489 441.664C507.667 441.594 507.857 441.563 508.048 441.575C508.238 441.586 508.424 441.639 508.592 441.73C508.76 441.821 508.906 441.947 509.02 442.1C509.473 442.719 510.146 443.141 510.9 443.28C511.377 443.332 511.86 443.285 512.318 443.14C512.776 442.995 513.199 442.757 513.56 442.44C513.708 442.315 513.882 442.224 514.07 442.174C514.257 442.124 514.454 442.116 514.645 442.15C514.836 442.185 515.017 442.261 515.175 442.373C515.333 442.485 515.465 442.631 515.56 442.8C515.817 443.223 516.183 443.568 516.62 443.8C518.87 445 522.42 442.8 524.54 438.9C526.66 435 526.48 430.87 524.23 429.68Z" fill="#F7B59C"/>
</g>
<defs>
<clipPath id="clip0_131_6076">
<rect width="945" height="639" fill="white"/>
</clipPath>
<clipPath id="clip1_131_6076">
<rect width="705" height="558" fill="white" transform="translate(0 81)"/>
</clipPath>
</defs>
</svg>
