<svg width="705" height="558" viewBox="0 0 705 558" fill="none" xmlns="http://www.w3.org/2000/svg">
<g clip-path="url(#clip0_285_3278)">
<path d="M590.92 9.63989H266.57V322.91H590.92V9.63989Z" fill="#E7E6E9"/>
<path d="M570.92 29.6399H286.57V334.45H570.92V29.6399Z" fill="#FCFCFC"/>
<path d="M292.57 29.6399H286.57V334.45H292.57V29.6399Z" fill="#D6D6DA"/>
<path d="M266.57 9.63989H590.93L596.93 3.63989H276.57L266.57 9.63989Z" fill="#F3F3F4"/>
<path d="M590.93 322.91L596.93 316.91V3.63989L590.93 9.63989V322.91Z" fill="#D6D6DA"/>
<path d="M618.13 57.2799H449.61V20.8799H618.13L604.13 39.0799L618.13 57.2799Z" fill="#E35032"/>
<path d="M460.08 36.8398L460.54 35.1198H462.64L463.75 30.9798H465.75L464.64 35.1198H466.34L467.43 30.9798H469.43L468.33 35.1198H470.39L470 36.8398H468L467.18 39.8398H469.26L468.75 41.5398H466.67L465.56 45.6398H463.56L464.65 41.5398H462.97L461.86 45.6398H459.86L460.9 41.5398H458.82L459.28 39.8198H461.36L462.18 36.8198L460.08 36.8398ZM463.42 39.8398H465.08L465.92 36.8398H464.21L463.42 39.8398ZM473.9 33.2298C474.441 33.1195 474.937 32.8475 475.32 32.4498C475.593 32.1442 475.789 31.7771 475.89 31.3798C475.959 31.1898 476.003 30.9914 476.02 30.7898H478.43V45.6598H475.43V35.4098H471.92V33.4098C472.583 33.3939 473.245 33.3337 473.9 33.2298V33.2298ZM501.63 34.4698C501.684 35.1099 501.536 35.7509 501.206 36.3019C500.875 36.8529 500.38 37.286 499.79 37.5398C500.504 37.7825 501.122 38.2489 501.55 38.8698C501.949 39.5399 502.147 40.3105 502.12 41.0898C502.138 41.9384 501.905 42.7735 501.45 43.4898C501.169 43.9486 500.806 44.3519 500.38 44.6798C499.872 45.0677 499.279 45.3283 498.65 45.4398C497.946 45.5844 497.229 45.6547 496.51 45.6498H489.67V30.5398H497C498.87 30.5398 500.18 31.1098 500.95 32.1598C501.418 32.8373 501.656 33.6469 501.63 34.4698V34.4698ZM498 36.1298C498.213 35.9844 498.382 35.7837 498.49 35.5494C498.597 35.3151 498.639 35.056 498.61 34.7998C498.646 34.5114 498.585 34.2193 498.436 33.9695C498.288 33.7197 498.06 33.5263 497.79 33.4198C497.209 33.2305 496.6 33.1425 495.99 33.1598H492.67V36.5398H496.39C496.954 36.5537 497.511 36.4119 498 36.1298V36.1298ZM497.94 42.7598C498.277 42.5815 498.553 42.3059 498.731 41.9688C498.909 41.6318 498.982 41.2488 498.94 40.8698C498.963 40.5293 498.878 40.1902 498.699 39.8999C498.52 39.6095 498.255 39.3822 497.94 39.2498C497.447 39.0824 496.93 38.9979 496.41 38.9998H492.65V42.9998H496.37C496.905 43.0419 497.442 42.9598 497.94 42.7598V42.7598ZM513.29 36.3598C513.75 37.0539 514.044 37.8442 514.15 38.6698C514.23 39.4003 514.26 40.1353 514.24 40.8698H506.59C506.564 41.3199 506.645 41.7699 506.828 42.1821C507.01 42.5944 507.289 42.957 507.64 43.2398C508.075 43.5287 508.588 43.6754 509.11 43.6598C509.647 43.6727 510.17 43.4876 510.58 43.1398C510.804 42.923 510.984 42.6649 511.11 42.3798H514.11C513.966 43.1359 513.601 43.832 513.06 44.3798C512.558 44.935 511.939 45.3706 511.246 45.6545C510.554 45.9383 509.807 46.0632 509.06 46.0198C507.678 46.0354 506.339 45.5404 505.3 44.6298C504.21 43.7298 503.66 42.2198 503.66 40.1598C503.554 38.542 504.081 36.9463 505.13 35.7098C505.628 35.1936 506.232 34.7908 506.9 34.5285C507.567 34.2662 508.284 34.1507 509 34.1898C509.866 34.1745 510.724 34.3557 511.51 34.7198C512.252 35.0785 512.872 35.6492 513.29 36.3598V36.3598ZM506.68 38.9598H511.21C511.211 38.307 510.964 37.6781 510.52 37.1998C510.098 36.7972 509.533 36.5779 508.95 36.5898C508.655 36.5748 508.36 36.6252 508.087 36.7376C507.814 36.85 507.569 37.0215 507.37 37.2398C506.964 37.726 506.723 38.328 506.68 38.9598V38.9598ZM518.88 43.1998C519.443 43.6514 520.162 43.8633 520.88 43.7898C521.358 43.812 521.835 43.7194 522.27 43.5198C522.419 43.4581 522.545 43.352 522.63 43.2159C522.716 43.0799 522.758 42.9205 522.75 42.7598C522.761 42.6084 522.73 42.4568 522.659 42.3224C522.588 42.1881 522.481 42.0763 522.35 41.9998C521.377 41.6221 520.373 41.3277 519.35 41.1198C518.377 40.9362 517.458 40.5364 516.66 39.9498C516.398 39.6893 516.193 39.3768 516.058 39.0323C515.924 38.6879 515.863 38.3192 515.88 37.9498C515.883 37.4438 515.993 36.9442 516.204 36.484C516.414 36.0238 516.72 35.6134 517.1 35.2798C518.066 34.5057 519.284 34.1173 520.52 34.1898C521.717 34.1429 522.904 34.4266 523.95 35.0098C524.406 35.3452 524.777 35.7816 525.036 36.2847C525.294 36.7879 525.433 37.3442 525.44 37.9098H522.52C522.497 37.5863 522.387 37.2751 522.2 37.0098C521.99 36.7955 521.734 36.6312 521.452 36.529C521.17 36.4269 520.869 36.3896 520.57 36.4198C520.101 36.3816 519.632 36.4824 519.22 36.7098C519.097 36.7819 518.994 36.8838 518.92 37.0061C518.847 37.1284 518.806 37.2673 518.8 37.4098C518.791 37.5618 518.828 37.713 518.906 37.8434C518.985 37.9738 519.101 38.0772 519.24 38.1398C520.232 38.4989 521.252 38.7733 522.29 38.9598C523.252 39.1325 524.15 39.5608 524.89 40.1998C525.171 40.4716 525.392 40.7984 525.54 41.1598C525.688 41.5213 525.759 41.9094 525.75 42.2998C525.767 42.8167 525.664 43.3305 525.449 43.8008C525.234 44.2711 524.912 44.6849 524.51 45.0098C523.39 45.7743 522.041 46.1276 520.69 46.0098C519.304 46.117 517.926 45.7192 516.81 44.8898C516.402 44.5421 516.077 44.1074 515.859 43.6177C515.641 43.128 515.535 42.5957 515.55 42.0598H518.55C518.542 42.4645 518.657 42.862 518.88 43.1998V43.1998ZM528.29 31.4598H531.18V34.5898H533V36.6698H531.17V42.5398C531.139 42.8371 531.198 43.1369 531.34 43.3998C531.674 43.5539 532.044 43.6127 532.41 43.5698C532.51 43.5798 532.61 43.5798 532.71 43.5698H533V45.7498H531.61C531.115 45.8349 530.607 45.8157 530.12 45.6935C529.633 45.5712 529.176 45.3486 528.78 45.0398C528.597 44.8284 528.458 44.5821 528.372 44.3158C528.286 44.0495 528.255 43.7685 528.28 43.4898V36.6698H526.72V34.5898H528.28L528.29 31.4598ZM543.8 42.5398C544.144 42.8774 544.557 43.1349 545.012 43.2939C545.467 43.453 545.951 43.5096 546.43 43.4598C547.05 43.4812 547.669 43.3967 548.26 43.2098C548.645 43.1124 548.985 42.8872 549.225 42.571C549.465 42.2548 549.59 41.8665 549.58 41.4698C549.587 41.2357 549.53 41.004 549.416 40.7996C549.301 40.5953 549.133 40.4259 548.93 40.3098C548.277 39.9687 547.575 39.7293 546.85 39.5998L545.25 39.2398C544.11 39.0477 543.01 38.6622 542 38.0998C541.488 37.7279 541.078 37.2317 540.811 36.6578C540.543 36.084 540.426 35.4515 540.47 34.8198C540.463 34.1789 540.596 33.5442 540.86 32.9602C541.125 32.3763 541.514 31.8574 542 31.4398C543.221 30.4669 544.763 29.9885 546.32 30.0998C547.782 30.0569 549.217 30.5 550.4 31.3598C550.964 31.7922 551.417 32.352 551.723 32.9934C552.029 33.6348 552.179 34.3395 552.16 35.0498H549.16C549.165 34.6379 549.056 34.2327 548.844 33.8795C548.632 33.5263 548.326 33.239 547.96 33.0498C547.389 32.7804 546.761 32.6502 546.13 32.6698C545.443 32.6336 544.761 32.8118 544.18 33.1798C543.948 33.321 543.757 33.5212 543.627 33.7601C543.497 33.9989 543.432 34.268 543.44 34.5398C543.435 34.7925 543.501 35.0414 543.633 35.2575C543.764 35.4735 543.953 35.6478 544.18 35.7598C544.804 36.0434 545.458 36.2547 546.13 36.3898L548.74 36.9998C549.668 37.186 550.547 37.5641 551.32 38.1098C551.777 38.479 552.139 38.9521 552.375 39.4897C552.612 40.0272 552.716 40.6136 552.68 41.1998C552.692 41.8513 552.558 42.4971 552.286 43.0893C552.014 43.6814 551.612 44.2046 551.11 44.6198C549.829 45.6149 548.229 46.1091 546.61 46.0098C544.953 46.0938 543.316 45.6106 541.97 44.6398C541.415 44.204 540.973 43.6414 540.681 42.9993C540.388 42.3573 540.254 41.6544 540.29 40.9498H543.29C543.313 41.5162 543.489 42.0658 543.8 42.5398V42.5398ZM563.48 36.3498C563.935 37.0461 564.229 37.8353 564.34 38.6598C564.42 39.3903 564.45 40.1253 564.43 40.8598H556.78C556.754 41.3099 556.835 41.7599 557.018 42.1721C557.2 42.5844 557.479 42.947 557.83 43.2298C558.265 43.5187 558.778 43.6654 559.3 43.6498C559.837 43.6627 560.36 43.4776 560.77 43.1298C560.994 42.913 561.174 42.6549 561.3 42.3698H564.3C564.149 43.1235 563.785 43.8179 563.25 44.3698C562.748 44.925 562.129 45.3606 561.436 45.6445C560.744 45.9283 559.997 46.0532 559.25 46.0098C557.868 46.0254 556.529 45.5304 555.49 44.6198C554.4 43.7198 553.85 42.2098 553.85 40.1498C553.744 38.532 554.271 36.9363 555.32 35.6998C555.811 35.1866 556.405 34.7837 557.064 34.5182C557.723 34.2527 558.43 34.1305 559.14 34.1598C560.009 34.1437 560.871 34.3249 561.66 34.6898C562.421 35.0499 563.056 35.6321 563.48 36.3598V36.3498ZM556.87 38.9498H561.4C561.401 38.297 561.154 37.6681 560.71 37.1898C560.5 36.9892 560.252 36.8321 559.981 36.7275C559.71 36.6228 559.421 36.5726 559.13 36.5798C558.837 36.5662 558.544 36.6175 558.273 36.7298C558.001 36.8421 557.758 37.0128 557.56 37.2298C557.152 37.7187 556.911 38.3245 556.87 38.9598V38.9498ZM569.38 30.5398V45.6598H566.46V30.5398H569.38ZM575.22 30.5398V45.6598H572.3V30.5398H575.22ZM586.83 36.3598C587.29 37.0539 587.584 37.8442 587.69 38.6698C587.775 39.3999 587.805 40.1353 587.78 40.8698H580.13C580.106 41.3196 580.189 41.7688 580.371 42.1806C580.554 42.5925 580.831 42.9554 581.18 43.2398C581.615 43.5275 582.128 43.6741 582.65 43.6598C583.187 43.6727 583.71 43.4876 584.12 43.1398C584.344 42.923 584.524 42.6649 584.65 42.3798H587.65C587.52 43.1302 587.172 43.8257 586.65 44.3798C586.148 44.935 585.529 45.3706 584.836 45.6545C584.144 45.9383 583.397 46.0632 582.65 46.0198C581.268 46.0354 579.929 45.5404 578.89 44.6298C577.8 43.7298 577.26 42.2198 577.26 40.1598C577.152 38.5433 577.675 36.9479 578.72 35.7098C579.212 35.1953 579.808 34.7917 580.469 34.5261C581.129 34.2605 581.839 34.1391 582.55 34.1698C583.419 34.1558 584.28 34.3369 585.07 34.6998C585.807 35.0685 586.419 35.6458 586.83 36.3598ZM580.22 38.9598H584.75C584.751 38.307 584.504 37.6781 584.06 37.1998C583.852 36.9996 583.605 36.8425 583.336 36.7378C583.067 36.6332 582.779 36.5828 582.49 36.5898C582.195 36.5748 581.9 36.6252 581.627 36.7376C581.354 36.85 581.109 37.0215 580.91 37.2398C580.504 37.726 580.263 38.328 580.22 38.9598ZM596.22 34.2398V37.2398C596.03 37.2398 595.86 37.2398 595.71 37.2398C595.6 37.2315 595.49 37.2315 595.38 37.2398C594.92 37.169 594.45 37.2345 594.027 37.4282C593.604 37.6219 593.247 37.9354 593 38.3298C592.731 38.9605 592.614 39.6457 592.66 40.3298V45.6698H589.66V34.5398H592.45V36.4398C592.757 35.8688 593.156 35.352 593.63 34.9098C594.235 34.4249 594.995 34.1762 595.77 34.2098H596C596 34.2098 596.07 34.2398 596.22 34.2398V34.2398Z" fill="#FCFCFC"/>
<path d="M352.22 262.26C352.22 262.26 363.22 213.26 406.9 160.69C450.58 108.12 498.73 89.1299 498.73 89.1299" stroke="#FFA733" stroke-width="2" stroke-linecap="round" stroke-linejoin="round"/>
<path d="M481.23 83.76L498.73 89.14L493.35 106.64" stroke="#FFA733" stroke-width="2" stroke-linecap="round" stroke-linejoin="round"/>
<path d="M444.61 143.36C455.932 143.36 465.11 134.182 465.11 122.86C465.11 111.538 455.932 102.36 444.61 102.36C433.288 102.36 424.11 111.538 424.11 122.86C424.11 134.182 433.288 143.36 444.61 143.36Z" fill="#E35032"/>
<path d="M364.78 238.91C370.855 238.91 375.78 233.985 375.78 227.91C375.78 221.835 370.855 216.91 364.78 216.91C358.705 216.91 353.78 221.835 353.78 227.91C353.78 233.985 358.705 238.91 364.78 238.91Z" fill="#FFA733"/>
<path d="M395.28 191.81C404.26 191.81 411.54 184.53 411.54 175.55C411.54 166.57 404.26 159.29 395.28 159.29C386.3 159.29 379.02 166.57 379.02 175.55C379.02 184.53 386.3 191.81 395.28 191.81Z" fill="#FF8933"/>
<path d="M258.69 52.3999C258.69 52.3999 276.1 45.5399 284.59 49.0099C293.08 52.4799 304.94 67.1699 288.51 89.9199C272.08 112.67 229.05 134.54 186.4 104.37C143.75 74.1999 171 39.1199 193 44.3399C210.6 48.5399 258.69 52.3999 258.69 52.3999Z" fill="#0C0E26"/>
<path d="M262.37 63.66C265.62 62.72 278.73 59.94 278.43 65.71C278.06 67.55 276.66 69.4 274.63 69.17C270.26 68.17 269.94 61.83 273.76 59.86C276.55 58.65 279.67 59.61 282.41 60.27C284.22 60.7144 285.934 61.4835 287.47 62.54C285.763 61.9406 283.99 61.5478 282.19 61.37C279.8 61.14 276.86 60.58 274.7 61.5C274.241 61.7657 273.852 62.1368 273.565 62.5827C273.278 63.0285 273.102 63.5363 273.05 64.064C272.998 64.5917 273.073 65.1241 273.267 65.6173C273.462 66.1104 273.772 66.5501 274.17 66.9C274.61 67.24 275.02 67.4 275.48 67.08C275.94 66.76 276.83 65.6 276.37 65.02C275.423 64.3745 274.315 64.0073 273.17 63.96C269.579 63.6498 265.972 63.5663 262.37 63.71V63.66Z" fill="#3D3E51"/>
<path d="M183.88 95.2599C184.615 92.4812 185.815 89.8473 187.43 87.4699C188.093 86.3606 189.133 85.5266 190.36 85.1199C192.13 84.8299 193.22 86.6199 193.36 88.1799C193.46 90.5199 190.52 91.3399 188.75 90.5599C187.89 90.2497 187.155 89.6661 186.659 88.8985C186.162 88.1308 185.93 87.2215 186 86.3099C186.48 83.7999 188.35 82.3899 190 80.8299C191.069 79.8676 192.306 79.1116 193.65 78.5999C192.578 79.4888 191.608 80.4951 190.76 81.5999C189.66 83.0199 188.1 84.7099 187.76 86.3899C187.759 86.9037 187.898 87.4081 188.16 87.8499C188.47 88.3344 188.958 88.678 189.519 88.8069C190.08 88.9359 190.669 88.84 191.16 88.5399C191.42 88.2099 190.98 87.3499 190.73 87.0899C190.48 86.8299 190.29 87.0899 190 87.2699C187.41 89.3699 185.81 92.4899 183.76 95.2699L183.88 95.2599Z" fill="#3D3E51"/>
<path d="M255.39 77.5398C256.245 80.2856 256.63 83.1558 256.53 86.0298C256.552 87.3199 256.112 88.5754 255.29 89.5698C253.94 90.7598 252.07 89.8198 251.12 88.5698C249.79 86.6398 251.86 84.3898 253.77 84.0998C254.661 83.9204 255.586 84.035 256.407 84.4263C257.227 84.8176 257.899 85.4645 258.32 86.2698C259.24 88.6498 258.41 90.8398 257.8 93.0498C257.409 94.4349 256.761 95.7341 255.89 96.8798C256.33 95.5595 256.622 94.1945 256.76 92.8098C256.93 91.0198 257.36 88.8098 256.76 87.1798C256.49 86.7501 256.105 86.4039 255.65 86.1798C255.13 85.9382 254.536 85.9074 253.994 86.0939C253.451 86.2803 253.002 86.6694 252.74 87.1798C252.74 87.5998 253.53 88.0898 253.88 88.1798C254.23 88.2698 254.24 87.9398 254.4 87.6398C255.48 84.4898 255.18 80.9898 255.4 77.5598L255.39 77.5398Z" fill="#3D3E51"/>
<path d="M190.26 68.5398C190.66 71.6598 189.17 76.1898 185.26 75.7398C184.86 75.6398 184.41 75.5498 184.03 75.4198L182.63 74.7498C181.37 74.1098 179.78 73.2298 178.8 74.5998C178.024 76.1862 177.829 77.9946 178.25 79.7098C176.31 77.2898 176.42 71.9098 180.52 72.0098C181.608 72.1103 182.66 72.4519 183.6 73.0098C187.6 75.6798 189.16 71.6698 190.26 68.5498V68.5398Z" fill="#3D3E51"/>
<path d="M263.31 72.5398C268.23 73.9298 278.79 79.7198 271.31 84.9898C269.979 85.9 268.48 86.5358 266.9 86.8598C266.15 87.002 265.374 86.844 264.74 86.4198C264.36 86.0972 264.114 85.6443 264.05 85.1498C264.05 81.7898 267.78 79.6198 270.8 79.5698C276.28 79.6498 279.63 84.9198 281.4 89.4298C280.346 87.8092 279.166 86.2745 277.87 84.8398C274.97 81.4598 269.69 79.6298 266.56 83.5998C266.255 83.9582 266.066 84.4013 266.02 84.8698C266.02 84.8698 266.02 84.8698 266.02 84.8698C266.231 84.9152 266.449 84.9152 266.66 84.8698L267.25 84.7598C277.98 81.3598 268.5 75.6498 263.3 72.5098L263.31 72.5398Z" fill="#3D3E51"/>
<path d="M171.26 63.3299C173.94 60.9299 179.54 57.9899 183.05 60.4499C184.66 61.8499 183.77 64.8899 182.11 65.7999C179.33 66.7999 177.56 63.1399 178.11 60.8899C179.79 55.7099 186.92 57.2799 190.78 58.6199C189.31 58.5599 187.86 58.4599 186.43 58.5099C184.12 58.6599 180.7 58.6999 179.99 61.2899C179.91 61.7945 179.971 62.3113 180.165 62.7839C180.359 63.2565 180.679 63.6667 181.09 63.9699C181.36 64.0899 181.38 63.9699 181.59 63.6799C182.85 61.5099 181.29 61.1799 179.38 61.0899C176.541 61.2084 173.767 61.9746 171.27 63.3299H171.26Z" fill="#3D3E51"/>
<path d="M324.85 105.68C325.38 107.32 383.48 91.78 383.48 91.78C396.203 88.655 408.617 84.3842 420.57 79.02C433.57 73.17 448.79 67.09 448.35 65.73C447.91 64.37 432 68.4 418.06 71.31C405.238 73.9944 392.687 77.8369 380.56 82.79C380.56 82.79 324.31 104.03 324.85 105.68Z" fill="#0C0E26"/>
<path d="M412.84 77.2898C411.75 73.9398 411.91 72.6898 411.91 72.6898C413.84 72.2298 416.12 71.6898 418.06 71.3098C432.06 68.3998 447.91 64.3798 448.35 65.7298C448.79 67.0798 433.58 73.1698 420.57 79.0198C418.65 79.8798 416.72 80.7098 414.78 81.5098C414.78 81.5098 413.93 80.6298 412.84 77.2898Z" fill="#7E7C89"/>
<path d="M445.61 55.5398C443.057 56.3699 440.939 58.1801 439.721 60.5721C438.503 62.9642 438.285 65.7421 439.115 68.2948C439.945 70.8475 441.755 72.9659 444.147 74.1839C446.539 75.402 449.317 75.6199 451.87 74.7898C460.55 71.9698 468.54 64.7898 470.12 50.2798C462.21 62.4598 455.18 52.3998 445.61 55.5398Z" fill="#0C0E26"/>
<path d="M445.61 55.5398C449.16 54.9198 454.74 57.5398 452.95 62.2098C451.49 66.0098 440.18 73.2098 451.87 74.7898C460.55 71.9698 468.54 64.7898 470.12 50.2798C462.21 62.4598 455.18 52.3998 445.61 55.5398Z" fill="#C2381D"/>
<path d="M248.59 368.23L247.59 394.86C247.59 394.86 253.82 406.06 270.44 402.73C287.06 399.4 284.96 389.73 284.96 389.73L275.34 350.24L248.59 368.23Z" fill="#AB593A"/>
<path d="M248.59 368.23L247.94 386.6C247.94 386.6 253.2 388.16 262.81 387.12C269.746 386.177 276.577 384.577 283.21 382.34L275.39 350.26L248.59 368.23Z" fill="#873A1C"/>
<path d="M213.5 359.14C213.5 359.14 201.57 393.09 201.87 401.74C202.17 410.39 161.92 402.63 161.92 402.63L174.15 355.71L213.5 359.14Z" fill="#AB593A"/>
<path d="M213.5 359.14C213.5 359.14 208.24 374.14 204.79 386.72C178.44 387.94 168.09 378.98 168.09 378.98L174.15 355.71L213.5 359.14Z" fill="#873A1C"/>
<path d="M207.93 196.54C207.93 196.54 219.35 294.88 225.93 318.54C232.51 342.2 239.93 380.09 242.64 383.16C245.35 386.23 281.19 381.31 284.03 379.06C286.87 376.81 282.13 320.06 277.84 288.32C273.55 256.58 268.84 190.75 268.84 190.75L207.93 196.54Z" fill="#485EF0"/>
<path d="M207.93 196.54C207.93 196.54 219.35 294.88 225.93 318.54C230.51 334.84 235.45 358 238.93 371.76C240.5 377.93 250.73 360.88 284.27 355.13C283.1 335.27 280.38 307.33 277.81 288.32C273.51 256.53 268.81 190.75 268.81 190.75L207.93 196.54Z" fill="#2F44CC"/>
<path d="M129.32 409.64C129.32 409.64 142.83 391.64 165.32 389.75C172.98 398.75 199.53 399.05 202.69 394.86C205.01 396.16 205.34 411.86 205.34 411.86C205.34 411.86 189.69 422.15 166.43 423.34C159.636 423.718 152.837 422.698 146.453 420.341C140.07 417.985 134.238 414.342 129.32 409.64V409.64Z" fill="#9AA6F7"/>
<path d="M129.32 421.42V409.64C129.32 409.64 143.32 416.45 166.24 417.05C189.16 417.65 205.3 411.87 205.3 411.87L206.3 421.42C206.3 421.42 185.92 428.54 167.14 428.54C148.36 428.54 129.32 421.42 129.32 421.42Z" fill="#E7E6E9"/>
<path d="M156.66 390.42C160.53 388.06 165.43 391.6 166.35 395.53C166.704 396.843 166.684 398.228 166.29 399.53C165.311 398.757 164.401 397.9 163.57 396.97C161.496 394.548 159.181 392.343 156.66 390.39V390.42Z" fill="#FCFCFC"/>
<path d="M147 393.78C149.93 392.45 153.37 394.17 155.2 396.54C156.595 398.331 157.305 400.562 157.2 402.83C156.83 405.39 156.84 405.46 155.31 403.36C152.63 399.81 150.65 396.6 147.05 393.78H147Z" fill="#FCFCFC"/>
<path d="M321 409.64C321 409.64 307.49 391.64 285 389.75C277.35 398.75 250.79 399.05 247.63 394.86C245.31 396.16 244.98 411.86 244.98 411.86C244.98 411.86 260.64 422.15 283.89 423.34C290.684 423.72 297.484 422.7 303.868 420.344C310.251 417.987 316.083 414.344 321 409.64V409.64Z" fill="#E35032"/>
<path d="M321 421.42V409.64C321 409.64 307 416.45 284.08 417.05C261.16 417.65 245 411.87 245 411.87V421.42C245 421.42 264.37 428.54 283.16 428.54C301.95 428.54 321 421.42 321 421.42Z" fill="#DADFFC"/>
<path d="M293.63 390.42C291.107 392.37 288.791 394.575 286.72 397C285.891 397.926 284.98 398.776 284 399.54C283.606 398.238 283.586 396.853 283.94 395.54C284.86 391.61 289.76 388.07 293.63 390.43V390.42Z" fill="#FCFCFC"/>
<path d="M303.29 393.78C299.69 396.6 297.71 399.78 295.03 403.36C293.52 405.43 293.51 405.43 293.14 402.83C293.035 400.562 293.745 398.331 295.14 396.54C296.97 394.16 300.41 392.45 303.34 393.78H303.29Z" fill="#FCFCFC"/>
<path d="M192.86 205.22C192 213.12 183.14 281.35 177.99 310.42C172.84 339.49 165.4 373.11 167 374.82C170.74 378.73 202.89 385.11 208.87 383.76C214.85 382.41 246.87 252.41 251.07 222.05C255.27 191.69 194.36 191.44 192.86 205.22Z" fill="#485EF0"/>
<path d="M192.86 205.22C192.66 207.11 191.99 212.46 191.03 219.91C199.39 219.44 203.71 219.45 199.8 241.55C195.89 263.65 182 330.06 177.65 361.74C176.24 371.93 194.43 365.74 215.17 369.4C226.55 334.49 247.71 246.4 251.11 222.05C255.36 191.69 194.36 191.44 192.86 205.22Z" fill="#2F44CC"/>
<path d="M249 75.1699C249 75.1699 244.83 101.28 244.18 113.41C243.53 125.54 218.66 120.01 218.66 120.01L210.23 87.6399L249 75.1699Z" fill="#873A1C"/>
<path d="M224.77 18.8398C211.27 17.5398 197.86 36.5398 196.19 52.7198C194.52 68.8998 198.99 96.3198 218.31 99.9998C239.48 104 261.15 66.4698 250.98 41.4598C244.51 25.5398 234.64 19.8198 224.77 18.8398Z" fill="#AB593A"/>
<path d="M213.79 53.5398C215.52 58.7698 213.54 64.5398 211.66 69.3698C211.1 71.0598 210.27 72.7698 211.02 74.3698C211.43 75.1201 212.07 75.7191 212.846 76.0791C213.622 76.439 214.492 76.5409 215.33 76.3698C216.614 76.1681 217.84 75.6978 218.93 74.9898C217.16 77.1398 213.83 78.5598 211.16 76.8698C208.02 74.9898 208.69 71.4298 209.78 68.6498C210.78 66.1098 211.78 63.7398 212.57 61.2498C213.364 58.7562 213.775 56.1567 213.79 53.5398V53.5398Z" fill="#873A1C"/>
<path d="M227.853 64.6883C227.967 62.4019 226.95 60.4928 225.58 60.4243C224.21 60.3558 223.007 62.1539 222.893 64.4403C222.779 66.7268 223.796 68.6358 225.166 68.7043C226.536 68.7728 227.739 66.9748 227.853 64.6883Z" fill="#0C0E26"/>
<path d="M207.777 62.4938C208.108 60.2315 207.278 58.2365 205.923 58.0379C204.568 57.8392 203.201 59.5121 202.869 61.7744C202.537 64.0367 203.367 66.0317 204.722 66.2303C206.077 66.429 207.445 64.7561 207.777 62.4938Z" fill="#0C0E26"/>
<path d="M213.13 85.1C218.05 86.37 222.71 85.47 225.8 81.25C226.57 80.4 227.17 79.37 227.92 78.46C227.15 85.91 219.14 90.2 213.13 85.1Z" fill="#873A1C"/>
<path d="M229.31 82.8399C228.966 81.6058 228.327 80.4735 227.45 79.5399C226.44 78.7456 225.295 78.1393 224.07 77.7499C224.788 77.4042 225.595 77.2873 226.381 77.4151C227.168 77.5429 227.896 77.9092 228.468 78.4645C229.04 79.0197 229.427 79.7371 229.578 80.5197C229.728 81.3022 229.635 82.1121 229.31 82.8399Z" fill="#873A1C"/>
<path d="M210.59 47.9698C211.77 49.9698 204.66 53.7098 199.27 53.9698C193.88 54.2298 205.79 40.0098 210.59 47.9698Z" fill="#0C0E26"/>
<path d="M223.41 49.6698C222.01 51.4598 228.59 56.1098 233.9 57.0298C239.21 57.9498 229.17 42.3698 223.41 49.6698Z" fill="#0C0E26"/>
<path d="M231.93 41.9399L255.87 68.8799C255.87 68.8799 267.44 60.8799 267.98 49.9399C268.52 38.9999 231.93 41.9399 231.93 41.9399Z" fill="#0C0E26"/>
<path d="M256.94 55.9C262.32 60.57 254.39 76.22 246.5 73.9C238.61 71.58 248.41 48.54 256.94 55.9Z" fill="#AB593A"/>
<path d="M247.9 67.6399C249.148 67.359 250.311 66.7829 251.29 65.9599C252.149 64.9959 252.826 63.8848 253.29 62.6799C254.63 65.9799 251.14 69.3799 247.94 67.6799L247.9 67.6399Z" fill="#873A1C"/>
<path d="M242.29 11.2198C249.74 13.7698 259.45 17.3698 265.23 26.1298C271.01 34.8898 281 55.8498 259.5 53.0398C238 50.2298 203.07 43.0398 194.95 37.9098C186.83 32.7798 186.85 23.4398 208.09 12.5398C229.33 1.63979 233 8.05979 242.29 11.2198Z" fill="#1AA581"/>
<path d="M262.86 43.4099C266.96 42.0599 272.11 37.4099 265.23 26.1299C271 34.8999 281 55.8499 259.5 53.0399C238 50.2299 203.07 43.0399 194.95 37.9099C189.42 34.3999 187.67 28.9099 193.83 22.3799C189.83 27.9799 193.57 37.2599 206.64 40.7499C222.22 44.9099 253.83 46.3899 262.86 43.4099Z" fill="#128A6B"/>
<path d="M240 12.0699C240 12.0699 243.34 -0.10012 246.32 -0.000119511C249.3 0.0998805 252.82 6.21988 250.8 7.58988C248.78 8.95988 240 12.0699 240 12.0699Z" fill="#1AA581"/>
<path d="M288.68 116.11C288.68 116.11 305.82 125.11 327.29 117.01C348.76 108.91 360.08 98.6698 366.79 90.7698C373.5 82.8698 374.24 73.5398 381.1 72.0998C387.96 70.6598 408.98 72.6598 407.49 73.8198C406 74.9798 382.29 81.6998 387.06 87.7298C391.83 93.7598 398.67 86.3698 400.76 86.6498C402.85 86.9298 395.86 100.02 384.53 102.55C373.2 105.08 352.18 143.24 317.3 151.74C282.42 160.24 269.15 138.91 269.15 138.91L288.68 116.11Z" fill="#AB593A"/>
<path d="M304.55 142.54C328.63 145.74 372.38 109.97 379.09 102.06C385.8 94.1499 382.49 81.6399 388.57 78.1699C395.42 74.2499 408.98 72.6999 407.49 73.8599C406 75.0199 382 81.9899 387.06 87.7299C390.86 91.9899 398.67 86.3699 400.76 86.6499C402.85 86.9299 395.86 100.02 384.53 102.55C373.2 105.08 352.18 143.24 317.3 151.74C282.42 160.24 269.15 138.91 269.15 138.91C269.15 138.91 281.83 139.47 304.55 142.54Z" fill="#873A1C"/>
<path d="M190.29 134.89C179.12 142.7 161.29 159.34 146.02 187.22C138.35 201.22 130.81 229.11 113.37 231.64C95.93 234.17 77 237.46 79.24 239.84C92.65 253.84 116.24 244.46 117.55 250.57C118.86 256.68 113.22 264.43 117.99 263.09C122.76 261.75 132.9 244.01 137.52 237.15C142.14 230.29 182.84 181.25 203.11 168.58C223.38 155.91 202.67 126.25 190.29 134.89Z" fill="#AB593A"/>
<path d="M190.29 134.89C179.12 142.7 182.98 163.81 167.71 191.69C160.04 205.69 136.18 237.38 108.53 244.31C91.43 248.6 77 237.46 79.24 239.84C92.65 253.84 116.24 244.46 117.55 250.57C118.86 256.68 113.22 264.43 117.99 263.09C122.76 261.75 132.9 244.01 137.52 237.15C142.14 230.29 182.84 181.25 203.11 168.58C223.38 155.91 202.67 126.25 190.29 134.89Z" fill="#873A1C"/>
<path d="M224.05 110.15C244.11 103.51 254.39 102.55 271.83 107.47C289.27 112.39 310.74 116.41 313.57 117.01C316.4 117.61 314.93 130.67 309.85 141.9C304.77 153.13 300.6 155.17 297.32 154.72C294.04 154.27 277.5 149.95 277.5 149.95C277.5 149.95 285.55 208.38 267.21 217.18C248.87 225.98 195.58 206.74 193.91 199.89C192.24 193.04 193.91 182.3 193.91 182.3C193.91 182.3 187.46 191.99 185.08 190.94C177.698 187.992 171.149 183.285 166 177.23C158.13 167.94 154.71 163.23 157.15 159.34C159.59 155.45 192.07 120.73 224.05 110.15Z" fill="#DADFFC"/>
<path d="M268 133.95C267.41 133.72 217.05 144.78 207.93 152.45C198.81 160.12 180.2 183.32 177.25 186.97C179.713 188.573 182.337 189.914 185.08 190.97C187.46 191.97 193.91 182.33 193.91 182.33C193.91 182.33 192.23 193.06 193.91 199.92C195.59 206.78 248.91 226 267.21 217.21C285.51 208.42 277.5 149.98 277.5 149.98C277.5 149.98 294.04 154.3 297.32 154.75C300.06 155.12 303.4 153.75 307.38 146.75C303.57 145.48 272.43 135.69 268 133.95Z" fill="#A3AEF7"/>
<path d="M232.78 125.67C252.67 120.86 251.98 104.3 249.16 104.46C241.83 104.89 234.16 106.79 224.05 110.15C216.419 112.797 209.115 116.306 202.28 120.61C200.6 121.65 212.88 130.48 232.78 125.67Z" fill="#A3AEF7"/>
<path d="M251.34 104.37C253.15 105.23 276.04 127.63 282.19 186.21C288.34 244.79 303.24 340.8 301.19 341.92C299.14 343.04 254.31 358.18 231.84 357.75C208.44 357.3 192.71 354.75 191.15 353.03C189.59 351.31 200.15 291.86 202.03 258.77C203.91 225.68 204.62 212.7 202.55 208.57C201.27 206 193.89 206.67 192.82 205.22C191.75 203.77 192.02 195.75 193.23 195.59C194.44 195.43 203.23 199.24 205.4 194.93C207.57 190.62 211.1 171.23 208.64 156.14C206.18 141.05 198.45 124.79 198.92 122.71C199.39 120.63 205.86 116.71 207.08 117.77C208.3 118.83 215.58 140.88 221.61 142.22C227.64 143.56 256.27 134.11 253.53 127.12C250.79 120.13 240.96 107.32 242.13 105.29C243.3 103.26 249.32 103.41 251.34 104.37Z" fill="#76C9B3"/>
<path d="M245.55 153.44C253.55 150.34 258.55 146.23 260.95 147.44C263.35 148.65 269.53 172.44 264.3 178.57C258.59 185.26 247.24 187.9 238.14 185.21C229.04 182.52 224.14 158.66 226.6 157.96C229.06 157.26 236.17 157.07 245.55 153.44Z" fill="#31AE8E"/>
<path d="M246.73 155.32C253.11 152.86 257.09 149.59 258.97 150.59C260.85 151.59 265.79 170.46 261.63 175.33C257.09 180.64 248.08 182.74 240.84 180.6C233.6 178.46 229.71 159.51 231.68 158.95C233.65 158.39 239.28 158.2 246.73 155.32Z" fill="#76C9B3"/>
<path d="M231.1 107.06C220.88 107.06 214.1 101.56 210.34 100.12C206.58 98.6798 205.72 105.34 207 111.54C208.52 118.92 213.93 125.85 229 125.18C249.33 124.27 250.24 95.8098 246.33 99.0398C242.42 102.27 240 107.06 231.1 107.06Z" fill="#DADFFC"/>
<path d="M259.94 253.03C258.94 258.77 253.63 283.17 246.78 296.44C239.93 309.71 234.33 331.17 236.98 328.94C239.63 326.71 253.05 300.61 256.62 288.99C258.93 281.49 261.44 266.14 261.68 257.83C261.82 253.26 260.37 250.66 259.94 253.03Z" fill="#31AE8E"/>
<path d="M269.15 289.66C266.15 291.81 256.99 305.44 258.08 309.19C259.17 312.94 275.54 285.08 269.15 289.66Z" fill="#31AE8E"/>
<path d="M346.52 433.6C399.2 433.6 413.8 460.6 346.52 460.6C282.39 460.6 285.83 447.1 346.52 447.1C406.18 447.1 408.52 487.6 346.52 487.6C286.76 487.6 280.64 474.1 346.52 474.1C407.69 474.1 406.65 514.6 346.52 514.6C281.96 514.6 285.16 501.1 346.52 501.1C407.88 501.1 407 534.1 346.52 534.1C312.79 534.1 302.52 528.61 299.52 526.41" stroke="#1AA581" stroke-width="7" stroke-miterlimit="10" stroke-linecap="round"/>
<path d="M394.94 513.54C392.877 514.651 390.726 515.59 388.51 516.35C388.244 515.609 387.832 514.93 387.3 514.35C383.45 509.92 371.91 505.2 350.9 504.62C355.534 503.38 359.912 501.328 363.83 498.56C377.59 500.28 387.71 504.16 392.58 509.76C393.568 510.883 394.365 512.16 394.94 513.54V513.54Z" fill="#128A6B"/>
<path d="M393.77 487.45C391.638 488.466 389.431 489.318 387.17 490C386.677 489.238 386.103 488.531 385.46 487.89C382.6 484.99 373.74 478.5 351.36 477.68C355.882 476.481 360.16 474.502 364 471.83C375.85 473.66 385 477.46 390.41 482.97C391.747 484.288 392.879 485.798 393.77 487.45V487.45Z" fill="#128A6B"/>
<path d="M346.52 487.59C372.7 487.59 387.41 480.37 391.17 472.02" stroke="#1AA581" stroke-width="7" stroke-miterlimit="10" stroke-linecap="round"/>
<path d="M388.92 501.97C383.05 508.97 368.87 514.59 346.52 514.59" stroke="#1AA581" stroke-width="7" stroke-miterlimit="10" stroke-linecap="round"/>
<path d="M299.38 480.69C300.96 484.81 327.26 485.57 333.06 487.33C324.26 487.84 315.3 487.64 306.75 485.25C304.562 484.705 302.482 483.792 300.6 482.55C300.275 482.346 299.998 482.074 299.787 481.753C299.577 481.432 299.438 481.069 299.38 480.69V480.69Z" fill="#8CD2C0"/>
<path d="M299.38 508.42C299.827 508.972 300.424 509.382 301.1 509.6C303.119 510.296 305.203 510.789 307.32 511.07C315.86 512.5 324.53 512.67 333.06 514.37C324.35 514.94 315.49 514.8 306.99 512.59C304.822 512.082 302.747 511.238 300.84 510.09C300.187 509.705 299.675 509.119 299.38 508.42V508.42Z" fill="#8CD2C0"/>
<path d="M299.56 526.4C310.09 531.21 321.85 531.4 333.06 533.77C322.9 534.47 307.5 533.3 299.56 526.4Z" fill="#8CD2C0"/>
<path d="M346.52 447.09C382 447.09 397.21 461.42 390.66 473.03" stroke="#0F785D" stroke-width="7" stroke-miterlimit="10"/>
<path d="M401.41 430.53H285.51C283.61 430.53 282.07 432.07 282.07 433.97V464.44C282.07 466.34 283.61 467.88 285.51 467.88H401.41C403.31 467.88 404.85 466.34 404.85 464.44V433.97C404.85 432.07 403.31 430.53 401.41 430.53Z" fill="#0F785D"/>
<path d="M461.13 317.62H225.78L160.25 446.88H526.66L461.13 317.62Z" fill="#1AA581"/>
<path d="M526.66 446.88H160.25V453.63H526.66V446.88Z" fill="#128A6B"/>
<path d="M343.46 400.99C368.76 400.99 389.27 396.795 389.27 391.62C389.27 386.445 368.76 382.25 343.46 382.25C318.16 382.25 297.65 386.445 297.65 391.62C297.65 396.795 318.16 400.99 343.46 400.99Z" fill="#0C0E26"/>
<path d="M343.46 393.69C371.87 393.69 394.9 370.66 394.9 342.25C394.9 313.841 371.87 290.81 343.46 290.81C315.05 290.81 292.02 313.841 292.02 342.25C292.02 370.66 315.05 393.69 343.46 393.69Z" fill="#FFA733"/>
<path d="M369.18 386.8C357.364 393.619 343.324 395.466 330.146 391.935C316.969 388.404 305.733 379.784 298.91 367.97C317.57 379.97 341.57 380.24 360.5 370.85C379.43 361.46 392.21 344.65 388 316.54C394.819 328.353 396.668 342.391 393.138 355.567C389.609 368.743 380.991 379.977 369.18 386.8V386.8Z" fill="#DE8712"/>
<path d="M345.43 346.07H284.02V309.67H361.53L345.43 346.07Z" fill="#E35032"/>
<path d="M294.49 325.63L294.95 323.9H297.05L298.16 319.77H300.16L299.04 323.9H300.75L301.84 319.77H303.84L302.75 323.9H304.81L304.35 325.63H302.29L301.47 328.63H303.55L303.09 330.35H301.01L300 334.44H298L299.09 330.35H297.41L296.3 334.44H294.3L295.42 330.35H293.34L293.8 328.63H295.88L296.7 325.63H294.49ZM297.83 328.63H299.48L300.32 325.63H298.62L297.83 328.63ZM307.7 326.53C307.082 326.165 306.591 325.621 306.29 324.97C306.091 324.477 305.983 323.952 305.97 323.42C305.961 322.898 306.066 322.38 306.277 321.901C306.487 321.423 306.799 320.996 307.19 320.65C308.146 319.84 309.38 319.434 310.63 319.52C311.883 319.437 313.119 319.842 314.08 320.65C314.471 320.996 314.783 321.423 314.993 321.901C315.204 322.38 315.309 322.898 315.3 323.42C315.287 323.952 315.179 324.477 314.98 324.97C314.7 325.607 314.199 326.122 313.57 326.42C314.264 326.803 314.839 327.371 315.23 328.06C315.6 328.759 315.789 329.539 315.78 330.33C315.787 330.93 315.667 331.524 315.427 332.074C315.188 332.624 314.834 333.117 314.39 333.52C313.32 334.453 311.927 334.927 310.51 334.84C309.823 334.889 309.134 334.798 308.484 334.571C307.834 334.344 307.237 333.986 306.73 333.52C306.317 333.099 305.992 332.6 305.772 332.053C305.552 331.505 305.443 330.92 305.45 330.33C305.444 329.535 305.648 328.752 306.04 328.06C306.41 327.384 306.994 326.85 307.7 326.54V326.53ZM310.63 332.43C310.922 332.45 311.215 332.406 311.488 332.301C311.761 332.195 312.007 332.031 312.21 331.82C312.58 331.327 312.78 330.727 312.78 330.11C312.78 329.493 312.58 328.893 312.21 328.4C312.001 328.199 311.753 328.043 311.481 327.941C311.209 327.84 310.92 327.795 310.63 327.81C310.344 327.792 310.058 327.835 309.791 327.937C309.524 328.039 309.281 328.197 309.08 328.4C308.87 328.632 308.709 328.904 308.608 329.199C308.506 329.495 308.466 329.808 308.49 330.12C308.451 330.739 308.656 331.349 309.06 331.82C309.262 332.03 309.506 332.193 309.778 332.298C310.049 332.404 310.34 332.449 310.63 332.43V332.43ZM310.63 325.58C310.885 325.59 311.139 325.549 311.377 325.46C311.616 325.371 311.834 325.235 312.02 325.06C312.344 324.698 312.516 324.225 312.5 323.74C312.531 323.487 312.503 323.231 312.42 322.99C312.337 322.749 312.2 322.53 312.02 322.35C311.84 322.17 311.621 322.033 311.38 321.95C311.14 321.867 310.883 321.839 310.63 321.87C310.383 321.857 310.136 321.892 309.902 321.974C309.669 322.057 309.454 322.184 309.27 322.35C309.093 322.533 308.956 322.751 308.87 322.991C308.784 323.231 308.75 323.486 308.77 323.74C308.754 323.983 308.79 324.227 308.877 324.454C308.963 324.682 309.097 324.889 309.27 325.06C309.452 325.229 309.666 325.359 309.9 325.441C310.134 325.524 310.383 325.558 310.63 325.54V325.58ZM319.98 322.01C320.525 321.908 321.025 321.639 321.41 321.24C321.678 320.932 321.87 320.566 321.97 320.17C322.044 319.982 322.088 319.782 322.1 319.58H324.52V334.44H321.52V324.2H318V322.2C318.671 322.193 319.34 322.129 320 322.01H319.98ZM332.39 331.92C332.575 332.107 332.799 332.251 333.046 332.343C333.293 332.435 333.557 332.471 333.82 332.45C334.138 332.47 334.456 332.411 334.746 332.279C335.035 332.146 335.288 331.944 335.48 331.69C335.875 331.126 336.072 330.448 336.04 329.76C336.07 329.085 335.888 328.417 335.52 327.85C335.334 327.587 335.084 327.375 334.793 327.235C334.503 327.095 334.182 327.032 333.86 327.05C333.547 327.042 333.235 327.093 332.94 327.2C332.489 327.358 332.115 327.679 331.89 328.1L329.26 327.98L330.31 319.77H338.5V322.25H332.43L331.89 325.5C332.23 325.274 332.588 325.077 332.96 324.91C333.453 324.748 333.971 324.67 334.49 324.68C335.121 324.661 335.749 324.775 336.332 325.016C336.916 325.256 337.442 325.617 337.876 326.075C338.31 326.533 338.643 327.077 338.852 327.673C339.061 328.268 339.142 328.901 339.09 329.53C339.103 330.875 338.635 332.18 337.77 333.21C337.282 333.768 336.672 334.206 335.986 334.489C335.301 334.772 334.56 334.892 333.82 334.84C332.557 334.886 331.319 334.478 330.33 333.69C329.866 333.291 329.49 332.799 329.226 332.247C328.963 331.694 328.818 331.092 328.8 330.48H331.72C331.78 331.02 332.015 331.526 332.39 331.92V331.92Z" fill="#FCFCFC"/>
<path d="M623.22 327.32C623.22 327.32 630.34 355.79 630.22 366.83C630.1 377.87 597.91 384.42 595.82 375.1C593.73 365.78 623.22 327.32 623.22 327.32Z" fill="#2F44CC"/>
<path d="M600.86 486.97C600.86 486.97 610.7 523.35 610.99 531.97C611.28 540.59 571.04 532.87 571.04 532.87L565.23 485.32L600.86 486.97Z" fill="#F7B59C"/>
<path d="M600.86 486.97C600.86 486.97 606.13 506.48 609.08 520.32C591.93 527.39 569.38 519.24 569.38 519.24L565.23 485.34L600.86 486.97Z" fill="#CF6C44"/>
<path d="M642.6 499.05L653.63 537.96L693.88 528.42L662.57 473.71L642.6 499.05Z" fill="#F7B59C"/>
<path d="M642.6 499.05L651.88 531.79C651.88 531.79 655.38 521.07 666.34 516.99C677.3 512.91 679.72 503.67 679.72 503.67L662.57 473.67L642.6 499.05Z" fill="#CF6C44"/>
<path d="M644.09 543.32C644.09 543.32 646.92 518.58 667.49 515C688.06 511.42 702.06 528.15 704.15 542C706.24 555.85 647.81 553.16 644.09 543.32Z" fill="#1AA581"/>
<path d="M538.44 539.89C538.44 539.89 547.1 522.56 569.55 520.67C585.11 532.09 607.92 528.29 610.16 525.78C612.49 527.07 614.42 542.13 614.42 542.13C614.42 542.13 598.77 552.42 575.52 553.61C568.73 553.979 561.936 552.952 555.558 550.592C549.181 548.233 543.354 544.59 538.44 539.89V539.89Z" fill="#1AA581"/>
<path d="M514.78 328.74C516.27 350.65 532.36 415.87 546.49 454.74C560.62 493.61 565.23 509.89 565.23 509.89C565.23 509.89 573.13 512.43 586.7 512.13C595.284 511.764 603.639 509.25 611 504.82C611 504.82 597.13 462.93 594.15 425.22C591.17 387.51 583.2 325.87 583.2 325.87L514.78 328.74Z" fill="#76C9B3"/>
<path d="M514.78 328.74C515.66 341.74 521.67 369.89 529.35 398.74C548.99 412.4 562.95 393.99 568.71 409.86C577.29 433.5 603.76 466.43 600.93 490.07C599.11 505.32 565.23 509.89 565.23 509.89C565.23 509.89 573.13 512.43 586.7 512.13C595.284 511.764 603.639 509.25 611 504.82C611 504.82 597.13 462.93 594.15 425.22C591.17 387.51 583.2 325.87 583.2 325.87L514.78 328.74Z" fill="#31AE8E"/>
<path d="M549 368.47C549 368.47 592.22 438.23 605.79 458.65C619.36 479.07 641.56 515 641.56 515L678.37 497.54C678.37 497.54 659.74 442.83 645.88 413.91C632.02 384.99 607.29 323.85 607.29 323.85L549 368.47Z" fill="#76C9B3"/>
<path d="M629 376.05C617.83 349.92 607.3 323.87 607.3 323.87L549 368.47C549 368.47 556.35 380.32 565.93 395.69C578.8 386.54 630.6 385.76 629 376.05Z" fill="#31AE8E"/>
<path d="M629.19 495.19C633.1 502.07 641.55 515 641.55 515L678.37 497.54C678.37 497.54 676.69 492.6 673.96 484.91C673.1 488.24 668.44 494.55 658.51 499.91C648.58 505.27 632.24 499.78 629.19 495.19Z" fill="#31AE8E"/>
<path d="M561.47 504.6C561.07 506.39 564.3 515 565.47 516.45C566.64 517.9 575.35 519.98 589.55 518.97C605.42 517.83 613.25 511.91 613.85 509.63C614.45 507.35 612.36 500.06 610.85 498.63C609.34 497.2 601.78 506.57 586.31 507.82C573.32 508.84 561.86 502.81 561.47 504.6Z" fill="#76C9B3"/>
<path d="M634.55 508.44C634.96 510.3 638.98 517.67 640.79 518.5C642.6 519.33 651.54 521.3 665.55 513.25C679.56 505.2 681.55 499.87 681.65 498.3C681.75 496.73 679.86 489.43 678.37 488.91C676.88 488.39 669 498.04 656.5 502.96C644 507.88 634.14 506.54 634.55 508.44Z" fill="#76C9B3"/>
<path d="M538.74 549.28L538.44 539.89C538.44 539.89 552.44 546.71 575.37 547.3C598.3 547.89 614.37 542.13 614.37 542.13L615.37 551.67C615.37 551.67 594.99 557.78 576.21 557.78C557.43 557.78 538.74 549.28 538.74 549.28Z" fill="#E7E6E9"/>
<path d="M644.09 543.32L643.7 553.78C643.7 553.78 653.62 557.47 674.7 557.78C697.01 558.11 704.7 552.46 704.7 552.46L704.19 542C704.19 542 688.91 546.56 674.9 546.86C660.89 547.16 644.09 543.32 644.09 543.32Z" fill="#E7E6E9"/>
<path d="M661.23 525.43C665.23 516.15 678.86 514.89 684.23 523.69C682.1 523.17 680.23 522.37 678.15 522.05C672.15 520.71 666.72 522.79 661.27 525.43H661.23Z" fill="#FCFCFC"/>
<path d="M561.43 521.46C565.3 519.1 570.2 522.64 571.13 526.57C571.476 527.884 571.452 529.269 571.06 530.57C570.081 529.797 569.171 528.94 568.34 528.01C566.271 525.583 563.955 523.378 561.43 521.43V521.46Z" fill="#FCFCFC"/>
<path d="M552 524.46C554.94 523.13 558.38 524.85 560.21 527.23C561.583 529.026 562.274 531.252 562.16 533.51C561.78 536.08 561.79 536.14 560.27 534.05C557.59 530.5 555.6 527.28 552 524.46V524.46Z" fill="#FCFCFC"/>
<path d="M545.4 237.88C530.2 244.74 473.11 306.88 474.9 332.24C476.69 357.6 517.61 353.11 517.61 353.11C517.61 353.11 512.12 375.47 518.7 381.11C525.28 386.75 544.07 387.22 544.7 385.73C545.33 384.24 547.98 368.44 547.98 368.44C547.98 368.44 549.56 383.9 550.85 385.98C552.14 388.06 602.85 386.77 611.63 376.34C620.41 365.91 621.63 353.98 620.57 333.85C619.51 313.72 613.12 230.85 595.01 224.96C576.9 219.07 564.19 229.41 545.4 237.88Z" fill="#485EF0"/>
<path d="M541.45 230.95C542.471 235.81 544.803 240.298 548.193 243.928C551.582 247.557 555.901 250.19 560.68 251.54C577.45 256.46 595.12 238.35 589.31 226.27C583.5 214.19 576.78 211.27 575.15 191.62C573.52 171.97 533.4 206.13 541.45 230.95Z" fill="#F7B59C"/>
<path d="M541.45 230.95C541.45 230.95 545.93 254.09 548.27 255.83C552.91 259.25 550.43 258.13 554.73 250.7C563.47 235.6 572.43 200.39 572.14 199.09C571.59 196.56 575.43 195 575.14 191.6C573.51 171.93 533.4 206.13 541.45 230.95Z" fill="#D88A6A"/>
<path d="M603.77 273.99C605.29 285.93 600.39 302.84 590.44 311.11C580.49 319.38 561.88 326.32 550.81 329.89C539.74 333.46 581.81 345.89 604.01 334.48C626.21 323.07 627.19 280.25 603.77 273.99Z" fill="#2F44CC"/>
<path d="M557.22 241.12C557.22 241.12 552.08 275 550.17 292.55C548.26 310.1 546.49 343.42 546.49 343.42H551.49C551.49 343.42 550.84 302.28 552.49 290.09C554.14 277.9 563.26 241.68 563.26 241.68L557.22 241.12Z" fill="#2F44CC"/>
<path d="M566.12 333.14C566.12 333.14 543.91 325.09 536.2 328.66C528.49 332.23 517.61 350.03 517.61 350.03C517.61 350.03 552.3 353.71 570.86 348.68C589.42 343.65 566.12 333.14 566.12 333.14Z" fill="#F7B59C"/>
<path d="M512.27 332.54C512.27 332.54 520.83 294.08 526.21 280.21C530.21 269.94 519.97 338.67 515.3 338.44C510.63 338.21 513.06 334.67 512.27 332.54Z" fill="#2F44CC"/>
<path d="M594.83 224.94C608.14 225.42 634.13 230.33 657.06 287.82C671.37 323.7 608.46 319.57 609.65 301.24C610.84 282.91 605.78 276.49 602.05 271.72C598.32 266.95 584.91 224.59 594.83 224.94Z" fill="#485EF0"/>
<path d="M581.74 321.36C581.74 321.36 565.86 325.79 564.11 331.2C562.36 336.61 563 349.54 570.45 350.54C577.9 351.54 595.08 343.68 595.08 343.68L581.74 321.36Z" fill="#485EF0"/>
<path d="M581.74 321.36C581.74 321.36 579 322.13 575.67 323.41C570.98 325.21 571.92 346.94 581.79 348.78C586.315 347.353 590.752 345.663 595.08 343.72L581.74 321.36Z" fill="#2F44CC"/>
<path d="M559.94 239.11C566.656 238.436 572.874 235.263 577.36 230.22C584.96 221.73 583.67 216.67 583.67 216.67C583.67 216.67 594.75 221.67 594.83 224.02C594.91 226.37 595.23 239.39 586.25 250.18C577.03 261.25 564.25 264.63 562.25 263.07C558.06 259.74 559.94 239.11 559.94 239.11Z" fill="#2F44CC"/>
<path d="M559.94 239.11C559.94 239.11 548.39 240.23 545.94 238.89C543.49 237.55 540.4 238.96 541.54 244.2C543.7 254.2 550.19 262.71 552.54 261.73C555.69 260.43 560.83 241.09 559.94 239.11Z" fill="#2F44CC"/>
<path d="M559.94 239.11C566.656 238.436 572.874 235.263 577.36 230.22C584.96 221.73 583.67 216.67 583.67 216.67C583.67 216.67 594.75 221.67 594.83 224.02C594.91 226.37 593.83 237.82 583.6 247.44C573.54 256.91 563.94 258.21 561.75 257.02C559.39 255.74 559.94 239.11 559.94 239.11Z" fill="#485EF0"/>
<path d="M559.94 239.11C559.94 239.11 548.8 240.05 542.43 235.31C540.18 233.64 539.43 239.31 541.53 244.2C543.63 249.09 550.18 257.92 552.53 256.94C555.69 255.64 560.83 241.09 559.94 239.11Z" fill="#485EF0"/>
<path d="M659.18 296.02C661.11 310.42 656.39 335.26 622.73 345.43C589.07 355.6 582.1 343.06 579.91 338.5C577.72 333.94 573.21 322.94 583.72 315.01C594.23 307.08 655.37 267.73 659.18 296.02Z" fill="#485EF0"/>
<path d="M520 154.81C512.64 162.7 511.42 186.81 515.13 195.23C518.84 203.65 514.83 218.17 524.95 227.65C535.07 237.13 545.89 237.6 556.63 228.26C567.37 218.92 580.08 192.26 578.68 171.03C577.28 149.8 531.93 142 520 154.81Z" fill="#F7B59C"/>
<path d="M520 154.81C515.66 159.46 513.45 169.76 513.14 179.16C513.14 179.93 532.38 184.78 549.28 170.86C551.75 168.86 557.07 170.86 559.82 175.23C563.17 180.55 564.59 188.9 569.31 189.45C571.87 189.74 574.8 185.45 577.99 181.71C581.52 177.54 578.99 176.15 578.68 171.03C577.24 149.79 531.93 142 520 154.81Z" fill="#D37B57"/>
<path d="M556.25 164.03C556.25 164.03 548.67 174.38 522.97 177.83C500.54 180.83 495.13 170.64 495.32 164.76C495.55 157.96 502.46 155.66 502.46 155.66C502.46 155.66 486.1 137.94 504.4 128.14C524.4 117.42 547.01 142.82 555.4 141.14C567.04 138.77 584.88 139.14 587.56 157.74C590.37 177.29 582.01 182.36 575.3 183.91C568.59 185.46 559.25 177.8 556.25 164.03Z" fill="#873A1C"/>
<path d="M540.12 179.91C538.93 182.12 546.97 185.91 552.92 185.91C558.87 185.91 545 170.88 540.12 179.91Z" fill="#873A1C"/>
<path d="M518.78 183.27C521.63 185.54 515.46 189.47 513.01 190.42C510.56 191.37 511.05 177.1 518.78 183.27Z" fill="#873A1C"/>
<path d="M543.333 200.188C544.669 200.056 545.6 198.421 545.414 196.536C545.228 194.65 543.994 193.229 542.659 193.361C541.323 193.493 540.392 195.128 540.578 197.013C540.764 198.898 541.998 200.32 543.333 200.188Z" fill="#0C0E26"/>
<path d="M522.792 202.217C523.985 202.099 524.801 200.475 524.614 198.59C524.428 196.705 523.311 195.272 522.118 195.39C520.925 195.508 520.109 197.131 520.295 199.017C520.482 200.902 521.599 202.335 522.792 202.217Z" fill="#0C0E26"/>
<path d="M530.9 189.17C530.9 189.17 524.74 208.11 529.9 211.87C534.01 214.87 537.9 209.6 537.9 209.6C537.9 209.6 533.27 211.66 530.9 209.32C528.22 206.68 530.9 189.17 530.9 189.17Z" fill="#CF6C44"/>
<path d="M535.53 194.02C534.7 197.76 536.07 203.02 539.53 204.26C542.99 205.5 554.34 203.62 556.16 200.87C557.98 198.12 557.92 190.4 555.1 189.31C552.28 188.22 536.36 190.24 535.53 194.02Z" stroke="#0C0E26" stroke-width="2" stroke-miterlimit="10"/>
<path d="M526.38 193.75C528.06 195.33 527.56 203.61 526.46 204.96C525.36 206.31 516.07 206.81 514.52 204.6C512.97 202.39 511.52 194.41 513.75 193.19C515.98 191.97 524.16 191.65 526.38 193.75Z" stroke="#0C0E26" stroke-width="2" stroke-miterlimit="10"/>
<path d="M535.54 198.7C535.54 198.7 528.89 195.93 527.47 199.38" stroke="#0C0E26" stroke-width="2" stroke-miterlimit="10"/>
<path d="M529.27 218.78C533.44 218.44 537.74 217.78 541.35 215.87C544.703 213.753 547.672 211.082 550.13 207.97C550.64 207.73 551.49 206.97 551.93 207.78C552.73 212.25 553.81 217.78 550 221.3C543.85 226.3 534.68 223.49 529.27 218.78V218.78ZM529.27 218.78C534.44 220.34 540.34 221.72 545.27 219.53C547.277 218.599 548.876 216.969 549.767 214.944C550.658 212.919 550.78 210.638 550.11 208.53H551.99C551.06 212.72 547.8 215.74 544.31 217.87C539.72 220.45 534.07 220.43 529.26 218.76L529.27 218.78Z" fill="#CF6C44"/>
<path d="M529.27 218.78C529.27 218.78 538.16 220.29 544.05 216.11C549.94 211.93 551.05 208.26 551.05 208.26C551.05 208.26 553.5 217 547.49 220.6C539.88 225.17 529.27 218.78 529.27 218.78Z" fill="#FCFCFC"/>
<path d="M531.18 216.67C529.55 218.29 529.4 219.75 529.87 221.81C529.406 221.475 529.053 221.009 528.857 220.471C528.662 219.933 528.633 219.348 528.774 218.794C528.916 218.239 529.221 217.74 529.65 217.361C530.079 216.982 530.612 216.741 531.18 216.67V216.67Z" fill="#CF6C44"/>
<path d="M547.73 208.26C548.125 207.644 548.704 207.169 549.385 206.901C550.066 206.634 550.814 206.588 551.522 206.769C552.231 206.951 552.864 207.351 553.332 207.913C553.8 208.475 554.079 209.17 554.13 209.9C553.23 209.172 552.217 208.598 551.13 208.2C550.003 207.966 548.838 207.987 547.72 208.26H547.73Z" fill="#CF6C44"/>
<path d="M557.58 193.62C557.58 193.62 569.98 183.22 577.32 181.2" stroke="#0C0E26" stroke-width="2" stroke-miterlimit="10"/>
<path d="M569.07 186.14C571.82 181.14 577.72 175.27 582.24 179.73C586.76 184.19 580.78 202.81 572.49 200.2C564.2 197.59 567.13 189.71 569.07 186.14Z" fill="#F7B59C"/>
<path d="M578.7 185.91C580.92 189.38 578.54 195.49 573.96 194.8C577.15 192.59 577.71 189.61 578.7 185.91Z" fill="#CF6C44"/>
<path d="M422.81 283.77L516.81 279.99C517.658 279.957 518.499 280.161 519.237 280.58C519.976 280.998 520.583 281.615 520.99 282.36L556.59 348.09C556.847 348.573 557.232 348.977 557.703 349.257C558.174 349.538 558.712 349.684 559.26 349.68H621.66C622.137 349.68 622.595 349.869 622.933 350.207C623.27 350.545 623.46 351.002 623.46 351.48V353.93C623.46 354.408 623.271 354.867 622.933 355.206C622.596 355.545 622.138 355.737 621.66 355.74H464.35C463.838 355.741 463.333 355.612 462.885 355.363C462.437 355.115 462.06 354.755 461.79 354.32L420.36 288.41C420.067 287.962 419.9 287.443 419.875 286.908C419.85 286.374 419.969 285.842 420.219 285.368C420.469 284.895 420.841 284.497 421.297 284.216C421.752 283.935 422.275 283.781 422.81 283.77Z" fill="#7E7C89"/>
<path d="M621.62 349.68H458.87L461.79 354.32C462.06 354.756 462.437 355.115 462.885 355.363C463.333 355.612 463.838 355.742 464.35 355.74H621.62C622.098 355.737 622.556 355.545 622.893 355.206C623.231 354.867 623.42 354.408 623.42 353.93V351.48C623.42 351.003 623.23 350.545 622.893 350.207C622.555 349.87 622.097 349.68 621.62 349.68V349.68Z" fill="#AEADB6"/>
<path d="M494.046 318.971C495.499 315.075 493.081 310.575 488.647 308.922C484.212 307.268 479.439 309.086 477.986 312.983C476.533 316.88 478.95 321.379 483.385 323.033C487.82 324.686 492.593 322.868 494.046 318.971Z" fill="#FCFCFC"/>
<path d="M528.4 355.74H493.64C493.476 353.847 493.652 351.941 494.16 350.11C494.23 349.82 494.32 349.52 494.41 349.24C496.15 343.76 500.09 340.35 503.19 341.59C504.64 342.18 505.65 343.69 506.13 345.7C506.485 345.327 506.914 345.033 507.389 344.835C507.864 344.637 508.375 344.54 508.89 344.55C510.39 344.67 511.61 345.96 512.32 347.9C513.63 345.7 515.42 344.39 517.12 344.65C519.04 344.94 520.33 347.15 520.58 350.11C520.62 350.703 520.62 351.297 520.58 351.89C521.15 351.222 521.798 350.624 522.51 350.11C524.16 348.95 525.9 348.53 527.2 349.18C527.631 349.389 527.997 349.71 528.26 350.11C529.18 351.38 529.22 353.54 528.4 355.74Z" fill="#555667"/>
<path d="M524.23 348.68C522.4 347.68 519.7 348.98 517.62 351.6C517.8 347.48 516.42 344.17 514.13 343.8C512.42 343.52 510.64 344.93 509.32 347.3C508.61 345.21 507.4 343.82 505.9 343.7C505.376 343.689 504.856 343.793 504.378 344.005C503.899 344.218 503.473 344.534 503.13 344.93C502.65 342.77 501.64 341.14 500.19 340.51C497.09 339.17 493.19 342.85 491.41 348.74C489.63 354.63 490.75 360.5 493.85 361.84C495.55 362.58 497.49 361.84 499.19 359.99C499.335 359.841 499.512 359.728 499.708 359.66C499.904 359.591 500.113 359.568 500.319 359.593C500.525 359.618 500.723 359.691 500.896 359.805C501.07 359.919 501.215 360.071 501.32 360.25C501.519 360.811 501.87 361.306 502.333 361.68C502.797 362.054 503.355 362.292 503.946 362.367C504.536 362.443 505.136 362.353 505.679 362.108C506.222 361.863 506.686 361.473 507.02 360.98C507.151 360.842 507.312 360.734 507.489 360.664C507.667 360.594 507.857 360.563 508.048 360.575C508.238 360.586 508.424 360.639 508.592 360.73C508.76 360.821 508.906 360.947 509.02 361.1C509.473 361.719 510.145 362.141 510.9 362.28C511.377 362.332 511.86 362.285 512.318 362.14C512.776 361.995 513.199 361.757 513.56 361.44C513.708 361.315 513.882 361.224 514.07 361.174C514.257 361.124 514.454 361.116 514.645 361.15C514.836 361.185 515.017 361.261 515.175 361.373C515.333 361.485 515.465 361.631 515.56 361.8C515.817 362.223 516.183 362.568 516.62 362.8C518.87 364 522.42 361.8 524.54 357.9C526.66 354 526.48 349.87 524.23 348.68Z" fill="#F7B59C"/>
</g>
<defs>
<clipPath id="clip0_285_3278">
<rect width="705" height="558" fill="white"/>
</clipPath>
</defs>
</svg>
