<svg width="100" height="101" viewBox="0 0 100 101" fill="none" xmlns="http://www.w3.org/2000/svg">
<g filter="url(#filter0_d_131_5803)">
<path d="M69.8 32H30.2C28.2118 32 26.6 33.8132 26.6 36.05V60.35C26.6 62.5868 28.2118 64.4 30.2 64.4H69.8C71.7882 64.4 73.4 62.5868 73.4 60.35V36.05C73.4 33.8132 71.7882 32 69.8 32Z" fill="#2B4255"/>
<path d="M23 60.8V64.4C23 66.3944 24.6056 68 26.6 68H73.4C75.3944 68 77 66.3944 77 64.4V60.8H73.4H26.6H23Z" fill="#CAD1D8"/>
<path d="M39.2 60.8007V62.6007C39.2001 63.078 39.3898 63.536 39.7274 63.8735C40.0649 64.2111 40.5226 64.4006 41 64.4007H59C59.4774 64.4006 59.9351 64.2111 60.2727 63.8735C60.6102 63.536 60.8 63.078 60.8 62.6007V60.8007H59.225H57.2H42.8H40.1H39.2Z" fill="#1AA581"/>
<path d="M69.8 35.6H30.2V57.2H69.8V35.6Z" fill="#DADDE1"/>
</g>
<defs>
<filter id="filter0_d_131_5803" x="-13" y="0" width="126" height="133" filterUnits="userSpaceOnUse" color-interpolation-filters="sRGB">
<feFlood flood-opacity="0" result="BackgroundImageFix"/>
<feColorMatrix in="SourceAlpha" type="matrix" values="0 0 0 0 0 0 0 0 0 0 0 0 0 0 0 0 0 0 127 0" result="hardAlpha"/>
<feOffset dy="20"/>
<feGaussianBlur stdDeviation="6.5"/>
<feComposite in2="hardAlpha" operator="out"/>
<feColorMatrix type="matrix" values="0 0 0 0 0 0 0 0 0 0 0 0 0 0 0 0 0 0 0.02 0"/>
<feBlend mode="normal" in2="BackgroundImageFix" result="effect1_dropShadow_131_5803"/>
<feBlend mode="normal" in="SourceGraphic" in2="effect1_dropShadow_131_5803" result="shape"/>
</filter>
</defs>
</svg>
