<svg width="60" height="60" viewBox="0 0 60 60" fill="none" xmlns="http://www.w3.org/2000/svg">
<path d="M32.375 25.75C31.3395 25.75 30.5 24.9105 30.5 23.875C30.5 22.8395 31.3395 22 32.375 22C33.4105 22 34.25 22.8395 34.25 23.875C34.2489 24.9101 33.4101 25.7489 32.375 25.75Z" fill="#FFCC00"/>
<path d="M39.25 17H21.75C19.6814 17.006 18.006 18.6814 18 20.75V31.825L22.85 26.975C24.3343 25.5625 26.6657 25.5625 28.15 26.975L31.7392 30.5837L32.8486 29.4744C34.3154 28.0161 36.6846 28.0161 38.1514 29.4744L43 34.323V20.75C42.994 18.6814 41.3186 17.006 39.25 17ZM32.375 25.75C31.3395 25.75 30.5 24.9105 30.5 23.875C30.5 22.8395 31.3395 22 32.375 22C33.4105 22 34.25 22.8395 34.25 23.875C34.2489 24.9101 33.4101 25.7489 32.375 25.75Z" fill="#DADDE1"/>
<path d="M28.15 26.975C26.6657 25.5625 24.3343 25.5625 22.85 26.975L18 31.825V38.25C18.006 40.3186 19.6815 41.994 21.75 42H39.25C40.2689 41.9996 41.2437 41.5844 41.95 40.85L28.15 26.975Z" fill="#1AA581"/>
<path d="M43 34.3229L38.1514 29.4743C36.6845 28.0161 34.3154 28.0161 32.8486 29.4743L31.7392 30.5837L41.9445 40.8444C42.6222 40.1509 43.0011 39.2195 43 38.2499V34.3229Z" fill="#1AA581"/>
</svg>
