<svg width="100" height="100" viewBox="0 0 100 100" fill="none" xmlns="http://www.w3.org/2000/svg">
<path d="M74 34.7693H25V68.6154H74V34.7693Z" fill="#1AA581"/>
<path d="M49.5 68.6154C49.5 67.7178 49.144 66.8569 48.5102 66.2221C47.8765 65.5874 47.0169 65.2308 46.1207 65.2308H28.3793V31.3846H37.6724V61.8462H42.7414C44.5339 61.8462 46.253 62.5594 47.5204 63.8288C48.7879 65.0983 49.5 66.8201 49.5 68.6154Z" fill="#FF0000"/>
<path d="M70.6207 31.3846V65.2308H52.8793C51.9831 65.2308 51.1235 65.5874 50.4898 66.2221C49.856 66.8569 49.5 67.7178 49.5 68.6154V34.7693C49.5 33.8716 49.856 33.0107 50.4898 32.376C51.1235 31.7412 51.9831 31.3846 52.8793 31.3846H70.6207Z" fill="#FFA733"/>
<path d="M49.5 34.7692V68.6154C49.5 66.8201 48.7879 65.0983 47.5204 63.8288C46.253 62.5593 44.5339 61.8462 42.7414 61.8462H37.6724V28H42.7414C44.5339 28 46.253 28.7132 47.5204 29.9827C48.7879 31.2521 49.5 32.9739 49.5 34.7692Z" fill="#FFDAAA"/>
<path d="M36.8276 65.2307V71.9999L34.2931 69.4615L31.7586 71.9999V65.2307H36.8276Z" fill="#006DF0"/>
<path d="M67.2414 65.2307H62.1724V71.9999H67.2414V65.2307Z" fill="#46F8FF"/>
<path d="M67.2414 31.3846V44.077L63.0172 40.6923L58.7931 44.077V31.3846H67.2414Z" fill="#FFCC00"/>
<path d="M36.8276 65.2307H31.7586V66.0769H36.8276V65.2307Z" fill="#005ECE"/>
</svg>
