<svg width="100" height="100" viewBox="0 0 100 100" fill="none" xmlns="http://www.w3.org/2000/svg">
<path d="M45.556 40.5999H33.2769V59.7997H45.556V40.5999Z" fill="#1AA581"/>
<path d="M68.9247 70.2998L45.556 57.2999V43.1003L68.9247 30.1003V70.2998Z" fill="#DADDE1"/>
<path d="M33.277 43.1333H30.0295V56.7334H33.277V43.1333Z" fill="#DADDE1"/>
<path d="M32.2475 52.8221H29V54.6H32.2475V52.8221Z" fill="#FF0000"/>
<path d="M32.2475 50.0812H29V51.8591H32.2475V50.0812Z" fill="#FF0000"/>
<path d="M32.2475 47.3407H29V49.1186H32.2475V47.3407Z" fill="#FF0000"/>
<path d="M32.2475 44.5997H29V46.3776H32.2475V44.5997Z" fill="#FF0000"/>
<path d="M68.9917 72C67.8822 72 66.9834 71.1049 66.9834 70.0001V29.9999C66.9834 28.8951 67.8822 28 68.9917 28C70.1011 28 71 28.8951 71 29.9999V70.0001C71 71.1049 70.1011 72 68.9917 72Z" fill="#1AA581"/>
<path d="M42.0129 59.8003H36.7908V71.4005H42.0129V59.8003Z" fill="#9DA6B1"/>
<path d="M42.0123 62.9332L44.0876 67.4666L43.7196 67.8997H42.0123V62.9332Z" fill="#455C6C"/>
</svg>
