<svg width="100" height="100" viewBox="0 0 100 100" fill="none" xmlns="http://www.w3.org/2000/svg">
<path d="M69.1814 43.1224V60.6251L56.8526 73H39.3806L27 60.6251V43.1224L39.3806 30.7623H56.8526L61.4333 35.3492L58.081 38.7727C54.7742 36.2332 50.6271 35.0469 46.4797 35.4542C42.3322 35.8615 38.4943 37.8319 35.7432 40.9663C32.9921 44.1007 31.5334 48.165 31.6625 52.3359C31.7916 56.5068 33.4989 60.4727 36.4387 63.4305C39.3784 66.3883 43.3308 68.1168 47.4955 68.2661C51.6602 68.4153 55.726 66.9742 58.8693 64.2344C62.0127 61.4947 63.9988 57.6611 64.4254 53.5101C64.852 49.3591 63.6872 45.2009 61.1669 41.8775L64.6007 38.5059L69.1814 43.1224Z" fill="#1AA581"/>
<path d="M56.9636 46.2791L54.9211 48.2872C55.5049 49.3923 55.8098 50.6236 55.8092 51.8737C55.8091 53.393 55.3601 54.8782 54.5188 56.1425C53.6775 57.4068 52.4814 58.3936 51.0812 58.9786C49.681 59.5637 48.1392 59.7208 46.65 59.4303C45.1608 59.1398 43.7907 58.4146 42.7122 57.346C41.6337 56.2774 40.8951 54.9131 40.5893 53.4251C40.2835 51.937 40.4242 50.3916 40.9936 48.9834C41.5631 47.5753 42.536 46.3673 43.7896 45.5116C45.0433 44.6559 46.5218 44.1907 48.0389 44.1746H48.1203C48.6045 44.1735 49.0876 44.2182 49.5634 44.308C50.2889 44.4522 50.9894 44.7019 51.6428 45.049L53.6409 42.9816C51.458 41.6161 48.8493 41.1034 46.313 41.5415C43.7766 41.9796 41.4902 43.3378 39.8903 45.3567C38.2904 47.3755 37.4892 49.9137 37.6395 52.4866C37.7898 55.0595 38.8811 57.4868 40.7052 59.3051C42.5293 61.1234 44.9582 62.2053 47.5283 62.3443C50.0984 62.4833 52.6296 61.6696 54.6386 60.0585C56.6476 58.4475 57.9936 56.152 58.4198 53.6103C58.8459 51.0686 58.3223 48.4587 56.9488 46.2791H56.9636Z" fill="#FFA733"/>
<path d="M72.4893 31.4144L69.1814 32.2962L51.1396 50.0286L53.3597 50.9401L47.8169 52.0738L48.9491 46.5237L49.8594 48.7467L67.62 30.6512L68.5006 27.3685C68.5301 27.2625 68.5935 27.1691 68.681 27.1026C68.7685 27.036 68.8754 27 68.9853 27C69.0952 27 69.2021 27.036 69.2896 27.1026C69.3771 27.1691 69.4405 27.2625 69.47 27.3685L70.21 29.6656L72.5041 30.4067C72.6376 30.4086 72.7648 30.4636 72.8578 30.5595C72.9508 30.6554 73.0019 30.7843 72.9999 30.918C72.998 31.0516 72.9431 31.179 72.8473 31.2721C72.7516 31.3652 72.6228 31.4164 72.4893 31.4144Z" fill="black"/>
</svg>
