<svg width="100" height="100" viewBox="0 0 100 100" fill="none" xmlns="http://www.w3.org/2000/svg">
<path d="M60.9999 35.6503C60.9999 36.2226 60.7499 36.7443 60.3436 37.121C59.9921 37.4543 59.5155 37.6716 58.9843 37.7224C58.914 37.7296 58.8437 37.7296 58.7655 37.7296H41.2344C41.1562 37.7296 41.086 37.7296 41.0156 37.7224C39.8828 37.6137 39 36.7225 39 35.6503C39 35.0779 39.25 34.5563 39.6563 34.1795C40.0078 33.8462 40.4844 33.6289 41.0156 33.5782C41.086 33.5709 41.1562 33.5709 41.2344 33.5709H58.7655C58.8437 33.5709 58.914 33.5709 58.9843 33.5782C60.1171 33.6869 60.9999 34.578 60.9999 35.6503Z" fill="#EDEDED"/>
<path d="M57.08 25C58.1317 25 58.9843 25.7907 58.9843 26.766V33.5781C58.914 33.5708 58.8437 33.5708 58.7655 33.5708H41.2344C41.1562 33.5708 41.086 33.5708 41.0156 33.5781V26.766C41.0156 25.7907 41.8682 25 42.9199 25H57.08V25Z" fill="#1AA581"/>
<path d="M58.983 26.7634V33.579C58.9132 33.571 58.8434 33.571 58.7658 33.571H54.1346V26.7634C54.1346 25.7943 53.2813 25 52.2341 25H57.0824C58.1297 25 58.983 25.7943 58.983 26.7634Z" fill="#1AA581"/>
<path d="M41.0156 26.7634V33.579C41.0855 33.571 41.1552 33.571 41.2329 33.571H45.864V26.7634C45.864 25.7943 46.7173 25 47.7646 25H42.9162C41.869 25 41.0156 25.7943 41.0156 26.7634Z" fill="#1AA581"/>
<path d="M54.1346 33.571V33.579C54.0648 33.571 53.995 33.571 53.9174 33.571H54.1346Z" fill="#FDB682"/>
<path d="M58.7655 37.7294C58.8437 37.7294 58.9139 37.7294 58.9843 37.7222V63.7608C52.9947 61.8288 47.0052 61.8288 41.0156 63.7608V37.7222C41.086 37.7294 41.1562 37.7294 41.2344 37.7294H58.7655Z" fill="#FF4D4D"/>
<path d="M58.983 37.7253V63.7641C57.0902 63.1525 55.1896 62.7315 53.2968 62.5091V37.7333H58.7658C58.8434 37.7333 58.9131 37.7333 58.983 37.7253Z" fill="#FF0000"/>
<path d="M53.2967 37.7253V37.7333H53.0796C53.1571 37.7333 53.2269 37.7333 53.2967 37.7253Z" fill="white"/>
<path d="M41.0156 37.7253V63.7641C42.9084 63.1525 44.809 62.7315 46.7018 62.5091V37.7333H41.2329C41.1553 37.7333 41.0855 37.7333 41.0156 37.7253Z" fill="#FF8080"/>
<path opacity="0.5" d="M46.7018 37.7253V37.7333H46.9189C46.8414 37.7333 46.7716 37.7333 46.7018 37.7253Z" fill="#AA91AB"/>
<path d="M58.9843 63.7609L51.0015 74.4919C50.4977 75.1693 49.5023 75.1693 48.9984 74.4919L41.0156 63.7609C47.0052 61.8289 52.9947 61.8289 58.9843 63.7609Z" fill="#FFCC00"/>
<path d="M61 35.6522C61 36.2242 60.7518 36.7405 60.3406 37.1218C59.9916 37.4554 59.5184 37.6699 58.9831 37.7255C58.9133 37.7334 58.8435 37.7334 58.7659 37.7334H55.469C55.5466 37.7334 55.6164 37.7334 55.6862 37.7255C56.2137 37.6699 56.6947 37.4554 57.0438 37.1218C57.4549 36.7405 57.7031 36.2242 57.7031 35.6522C57.7031 34.5799 56.8188 33.6902 55.6862 33.579C55.6164 33.571 55.5466 33.571 55.469 33.571H58.7659C58.8435 33.571 58.9133 33.571 58.9831 33.579C60.1157 33.6902 61 34.5799 61 35.6522Z" fill="#E2E2E2"/>
<path d="M53.2367 71.4776L51.0023 74.4879C50.4985 75.1667 49.5014 75.1667 48.9975 74.4879L46.7632 71.4776C47.6804 70.8812 48.798 70.5391 49.9999 70.5391C51.2019 70.5391 52.3194 70.8812 53.2367 71.4776Z" fill="black"/>
</svg>
