<svg width="60" height="60" viewBox="0 0 60 60" fill="none" xmlns="http://www.w3.org/2000/svg">
<path d="M26.5576 17H18.7819C17.81 17 17 17.81 17 18.7819V26.6386C17 27.5296 17.81 28.3396 18.7819 28.3396H26.6386C27.6106 28.3396 28.4206 27.5296 28.4206 26.5576V18.7819C28.3396 17.81 27.5296 17 26.5576 17Z" fill="#FFCC00"/>
<path d="M41.1371 17H33.2804C32.3894 17 31.5794 17.81 31.5794 18.7819V26.6386C31.5794 27.6106 32.3894 28.4206 33.3614 28.4206H41.2181C42.19 28.4206 43 27.6106 43 26.6386V18.7819C42.919 17.81 42.109 17 41.1371 17ZM26.5576 31.5794H18.7819C17.81 31.5794 17 32.3894 17 33.3614V41.2181C17 42.109 17.81 42.919 18.7819 42.919H26.6386C27.6106 42.919 28.4206 42.109 28.4206 41.1371V33.2804C28.3396 32.3894 27.5296 31.5794 26.5576 31.5794ZM41.1371 31.5794H33.2804C32.3894 31.5794 31.5794 32.3894 31.5794 33.3614V41.2181C31.5794 42.19 32.3894 43 33.3614 43H41.2181C42.19 43 43 42.19 43 41.2181V33.3614C42.919 32.3894 42.109 31.5794 41.1371 31.5794Z" fill="#1AA581"/>
</svg>
