<svg width="59" height="60" viewBox="0 0 59 60" fill="none" xmlns="http://www.w3.org/2000/svg">
<path d="M38 44V31.32C37.9987 30.9289 37.8836 30.5467 37.6688 30.22C37.4539 29.8932 37.1486 29.6361 36.79 29.48L33.33 28C32.9692 27.8442 32.6621 27.5857 32.447 27.2568C32.2319 26.9279 32.1182 26.543 32.12 26.15C32.1172 25.7246 32.2543 25.31 32.51 24.97C33.2469 23.9824 33.6729 22.7976 33.7334 21.5668C33.794 20.3361 33.4864 19.1152 32.85 18.06L31.52 15.86C31.3622 15.5985 31.1397 15.3821 30.874 15.2315C30.6082 15.081 30.3082 15.0014 30.0028 15.0004C29.6974 14.9993 29.3969 15.077 29.1302 15.2258C28.8635 15.3746 28.6395 15.5896 28.48 15.85L27.16 18.01C26.5221 19.0609 26.2101 20.2773 26.2635 21.5055C26.3169 22.7337 26.7333 23.9184 27.46 24.91L27.51 24.97C27.6877 25.2131 27.8082 25.4931 27.8626 25.7893C27.9169 26.0854 27.9037 26.39 27.8239 26.6803C27.7441 26.9707 27.5998 27.2392 27.4017 27.466C27.2037 27.6928 26.957 27.8719 26.68 27.99L23.21 29.48C22.8515 29.6361 22.5461 29.8932 22.3312 30.22C22.1164 30.5467 22.0013 30.9289 22 31.32V44C22.0016 44.5299 22.2128 45.0377 22.5875 45.4125C22.9623 45.7872 23.4701 45.9984 24 46H36C36.5299 45.9984 37.0377 45.7872 37.4125 45.4125C37.7872 45.0377 37.9984 44.5299 38 44Z" fill="#DADDE1"/>
<path d="M38 34.5V31.32C37.9987 30.9289 37.8836 30.5467 37.6688 30.22C37.4539 29.8932 37.1486 29.6361 36.79 29.48L33.33 28C32.9692 27.8442 32.6621 27.5857 32.447 27.2568C32.2319 26.9279 32.1182 26.543 32.12 26.15C32.1172 25.7246 32.2543 25.31 32.51 24.97C33.2469 23.9824 33.6729 22.7976 33.7334 21.5668C33.794 20.3361 33.4864 19.1152 32.85 18.06L31.52 15.86C31.3622 15.5985 31.1397 15.3821 30.874 15.2315C30.6082 15.081 30.3082 15.0014 30.0028 15.0004C29.6974 14.9993 29.3969 15.077 29.1302 15.2258C28.8635 15.3746 28.6395 15.5896 28.48 15.85L27.16 18.01C26.5221 19.0609 26.2101 20.2773 26.2635 21.5055C26.3169 22.7337 26.7333 23.9184 27.46 24.91L27.51 24.97C27.6877 25.2131 27.8082 25.4931 27.8626 25.7893C27.9169 26.0854 27.9037 26.39 27.8239 26.6803C27.7441 26.9707 27.5998 27.2392 27.4017 27.466C27.2037 27.6928 26.957 27.8719 26.68 27.99L23.21 29.48C22.8515 29.6361 22.5461 29.8932 22.3312 30.22C22.1164 30.5467 22.0013 30.9289 22 31.32V34.5H38Z" fill="#1AA581"/>
<path d="M38 34.5H22V33.5H38V34.5Z" fill="#D8D9DC"/>
<path d="M30 18C30.5523 18 31 18.4477 31 19C31 19.5523 30.5523 20 30 20C29.4477 20 29 19.5523 29 19C29 18.4477 29.4477 18 30 18Z" fill="#D8D9DC"/>
<path d="M38 44V43.56C37.33 41.54 36.45 39.48 35.53 39.53C34.37 39.6 33.98 43.02 33 43C31.71 42.98 31.16 37 30 37C28.94 37 28.45 41.94 27 42C26.11 42.03 25.74 40.18 24.5 40.06C23.53 39.97 22.62 41.01 22 41.94V44C22.0016 44.5299 22.2128 45.0377 22.5875 45.4125C22.9623 45.7872 23.4701 45.9984 24 46H36C36.5299 45.9984 37.0377 45.7872 37.4125 45.4125C37.7872 45.0377 37.9984 44.5299 38 44Z" fill="#FF0000"/>
</svg>
