<svg width="46" height="46" viewBox="0 0 46 46" fill="none" xmlns="http://www.w3.org/2000/svg">
<rect width="46" height="46" rx="23" fill="white"/>
<path d="M23.5057 13.1132L20.1144 6.3132C20.0674 6.21907 19.9952 6.13992 19.9059 6.0846C19.8166 6.02928 19.7137 5.99999 19.6088 6H10.5653C10.4689 5.99999 10.3742 6.02467 10.29 6.07171C10.2058 6.11875 10.1351 6.18657 10.0844 6.26875C10.0338 6.35092 10.0049 6.44472 10.0006 6.54122C9.99624 6.63773 10.0166 6.73374 10.0597 6.82014L15.9606 18.6521C16.0032 18.7375 16.0665 18.8106 16.1448 18.8649C16.2231 18.9191 16.3138 18.9526 16.4085 18.9623C16.4278 18.9643 16.4472 18.9654 16.4662 18.9654C16.5516 18.9654 16.6358 18.9461 16.7127 18.9088C16.7896 18.8715 16.857 18.8172 16.91 18.7501C17.1001 18.5094 17.3419 18.3146 17.6173 18.1802C17.8927 18.0458 18.1947 17.9752 18.5009 17.9737C18.6415 17.9758 18.7816 17.9913 18.9192 18.0201C19.3942 18.115 19.8845 18.0999 20.3528 17.976C20.8211 17.8522 21.2551 17.6228 21.6216 17.3055C21.6763 17.2573 21.7211 17.1989 21.7536 17.1336L23.5057 13.6203C23.545 13.5416 23.5654 13.4548 23.5654 13.3667C23.5654 13.2787 23.5449 13.1919 23.5057 13.1132Z" fill="#FF0000"/>
<path d="M35.9157 6.26866C35.865 6.18651 35.7942 6.11871 35.7101 6.07169C35.626 6.02467 35.5312 5.99999 35.4349 6H26.3914C26.2864 5.99999 26.1835 6.02928 26.0942 6.0846C26.0049 6.13992 25.9328 6.21907 25.8858 6.3132L20.7423 16.6265C20.689 16.7333 20.6708 16.8543 20.6901 16.9721C20.7095 17.09 20.7655 17.1987 20.8501 17.2827C20.9348 17.3668 21.0437 17.4218 21.1615 17.4401C21.2792 17.4583 21.3996 17.4388 21.5057 17.3843C21.5453 17.363 21.5827 17.3378 21.6174 17.3091C21.6298 17.2997 21.642 17.2897 21.6539 17.2789C22.0298 16.9589 22.5069 16.7832 23.0001 16.7832C23.4933 16.7832 23.9704 16.9589 24.3463 17.2789C24.7136 17.6067 25.1519 17.8443 25.6266 17.9729C26.1013 18.1015 26.5994 18.1176 27.0814 18.0199C27.2189 17.9911 27.3588 17.9755 27.4992 17.9734C27.8055 17.975 28.1075 18.0456 28.3829 18.1799C28.6583 18.3143 28.9001 18.5091 29.0903 18.7498C29.1432 18.8169 29.2107 18.8712 29.2875 18.9085C29.3644 18.9458 29.4487 18.9651 29.5341 18.9651C29.5531 18.9651 29.5724 18.964 29.5917 18.962C29.6864 18.9523 29.7771 18.9188 29.8554 18.8646C29.9337 18.8104 29.9971 18.7372 30.0397 18.6519L35.9405 6.81985C35.9835 6.73345 36.0038 6.63747 35.9994 6.54102C35.9951 6.44457 35.9662 6.35082 35.9157 6.26866Z" fill="#1AA581"/>
<path d="M35.1523 27.8167C35.1541 27.0398 34.8693 26.2897 34.3527 25.7108C34.022 25.339 33.8398 24.8581 33.841 24.36C33.841 24.2192 33.8546 24.0788 33.8815 23.9407C33.924 23.7317 33.9464 23.5192 33.9483 23.306C33.9487 22.6398 33.739 21.9906 33.3492 21.4511C32.9594 20.9116 32.4094 20.5095 31.7779 20.3023C31.4784 20.2039 31.2062 20.0361 30.9834 19.8127C30.7605 19.5892 30.5933 19.3162 30.4953 19.0159C30.2881 18.3832 29.8869 17.8321 29.3488 17.4415C28.8108 17.0508 28.1635 16.8404 27.4992 16.8403C27.2846 16.8423 27.0707 16.8651 26.8605 16.9083C26.5508 16.9721 26.2306 16.9625 25.9252 16.8805C25.6199 16.7985 25.3378 16.6462 25.1014 16.4357C24.525 15.9209 23.7805 15.6354 23.0085 15.6333C22.2365 15.6313 21.4905 15.9127 20.9114 16.4244L20.9048 16.4301C20.8942 16.438 20.884 16.4464 20.8741 16.4549C20.6377 16.6584 20.358 16.805 20.0564 16.8834C19.7548 16.9618 19.4393 16.97 19.134 16.9073C18.9257 16.8647 18.7137 16.8423 18.501 16.8404C17.8367 16.8405 17.1893 17.051 16.6513 17.4417C16.1133 17.8324 15.7121 18.3835 15.5049 19.0164C15.4067 19.3168 15.2392 19.5898 15.0161 19.8133C14.793 20.0368 14.5205 20.2045 14.2208 20.3027C13.5895 20.5101 13.0399 20.9122 12.6503 21.4516C12.2608 21.991 12.0513 22.6401 12.0518 23.306C12.0537 23.5193 12.076 23.7318 12.1186 23.9407C12.1455 24.0789 12.159 24.2193 12.1591 24.36C12.1604 24.8577 11.9785 25.3384 11.6483 25.71C11.1329 26.2899 10.8481 27.0395 10.848 27.8162C10.8478 28.5929 11.1324 29.3426 11.6475 29.9227C11.9781 30.2944 12.1603 30.7753 12.1592 31.2733C12.1591 31.4141 12.1455 31.5545 12.1186 31.6927C12.0762 31.9016 12.0538 32.1141 12.0519 32.3273C12.0514 32.9935 12.2611 33.6428 12.651 34.1823C13.0408 34.7217 13.5908 35.1238 14.2223 35.3311C14.522 35.4295 14.7943 35.5974 15.0173 35.8211C15.2402 36.0448 15.4074 36.318 15.5053 36.6185C15.7122 37.2514 16.1133 37.8024 16.6513 38.193C17.1893 38.5835 17.8368 38.7936 18.501 38.793C18.7137 38.7912 18.9257 38.7687 19.134 38.7261C19.4446 38.6631 19.7654 38.6728 20.0716 38.7546C20.3777 38.8364 20.6609 38.988 20.8989 39.1976C21.4774 39.7143 22.225 39.9998 22.9997 40C23.7744 40.0001 24.5222 39.7149 25.1008 39.1984C25.339 38.9888 25.6222 38.8372 25.9284 38.7553C26.2346 38.6733 26.5555 38.6634 26.8662 38.7261C27.0746 38.7687 27.2865 38.7911 27.4992 38.793C28.1637 38.7935 28.8113 38.5832 29.3494 38.1924C29.8875 37.8016 30.2886 37.2502 30.4953 36.6171C30.5935 36.3166 30.7609 36.0435 30.9841 35.8201C31.2072 35.5966 31.4797 35.4289 31.7794 35.3307C32.4107 35.1233 32.9603 34.7212 33.3499 34.1818C33.7394 33.6424 33.9489 32.9933 33.9484 32.3274C33.9465 32.1142 33.9241 31.9016 33.8817 31.6927C33.8547 31.5546 33.8411 31.4141 33.8411 31.2734C33.8399 30.7757 34.0218 30.2951 34.3519 29.9234C34.869 29.3443 35.1541 28.5939 35.1523 27.8167Z" fill="#FFA733"/>
<path d="M30.4683 25.7434C30.4059 25.5513 30.2935 25.3794 30.1426 25.2455C29.9917 25.1116 29.8079 25.0205 29.6102 24.9817L25.8499 24.244L23.9881 20.8863C23.8902 20.7097 23.7469 20.5626 23.5732 20.4602C23.3995 20.3577 23.2016 20.3037 23.0001 20.3037C22.7985 20.3037 22.6007 20.3577 22.427 20.4602C22.2533 20.5626 22.11 20.7097 22.0121 20.8863L20.1503 24.244L16.39 24.9817C16.1922 25.0205 16.0084 25.1116 15.8575 25.2455C15.7066 25.3795 15.5943 25.5515 15.532 25.7436C15.4697 25.9358 15.4597 26.1411 15.5032 26.3384C15.5467 26.5357 15.642 26.7177 15.7792 26.8657L18.3889 29.6785L17.9266 33.4922C17.9024 33.6927 17.932 33.8962 18.0125 34.0814C18.093 34.2666 18.2215 34.4269 18.3845 34.5456C18.5476 34.6644 18.7393 34.7372 18.9399 34.7567C19.1405 34.7762 19.3427 34.7415 19.5254 34.6563L23.0001 33.037L26.4748 34.6563C26.6575 34.7415 26.8597 34.7762 27.0603 34.7567C27.2609 34.7372 27.4527 34.6643 27.6157 34.5456C27.7788 34.4268 27.9072 34.2665 27.9877 34.0813C28.0682 33.896 28.0978 33.6926 28.0735 33.492L27.6112 29.6786L30.2207 26.8658C30.358 26.7178 30.4533 26.5357 30.4968 26.3384C30.5404 26.141 30.5305 25.9356 30.4683 25.7434Z" fill="white"/>
</svg>
