<svg width="46" height="46" viewBox="0 0 46 46" fill="none" xmlns="http://www.w3.org/2000/svg">
<rect width="46" height="46" rx="23" fill="white"/>
<path d="M35.5922 8H30.1644C29.5266 8.00258 28.9157 8.25709 28.4647 8.70808C28.0137 9.15907 27.7592 9.77 27.7566 10.4078V38H35.5922C36.23 37.9974 36.8409 37.7429 37.2919 37.2919C37.7429 36.8409 37.9974 36.23 38 35.5922V10.4078C37.9974 9.77 37.7429 9.15907 37.2919 8.70808C36.8409 8.25709 36.23 8.00258 35.5922 8V8Z" fill="#1AA581"/>
<path d="M17.4737 19.8422V27.7368H10.3686C9.74101 27.7387 9.13965 27.9887 8.69586 28.4325C8.25207 28.8762 8.0019 29.4775 8 30.1051V35.6314C8.00183 36.2591 8.25196 36.8605 8.69576 37.3043C9.13956 37.748 9.74096 37.9982 10.3686 38H27.737V17.4737H19.8423C19.2147 17.4755 18.6133 17.7256 18.1695 18.1694C17.7257 18.6132 17.4756 19.2146 17.4737 19.8422Z" fill="#FFA733"/>
</svg>
