<svg width="46" height="46" viewBox="0 0 46 46" fill="none" xmlns="http://www.w3.org/2000/svg">
<rect width="46" height="46" rx="23" fill="white"/>
<path d="M27.3232 17.163C27.4992 17.163 27.6134 16.978 27.5346 16.8208L23.183 8.1347C23.0883 7.9551 22.8423 7.9551 22.7573 8.1347L18.4235 16.8214C18.3452 16.9786 18.4597 17.1631 18.6352 17.1631L27.3232 17.163Z" fill="#FF0000"/>
<path d="M17.2409 19.1856L13.2283 27.2214C13.1498 27.3786 13.2643 27.5633 13.44 27.5633H32.5267C32.7027 27.5633 32.8169 27.3784 32.7384 27.2212L28.7168 19.1854C28.6767 19.1054 28.5947 19.0547 28.5052 19.0547H17.4523C17.3628 19.0547 17.2809 19.1054 17.2407 19.1856H17.2409Z" fill="#FFA733"/>
<path d="M33.9309 29.5839C33.8907 29.5039 33.8088 29.4532 33.7193 29.4532L12.2673 29.4534C12.1775 29.4534 12.0956 29.5041 12.0556 29.5841L8.02377 37.6595C7.94814 37.8203 8.06169 37.9999 8.24145 37.9999H37.7641C37.9344 37.9999 38.0574 37.8109 37.9724 37.6595L33.9309 29.5839Z" fill="#1AA581"/>
</svg>
