<svg width="46" height="46" viewBox="0 0 46 46" fill="none" xmlns="http://www.w3.org/2000/svg">
<rect width="46" height="46" rx="23" fill="white"/>
<path d="M36 20H33.58C33.3415 19.1764 33.0058 18.3842 32.58 17.64L34.29 15.93C34.3837 15.837 34.4581 15.7264 34.5089 15.6046C34.5597 15.4827 34.5858 15.352 34.5858 15.22C34.5858 15.088 34.5597 14.9573 34.5089 14.8354C34.4581 14.7136 34.3837 14.603 34.29 14.51L31.49 11.69C31.397 11.5963 31.2864 11.5219 31.1646 11.4711C31.0427 11.4203 30.912 11.3942 30.78 11.3942C30.648 11.3942 30.5173 11.4203 30.3954 11.4711C30.2736 11.5219 30.163 11.5963 30.07 11.69L28.36 13.4C27.6158 12.9742 26.8236 12.6385 26 12.4V10C26 9.73478 25.8946 9.48043 25.7071 9.29289C25.5196 9.10536 25.2652 9 25 9H21C20.7348 9 20.4804 9.10536 20.2929 9.29289C20.1054 9.48043 20 9.73478 20 10V12.42C19.1764 12.6585 18.3842 12.9942 17.64 13.42L15.93 11.69C15.837 11.5963 15.7264 11.5219 15.6046 11.4711C15.4827 11.4203 15.352 11.3942 15.22 11.3942C15.088 11.3942 14.9573 11.4203 14.8354 11.4711C14.7136 11.5219 14.603 11.5963 14.51 11.69L11.69 14.51C11.5963 14.603 11.5219 14.7136 11.4711 14.8354C11.4203 14.9573 11.3942 15.088 11.3942 15.22C11.3942 15.352 11.4203 15.4827 11.4711 15.6046C11.5219 15.7264 11.5963 15.837 11.69 15.93L13.4 17.64C12.9742 18.3842 12.6385 19.1764 12.4 20H10C9.73478 20 9.48043 20.1054 9.29289 20.2929C9.10536 20.4804 9 20.7348 9 21V25C9 25.2652 9.10536 25.5196 9.29289 25.7071C9.48043 25.8946 9.73478 26 10 26H12.42C12.6585 26.8236 12.9942 27.6158 13.42 28.36L11.69 30.07C11.5963 30.163 11.5219 30.2736 11.4711 30.3954C11.4203 30.5173 11.3942 30.648 11.3942 30.78C11.3942 30.912 11.4203 31.0427 11.4711 31.1646C11.5219 31.2864 11.5963 31.397 11.69 31.49L14.51 34.31C14.603 34.4037 14.7136 34.4781 14.8354 34.5289C14.9573 34.5797 15.088 34.6058 15.22 34.6058C15.352 34.6058 15.4827 34.5797 15.6046 34.5289C15.7264 34.4781 15.837 34.4037 15.93 34.31L17.64 32.6C18.3842 33.0258 19.1764 33.3615 20 33.6V36C20 36.2652 20.1054 36.5196 20.2929 36.7071C20.4804 36.8946 20.7348 37 21 37H25C25.2652 37 25.5196 36.8946 25.7071 36.7071C25.8946 36.5196 26 36.2652 26 36V33.58C26.8236 33.3415 27.6158 33.0058 28.36 32.58L30.07 34.29C30.163 34.3837 30.2736 34.4581 30.3954 34.5089C30.5173 34.5597 30.648 34.5858 30.78 34.5858C30.912 34.5858 31.0427 34.5597 31.1646 34.5089C31.2864 34.4581 31.397 34.3837 31.49 34.29L34.31 31.47C34.4037 31.377 34.4781 31.2664 34.5289 31.1446C34.5797 31.0227 34.6058 30.892 34.6058 30.76C34.6058 30.628 34.5797 30.4973 34.5289 30.3754C34.4781 30.2536 34.4037 30.143 34.31 30.05L32.6 28.36C33.0258 27.6158 33.3615 26.8236 33.6 26H36C36.2652 26 36.5196 25.8946 36.7071 25.7071C36.8946 25.5196 37 25.2652 37 25V21C37 20.7348 36.8946 20.4804 36.7071 20.2929C36.5196 20.1054 36.2652 20 36 20ZM23 27C22.2089 27 21.4355 26.7654 20.7777 26.3259C20.1199 25.8864 19.6072 25.2616 19.3045 24.5307C19.0017 23.7998 18.9225 22.9956 19.0769 22.2196C19.2312 21.4437 19.6122 20.731 20.1716 20.1716C20.731 19.6122 21.4437 19.2312 22.2196 19.0769C22.9956 18.9225 23.7998 19.0017 24.5307 19.3045C25.2616 19.6072 25.8864 20.1199 26.3259 20.7777C26.7654 21.4355 27 22.2089 27 23C27 24.0609 26.5786 25.0783 25.8284 25.8284C25.0783 26.5786 24.0609 27 23 27Z" fill="#D0D2D3"/>
<path d="M23 27C25.2091 27 27 25.2091 27 23C27 20.7909 25.2091 19 23 19C20.7909 19 19 20.7909 19 23C19 25.2091 20.7909 27 23 27Z" fill="#2B4255"/>
</svg>
