<svg width="46" height="46" viewBox="0 0 46 46" fill="none" xmlns="http://www.w3.org/2000/svg">
<rect width="46" height="46" rx="23" fill="white"/>
<path d="M37.929 19.5471C37.7583 19.0158 37.3047 18.6286 36.7586 18.548L28.4956 17.3323L24.8006 9.75259C24.5437 9.27188 24.0394 8.98051 23.4999 9.00102V32.8975L30.8907 36.8311C31.5997 37.2084 32.4766 36.9323 32.8492 36.2146C32.9975 35.9289 33.0487 35.6017 32.9949 35.2836L31.5832 26.952L37.5622 21.0524C37.9574 20.6621 38.0995 20.0787 37.929 19.5471Z" fill="#FFA733"/>
<path d="M22.1994 9.75259L18.5044 17.3324L10.2413 18.5481C9.926 18.5947 9.63457 18.745 9.41208 18.9759C8.85277 19.5565 8.86426 20.4862 9.43775 21.0524L15.4168 26.952L14.0051 35.2836C13.9513 35.6017 14.0025 35.9289 14.1507 36.2145C14.5234 36.9324 15.4003 37.2084 16.1092 36.8311L23.5 32.8975V9.02651C22.9844 9.02767 22.4806 9.27057 22.1994 9.75259Z" fill="#1AA581"/>
</svg>
