<svg width="88" height="64" viewBox="0 0 88 64" fill="none" xmlns="http://www.w3.org/2000/svg">
<path d="M55.2102 0H40.8195V4.27533H45.8005V19.4324H50.2292V4.27533H55.2102V0Z" fill="black"/>
<path d="M67.6627 0V7.44004H61.5736V0H57.1458V19.4324H61.5736V11.7154H67.6627V19.4324H72.0905V0H67.6627Z" fill="black"/>
<path d="M79.8373 15.157V11.7154H86.7565V7.49543H79.8373V4.27533H87.4482V0H75.4095V19.4324H87.5867V15.157H79.8373Z" fill="black"/>
<path d="M7.74939 41.9104C11.9554 41.9104 14.9447 39.6892 14.9447 35.9414C14.9447 31.8332 11.6512 30.8062 8.71806 29.9181C5.7016 29.0018 5.23084 28.3906 5.23084 27.5025C5.23084 26.7252 5.92248 26.0314 7.3067 26.0314C9.07746 26.0314 9.99091 26.8923 10.6554 28.2798L14.3916 26.0868C12.9802 23.2272 10.4888 21.7007 7.3067 21.7007C3.95799 21.7007 0.803016 23.8656 0.803016 27.6133C0.803016 31.3338 3.62574 32.7213 6.50368 33.5268C9.40971 34.3314 10.5169 34.8036 10.5169 35.9978C10.5169 36.7469 9.99091 37.5797 7.88791 37.5797C5.7016 37.5797 4.51112 36.4972 3.81948 34.8872L0 37.1074C1.07911 39.967 3.68096 41.9104 7.74939 41.9104Z" fill="#1AA581"/>
<path d="M21.5848 37.2464V33.8047H28.504V29.5848H21.5848V26.3647H29.1957V22.0894H17.157V41.5217H29.3342V37.2464H21.5848Z" fill="#1AA581"/>
<path d="M36.2512 37.2464V22.0894H31.8234V41.5217H43.1704V37.2464H36.2512Z" fill="#1AA581"/>
<path d="M49.5339 37.2464V22.0894H45.1061V41.5217H56.4531V37.2464H49.5339Z" fill="#1AA581"/>
<path d="M62.8166 37.2464V33.8047H69.7358V29.5848H62.8166V26.3647H70.4275V22.0894H58.3888V41.5217H70.566V37.2464H62.8166Z" fill="#1AA581"/>
<path d="M83.2398 41.5217H87.9999L83.8762 34.3877C86.0073 33.3043 87.4468 31.1395 87.4468 28.7521C87.4468 25.0597 84.4855 22.0894 80.8046 22.0894H73.0552V41.5217H77.483V35.1369H79.5869L83.2398 41.5217ZM77.483 26.253H80.8046C82.0222 26.253 83.018 27.3363 83.018 28.7521C83.018 30.1678 82.0222 31.2502 80.8046 31.2502H77.483V26.253Z" fill="#1AA581"/>
<path d="M24.0776 44.179H16.7437V63.6113H21.1715V57.5044H24.0776C27.897 57.5044 30.8583 54.534 30.8583 50.8417C30.8583 47.1493 27.897 44.179 24.0776 44.179ZM24.0776 53.3398H21.1715V48.3426H24.0776C25.4337 48.3426 26.4305 49.4259 26.4305 50.8417C26.4305 52.2574 25.4337 53.3398 24.0776 53.3398Z" fill="#1AA581"/>
<path d="M40.4041 64C44.6663 64 47.8765 61.5018 47.8765 57.3373V44.179H43.4487V56.9486C43.4487 58.4197 42.757 59.6693 40.4041 59.6693C38.0522 59.6693 37.3605 58.4197 37.3605 56.9486V44.179H32.9318V57.3373C32.9318 61.5018 36.142 64 40.4041 64Z" fill="#1AA581"/>
<path d="M70.43 44.179H66.0022L60.7442 52.8122L55.4853 44.179H51.0574V63.6113H55.4853V52.3128L60.4952 60.5574H60.9931L66.0022 52.3128V63.6113H70.43V44.179Z" fill="#1AA581"/>
<path d="M81.0827 44.179H73.7488V63.6113H78.1767V57.5044H81.0827C84.9022 57.5044 87.8634 54.534 87.8634 50.8417C87.8634 47.1493 84.9022 44.179 81.0827 44.179ZM81.0827 53.3398H78.1767V48.3426H81.0827C82.4388 48.3426 83.4356 49.4259 83.4356 50.8417C83.4356 52.2574 82.4388 53.3398 81.0827 53.3398Z" fill="#1AA581"/>
</svg>
