<svg width="1840" height="610" viewBox="0 0 1840 610" fill="none" xmlns="http://www.w3.org/2000/svg">
<rect width="1840" height="610" rx="20" fill="#1AA581"/>
<g clip-path="url(#clip0_131_5023)">
<g clip-path="url(#clip1_131_5023)">
<path opacity="0.2" d="M549 103H589C589 125.091 571.091 143 549 143V103Z" fill="white"/>
</g>
<g clip-path="url(#clip2_131_5023)">
<path opacity="0.2" d="M1750 384H1790C1790 361.909 1772.09 344 1750 344V384Z" fill="white"/>
</g>
<g opacity="0.2">
<path d="M-35 422H-31V426H-35V422Z" fill="white"/>
<path d="M-11 422H-7V426H-11V422Z" fill="white"/>
<path d="M13 422H17V426H13V422Z" fill="white"/>
<path d="M37 422H41V426H37V422Z" fill="white"/>
<path d="M61 422H65V426H61V422Z" fill="white"/>
<path d="M85 422H89V426H85V422Z" fill="white"/>
<path d="M109 422H113V426H109V422Z" fill="white"/>
<path d="M-35 446H-31V450H-35V446Z" fill="white"/>
<path d="M-11 446H-7V450H-11V446Z" fill="white"/>
<path d="M13 446H17V450H13V446Z" fill="white"/>
<path d="M37 446H41V450H37V446Z" fill="white"/>
<path d="M61 446H65V450H61V446Z" fill="white"/>
<path d="M85 446H89V450H85V446Z" fill="white"/>
<path d="M109 446H113V450H109V446Z" fill="white"/>
<path d="M-35 470H-31V474H-35V470Z" fill="white"/>
<path d="M-11 470H-7V474H-11V470Z" fill="white"/>
<path d="M13 470H17V474H13V470Z" fill="white"/>
<path d="M37 470H41V474H37V470Z" fill="white"/>
<path d="M61 470H65V474H61V470Z" fill="white"/>
<path d="M85 470H89V474H85V470Z" fill="white"/>
<path d="M109 470H113V474H109V470Z" fill="white"/>
<path d="M-35 494H-31V498H-35V494Z" fill="white"/>
<path d="M-11 494H-7V498H-11V494Z" fill="white"/>
<path d="M13 494H17V498H13V494Z" fill="white"/>
<path d="M37 494H41V498H37V494Z" fill="white"/>
<path d="M61 494H65V498H61V494Z" fill="white"/>
<path d="M85 494H89V498H85V494Z" fill="white"/>
<path d="M109 494H113V498H109V494Z" fill="white"/>
<path d="M-35 518H-31V522H-35V518Z" fill="white"/>
<path d="M-11 518H-7V522H-11V518Z" fill="white"/>
<path d="M13 518H17V522H13V518Z" fill="white"/>
<path d="M37 518H41V522H37V518Z" fill="white"/>
<path d="M61 518H65V522H61V518Z" fill="white"/>
<path d="M85 518H89V522H85V518Z" fill="white"/>
<path d="M109 518H113V522H109V518Z" fill="white"/>
<path d="M-35 542H-31V546H-35V542Z" fill="white"/>
<path d="M-11 542H-7V546H-11V542Z" fill="white"/>
<path d="M13 542H17V546H13V542Z" fill="white"/>
<path d="M37 542H41V546H37V542Z" fill="white"/>
<path d="M61 542H65V546H61V542Z" fill="white"/>
<path d="M85 542H89V546H85V542Z" fill="white"/>
<path d="M109 542H113V546H109V542Z" fill="white"/>
<path d="M-35 566H-31V570H-35V566Z" fill="white"/>
<path d="M-11 566H-7V570H-11V566Z" fill="white"/>
<path d="M13 566H17V570H13V566Z" fill="white"/>
<path d="M37 566H41V570H37V566Z" fill="white"/>
<path d="M61 566H65V570H61V566Z" fill="white"/>
<path d="M85 566H89V570H85V566Z" fill="white"/>
<path d="M109 566H113V570H109V566Z" fill="white"/>
</g>
<g opacity="0.2">
<path d="M771 103H775V107H771V103Z" fill="white"/>
<path d="M795 103H799V107H795V103Z" fill="white"/>
<path d="M819 103H823V107H819V103Z" fill="white"/>
<path d="M843 103H847V107H843V103Z" fill="white"/>
<path d="M867 103H871V107H867V103Z" fill="white"/>
<path d="M891 103H895V107H891V103Z" fill="white"/>
<path d="M915 103H919V107H915V103Z" fill="white"/>
<path d="M771 127H775V131H771V127Z" fill="white"/>
<path d="M795 127H799V131H795V127Z" fill="white"/>
<path d="M819 127H823V131H819V127Z" fill="white"/>
<path d="M843 127H847V131H843V127Z" fill="white"/>
<path d="M867 127H871V131H867V127Z" fill="white"/>
<path d="M891 127H895V131H891V127Z" fill="white"/>
<path d="M915 127H919V131H915V127Z" fill="white"/>
<path d="M771 151H775V155H771V151Z" fill="white"/>
<path d="M795 151H799V155H795V151Z" fill="white"/>
<path d="M819 151H823V155H819V151Z" fill="white"/>
<path d="M843 151H847V155H843V151Z" fill="white"/>
<path d="M867 151H871V155H867V151Z" fill="white"/>
<path d="M891 151H895V155H891V151Z" fill="white"/>
<path d="M915 151H919V155H915V151Z" fill="white"/>
<path d="M771 175H775V179H771V175Z" fill="white"/>
<path d="M795 175H799V179H795V175Z" fill="white"/>
<path d="M819 175H823V179H819V175Z" fill="white"/>
<path d="M843 175H847V179H843V175Z" fill="white"/>
<path d="M867 175H871V179H867V175Z" fill="white"/>
<path d="M891 175H895V179H891V175Z" fill="white"/>
<path d="M915 175H919V179H915V175Z" fill="white"/>
<path d="M771 199H775V203H771V199Z" fill="white"/>
<path d="M795 199H799V203H795V199Z" fill="white"/>
<path d="M819 199H823V203H819V199Z" fill="white"/>
<path d="M843 199H847V203H843V199Z" fill="white"/>
<path d="M867 199H871V203H867V199Z" fill="white"/>
<path d="M891 199H895V203H891V199Z" fill="white"/>
<path d="M915 199H919V203H915V199Z" fill="white"/>
<path d="M771 223H775V227H771V223Z" fill="white"/>
<path d="M795 223H799V227H795V223Z" fill="white"/>
<path d="M819 223H823V227H819V223Z" fill="white"/>
<path d="M843 223H847V227H843V223Z" fill="white"/>
<path d="M867 223H871V227H867V223Z" fill="white"/>
<path d="M891 223H895V227H891V223Z" fill="white"/>
<path d="M915 223H919V227H915V223Z" fill="white"/>
<path d="M771 247H775V251H771V247Z" fill="white"/>
<path d="M795 247H799V251H795V247Z" fill="white"/>
<path d="M819 247H823V251H819V247Z" fill="white"/>
<path d="M843 247H847V251H843V247Z" fill="white"/>
<path d="M867 247H871V251H867V247Z" fill="white"/>
<path d="M891 247H895V251H891V247Z" fill="white"/>
<path d="M915 247H919V251H915V247Z" fill="white"/>
</g>
<path opacity="0.2" d="M723 438C745.091 438 763 455.909 763 478H723V438Z" fill="white"/>
<g clip-path="url(#clip3_131_5023)">
<path d="M763 478H803V518C780.909 518 763 500.091 763 478Z" fill="#00E1F0"/>
</g>
<rect x="780" y="344" width="16" height="16" fill="#FFA733"/>
<rect x="780" y="376" width="16" height="16" fill="#FFA733"/>
<rect x="812" y="344" width="16" height="16" fill="#FFA733"/>
<rect x="812" y="376" width="16" height="16" fill="#FFA733"/>
</g>
<defs>
<clipPath id="clip0_131_5023">
<rect width="1840" height="610" fill="white"/>
</clipPath>
<clipPath id="clip1_131_5023">
<rect width="80" height="80" fill="white" transform="translate(549 103)"/>
</clipPath>
<clipPath id="clip2_131_5023">
<rect width="80" height="80" fill="white" transform="matrix(1 0 0 -1 1750 384)"/>
</clipPath>
<clipPath id="clip3_131_5023">
<rect width="80" height="80" fill="white" transform="translate(723 478)"/>
</clipPath>
</defs>
</svg>
