<svg id="Layer_1" data-name="Layer 1" xmlns="http://www.w3.org/2000/svg" viewBox="0 0 46 46"><defs><style>.cls-1{fill:#1aa581;}.cls-2{fill:none;stroke:#1aa581;}</style></defs><path class="cls-1" d="M29.36,19.49A7,7,0,0,0,31,17.66h0a6.52,6.52,0,0,1-1.89.55,3.42,3.42,0,0,0,1.44-1.95,6.15,6.15,0,0,1-2.08.86A3.18,3.18,0,0,0,26.08,16a3.41,3.41,0,0,0-3.28,3.53,3.59,3.59,0,0,0,.08.81,9.12,9.12,0,0,1-6.77-3.7,3.83,3.83,0,0,0-.45,1.79,3.61,3.61,0,0,0,1.46,2.93,3,3,0,0,1-1.48-.43v0a3.5,3.5,0,0,0,2.63,3.47,3,3,0,0,1-.86.12,3.18,3.18,0,0,1-.62-.06A3.37,3.37,0,0,0,19.85,27a6.28,6.28,0,0,1-4.07,1.5,5.11,5.11,0,0,1-.78-.05A8.74,8.74,0,0,0,20,30C25.82,30,29.59,24.8,29.36,19.49Z"/><path class="cls-2" d="M23,.5h0A22.5,22.5,0,0,1,45.5,23h0A22.5,22.5,0,0,1,23,45.5h0A22.5,22.5,0,0,1,.5,23h0A22.5,22.5,0,0,1,23,.5Z"/></svg>