<svg width="34" height="34" viewBox="0 0 34 34" fill="none" xmlns="http://www.w3.org/2000/svg">
<rect width="34" height="34" rx="17" transform="matrix(-1 0 0 1 34 0)" fill="#F7F7FA"/>
<path d="M12.2842 16.3081L15.2106 13.2919C15.5895 12.9027 16.1895 12.9027 16.5684 13.2919C16.9474 13.6811 16.9474 14.2973 16.5684 14.6865L15.2737 16.0162H21.0421C21.5684 16.0162 22 16.4594 22 17C22 17.5405 21.5684 17.9838 21.0421 17.9838H15.2737L16.5579 19.3135C16.9368 19.7027 16.9368 20.3189 16.5579 20.7081C16.3685 20.9026 16.1263 21 15.8842 21C15.6421 21 15.3895 20.9027 15.2105 20.7081L12.2842 17.7027C12.1053 17.5189 12 17.2703 12 17.0108C12 16.7513 12.1053 16.4919 12.2842 16.3081L12.2842 16.3081Z" fill="#7E7C89"/>
</svg>
