<svg width="596" height="54" viewBox="0 0 596 54" fill="none" xmlns="http://www.w3.org/2000/svg">
<path d="M298 27.5V28H298.5V27.5H298ZM3 27.5V27H2.5V27.5H3ZM3 54L5.88675 49H0.113249L3 54ZM3.5 47.375V42.9583H2.5V47.375H3.5ZM3.5 38.5417V34.125H2.5V38.5417H3.5ZM3.5 29.7083V27.5H2.5V29.7083H3.5ZM3 28H5.45833V27H3V28ZM10.375 28H15.2917V27H10.375V28ZM20.2083 28H25.125V27H20.2083V28ZM30.0417 28H34.9583V27H30.0417V28ZM39.875 28H44.7917V27H39.875V28ZM49.7083 28H54.625V27H49.7083V28ZM59.5417 28H64.4583V27H59.5417V28ZM69.375 28H74.2917V27H69.375V28ZM79.2083 28H84.125V27H79.2083V28ZM89.0417 28H93.9583V27H89.0417V28ZM98.875 28H103.792V27H98.875V28ZM108.708 28H113.625V27H108.708V28ZM118.542 28H123.458V27H118.542V28ZM128.375 28H133.292V27H128.375V28ZM138.208 28H143.125V27H138.208V28ZM148.042 28H152.958V27H148.042V28ZM157.875 28H162.792V27H157.875V28ZM167.708 28H172.625V27H167.708V28ZM177.542 28H182.458V27H177.542V28ZM187.375 28H192.292V27H187.375V28ZM197.208 28H202.125V27H197.208V28ZM207.042 28H211.958V27H207.042V28ZM216.875 28H221.792V27H216.875V28ZM226.708 28H231.625V27H226.708V28ZM236.542 28H241.458V27H236.542V28ZM246.375 28H251.292V27H246.375V28ZM256.208 28H261.125V27H256.208V28ZM266.042 28H270.958V27H266.042V28ZM275.875 28H280.792V27H275.875V28ZM285.708 28H290.625V27H285.708V28ZM295.542 28H298V27H295.542V28ZM298.5 27.5V25.2083H297.5V27.5H298.5ZM298.5 20.625V16.0417H297.5V20.625H298.5ZM298.5 11.4583V6.875H297.5V11.4583H298.5ZM298.5 2.29166V0H297.5V2.29166H298.5Z" fill="white"/>
<path d="M298 27.5V28H297.5V27.5H298ZM593 27.5V27H593.5V27.5H593ZM593 54L590.113 49H595.887L593 54ZM592.5 47.375V42.9583H593.5V47.375H592.5ZM592.5 38.5417V34.125H593.5V38.5417H592.5ZM592.5 29.7083V27.5H593.5V29.7083H592.5ZM593 28H590.542V27H593V28ZM585.625 28H580.708V27H585.625V28ZM575.792 28H570.875V27H575.792V28ZM565.958 28H561.042V27H565.958V28ZM556.125 28H551.208V27H556.125V28ZM546.292 28H541.375V27H546.292V28ZM536.458 28H531.542V27H536.458V28ZM526.625 28H521.708V27H526.625V28ZM516.792 28H511.875V27H516.792V28ZM506.958 28H502.042V27H506.958V28ZM497.125 28H492.208V27H497.125V28ZM487.292 28H482.375V27H487.292V28ZM477.458 28H472.542V27H477.458V28ZM467.625 28H462.708V27H467.625V28ZM457.792 28H452.875V27H457.792V28ZM447.958 28H443.042V27H447.958V28ZM438.125 28H433.208V27H438.125V28ZM428.292 28H423.375V27H428.292V28ZM418.458 28H413.542V27H418.458V28ZM408.625 28H403.708V27H408.625V28ZM398.792 28H393.875V27H398.792V28ZM388.958 28H384.042V27H388.958V28ZM379.125 28H374.208V27H379.125V28ZM369.292 28H364.375V27H369.292V28ZM359.458 28H354.542V27H359.458V28ZM349.625 28H344.708V27H349.625V28ZM339.792 28H334.875V27H339.792V28ZM329.958 28H325.042V27H329.958V28ZM320.125 28H315.208V27H320.125V28ZM310.292 28H305.375V27H310.292V28ZM300.458 28H298V27H300.458V28ZM297.5 27.5V25.2083H298.5V27.5H297.5ZM297.5 20.625V16.0417H298.5V20.625H297.5ZM297.5 11.4583V6.875H298.5V11.4583H297.5ZM297.5 2.29166V0H298.5V2.29166H297.5Z" fill="white"/>
</svg>
