<svg width="1186" height="54" viewBox="0 0 1186 54" fill="none" xmlns="http://www.w3.org/2000/svg">
<path d="M888.5 27.5V28H889V27.5H888.5ZM887.5 27.5V27H887V27.5H887.5ZM887.5 54L890.387 49H884.613L887.5 54ZM888 47.375V42.9583H887V47.375H888ZM888 38.5417V34.125H887V38.5417H888ZM888 29.7083V27.5H887V29.7083H888ZM887.5 28H887.75V27H887.5V28ZM888.25 28H888.5V27H888.25V28ZM889 27.5V25.2083H888V27.5H889ZM889 20.625V16.0417H888V20.625H889ZM889 11.4583V6.875H888V11.4583H889ZM889 2.29166V0H888V2.29166H889Z" fill="white"/>
<path d="M298 27.5V28H298.5V27.5H298ZM3 27.5V27H2.5V27.5H3ZM3 54L5.88675 49H0.113249L3 54ZM3.5 47.375V42.9583H2.5V47.375H3.5ZM3.5 38.5417V34.125H2.5V38.5417H3.5ZM3.5 29.7083V27.5H2.5V29.7083H3.5ZM3 28H5.45833V27H3V28ZM10.375 28H15.2917V27H10.375V28ZM20.2083 28H25.125V27H20.2083V28ZM30.0417 28H34.9583V27H30.0417V28ZM39.875 28H44.7917V27H39.875V28ZM49.7083 28H54.625V27H49.7083V28ZM59.5417 28H64.4583V27H59.5417V28ZM69.375 28H74.2917V27H69.375V28ZM79.2083 28H84.125V27H79.2083V28ZM89.0417 28H93.9583V27H89.0417V28ZM98.875 28H103.792V27H98.875V28ZM108.708 28H113.625V27H108.708V28ZM118.542 28H123.458V27H118.542V28ZM128.375 28H133.292V27H128.375V28ZM138.208 28H143.125V27H138.208V28ZM148.042 28H152.958V27H148.042V28ZM157.875 28H162.792V27H157.875V28ZM167.708 28H172.625V27H167.708V28ZM177.542 28H182.458V27H177.542V28ZM187.375 28H192.292V27H187.375V28ZM197.208 28H202.125V27H197.208V28ZM207.042 28H211.958V27H207.042V28ZM216.875 28H221.792V27H216.875V28ZM226.708 28H231.625V27H226.708V28ZM236.542 28H241.458V27H236.542V28ZM246.375 28H251.292V27H246.375V28ZM256.208 28H261.125V27H256.208V28ZM266.042 28H270.958V27H266.042V28ZM275.875 28H280.792V27H275.875V28ZM285.708 28H290.625V27H285.708V28ZM295.542 28H298V27H295.542V28ZM298.5 27.5V25.2083H297.5V27.5H298.5ZM298.5 20.625V16.0417H297.5V20.625H298.5ZM298.5 11.4583V6.875H297.5V11.4583H298.5ZM298.5 2.29166V0H297.5V2.29166H298.5Z" fill="white"/>
<path d="M888 27.5V28H888.5V27.5H888ZM599 27.5V27H598.5V27.5H599ZM599 54L601.887 49H596.113L599 54ZM599.5 47.375V42.9583H598.5V47.375H599.5ZM599.5 38.5417V34.125H598.5V38.5417H599.5ZM599.5 29.7083V27.5H598.5V29.7083H599.5ZM599 28H601.491V27H599V28ZM606.474 28H611.457V27H606.474V28ZM616.44 28H621.422V27H616.44V28ZM626.405 28H631.388V27H626.405V28ZM636.371 28H641.353V27H636.371V28ZM646.336 28H651.319V27H646.336V28ZM656.302 28H661.284V27H656.302V28ZM666.267 28H671.25V27H666.267V28ZM676.233 28H681.215V27H676.233V28ZM686.198 28H691.181V27H686.198V28ZM696.164 28H701.147V27H696.164V28ZM706.129 28H711.112V27H706.129V28ZM716.095 28H721.078V27H716.095V28ZM726.06 28H731.043V27H726.06V28ZM736.026 28H741.009V27H736.026V28ZM745.991 28H750.974V27H745.991V28ZM755.957 28H760.94V27H755.957V28ZM765.922 28H770.905V27H765.922V28ZM775.888 28H780.871V27H775.888V28ZM785.853 28H790.836V27H785.853V28ZM795.819 28H800.802V27H795.819V28ZM805.784 28H810.767V27H805.784V28ZM815.75 28H820.733V27H815.75V28ZM825.715 28H830.698V27H825.715V28ZM835.681 28H840.664V27H835.681V28ZM845.647 28H850.629V27H845.647V28ZM855.612 28H860.595V27H855.612V28ZM865.578 28H870.56V27H865.578V28ZM875.543 28H880.526V27H875.543V28ZM885.509 28H888V27H885.509V28ZM888.5 27.5V25.2083H887.5V27.5H888.5ZM888.5 20.625V16.0417H887.5V20.625H888.5ZM888.5 11.4583V6.875H887.5V11.4583H888.5ZM888.5 2.29166V0H887.5V2.29166H888.5Z" fill="white"/>
<path d="M888 27.5V28H887.5V27.5H888ZM1183 27.5V27H1183.5V27.5H1183ZM1183 54L1180.11 49H1185.89L1183 54ZM1182.5 47.375V42.9583H1183.5V47.375H1182.5ZM1182.5 38.5417V34.125H1183.5V38.5417H1182.5ZM1182.5 29.7083V27.5H1183.5V29.7083H1182.5ZM1183 28H1180.54V27H1183V28ZM1175.62 28H1170.71V27H1175.62V28ZM1165.79 28H1160.88V27H1165.79V28ZM1155.96 28H1151.04V27H1155.96V28ZM1146.13 28H1141.21V27H1146.13V28ZM1136.29 28H1131.38V27H1136.29V28ZM1126.46 28H1121.54V27H1126.46V28ZM1116.62 28H1111.71V27H1116.62V28ZM1106.79 28H1101.88V27H1106.79V28ZM1096.96 28H1092.04V27H1096.96V28ZM1087.13 28H1082.21V27H1087.13V28ZM1077.29 28H1072.38V27H1077.29V28ZM1067.46 28H1062.54V27H1067.46V28ZM1057.63 28H1052.71V27H1057.63V28ZM1047.79 28H1042.88V27H1047.79V28ZM1037.96 28H1033.04V27H1037.96V28ZM1028.12 28H1023.21V27H1028.12V28ZM1018.29 28H1013.37V27H1018.29V28ZM1008.46 28H1003.54V27H1008.46V28ZM998.625 28H993.708V27H998.625V28ZM988.792 28H983.875V27H988.792V28ZM978.958 28H974.042V27H978.958V28ZM969.125 28H964.208V27H969.125V28ZM959.292 28H954.375V27H959.292V28ZM949.458 28H944.542V27H949.458V28ZM939.625 28H934.708V27H939.625V28ZM929.792 28H924.875V27H929.792V28ZM919.958 28H915.042V27H919.958V28ZM910.125 28H905.208V27H910.125V28ZM900.292 28H895.375V27H900.292V28ZM890.458 28H888V27H890.458V28ZM887.5 27.5V25.2083H888.5V27.5H887.5ZM887.5 20.625V16.0417H888.5V20.625H887.5ZM887.5 11.4583V6.875H888.5V11.4583H887.5ZM887.5 2.29166V0H888.5V2.29166H887.5Z" fill="white"/>
<path d="M298 27.5V28H297.5V27.5H298ZM587 27.5V27H587.5V27.5H587ZM587 54L584.113 49H589.887L587 54ZM586.5 47.375V42.9583H587.5V47.375H586.5ZM586.5 38.5417V34.125H587.5V38.5417H586.5ZM586.5 29.7083V27.5H587.5V29.7083H586.5ZM587 28H584.509V27H587V28ZM579.526 28H574.543V27H579.526V28ZM569.56 28H564.578V27H569.56V28ZM559.595 28H554.612V27H559.595V28ZM549.629 28H544.647V27H549.629V28ZM539.664 28H534.681V27H539.664V28ZM529.698 28H524.716V27H529.698V28ZM519.733 28H514.75V27H519.733V28ZM509.767 28H504.785V27H509.767V28ZM499.802 28H494.819V27H499.802V28ZM489.836 28H484.853V27H489.836V28ZM479.871 28H474.888V27H479.871V28ZM469.905 28H464.922V27H469.905V28ZM459.94 28H454.957V27H459.94V28ZM449.974 28H444.991V27H449.974V28ZM440.009 28H435.026V27H440.009V28ZM430.043 28H425.06V27H430.043V28ZM420.078 28H415.095V27H420.078V28ZM410.112 28H405.129V27H410.112V28ZM400.147 28H395.164V27H400.147V28ZM390.181 28H385.198V27H390.181V28ZM380.216 28H375.233V27H380.216V28ZM370.25 28H365.267V27H370.25V28ZM360.285 28H355.302V27H360.285V28ZM350.319 28H345.336V27H350.319V28ZM340.353 28H335.371V27H340.353V28ZM330.388 28H325.405V27H330.388V28ZM320.422 28H315.44V27H320.422V28ZM310.457 28H305.474V27H310.457V28ZM300.491 28H298V27H300.491V28ZM297.5 27.5V25.2083H298.5V27.5H297.5ZM297.5 20.625V16.0417H298.5V20.625H297.5ZM297.5 11.4583V6.875H298.5V11.4583H297.5ZM297.5 2.29166V0H298.5V2.29166H297.5Z" fill="white"/>
<path d="M298 54L300.887 49H295.113L298 54ZM297.5 0V2.29167H298.5V0H297.5ZM297.5 6.875V11.4583H298.5V6.875H297.5ZM297.5 16.0417V20.625H298.5V16.0417H297.5ZM297.5 25.2083V27.5H298.5V25.2083H297.5ZM297.5 27.5V29.7083H298.5V27.5H297.5ZM297.5 34.125V38.5417H298.5V34.125H297.5ZM297.5 42.9583V47.375H298.5V42.9583H297.5Z" fill="white"/>
</svg>
