<svg width="8" height="10" viewBox="0 0 8 10" fill="none" xmlns="http://www.w3.org/2000/svg">
<path d="M4.69187 0.284247L7.70811 3.21055C8.0973 3.5895 8.0973 4.18946 7.70811 4.5684C7.31891 4.94735 6.70273 4.94735 6.31354 4.5684L4.98382 3.27369V9.04209C4.98382 9.5684 4.54055 10 4.00001 10C3.45947 10 3.0162 9.5684 3.0162 9.04209V3.27369L1.68648 4.5579C1.29729 4.93684 0.681105 4.93684 0.291913 4.5579C0.097356 4.36846 0 4.1263 0 3.88422C0 3.64213 0.0972807 3.38948 0.291913 3.21053L3.29734 0.284229C3.48112 0.105292 3.72974 0 3.98924 0C4.24866 0 4.50814 0.105293 4.69191 0.284229L4.69187 0.284247Z" fill="#1AA581"/>
</svg>
